<?xml version="1.0" encoding="utf-8" standalone="no"?>
<!DOCTYPE svg PUBLIC "-//W3C//DTD SVG 1.1//EN"
  "http://www.w3.org/Graphics/SVG/1.1/DTD/svg11.dtd">
<!-- Created with matplotlib (https://matplotlib.org/) -->
<svg height="257.76pt" version="1.1" viewBox="0 0 386.64 257.76" width="386.64pt" xmlns="http://www.w3.org/2000/svg" xmlns:xlink="http://www.w3.org/1999/xlink">
 <metadata>
  <rdf:RDF xmlns:cc="http://creativecommons.org/ns#" xmlns:dc="http://purl.org/dc/elements/1.1/" xmlns:rdf="http://www.w3.org/1999/02/22-rdf-syntax-ns#">
   <cc:Work>
    <dc:type rdf:resource="http://purl.org/dc/dcmitype/StillImage"/>
    <dc:date>2023-03-16T20:37:37.827091</dc:date>
    <dc:format>image/svg+xml</dc:format>
    <dc:creator>
     <cc:Agent>
      <dc:title>Matplotlib v3.3.3, https://matplotlib.org/</dc:title>
     </cc:Agent>
    </dc:creator>
   </cc:Work>
  </rdf:RDF>
 </metadata>
 <defs>
  <style type="text/css">*{stroke-linecap:butt;stroke-linejoin:round;}</style>
 </defs>
 <g id="figure_1">
  <g id="patch_1">
   <path d="M 0 257.76 
L 386.64 257.76 
L 386.64 0 
L 0 0 
z
" style="fill:#ffffff;"/>
  </g>
  <g id="axes_1">
   <g id="patch_2">
    <path d="M 39.58149 224.40351 
L 374.227778 224.40351 
L 374.227778 6.799459 
L 39.58149 6.799459 
z
" style="fill:#ffffff;"/>
   </g>
   <g id="PathCollection_1">
    <defs>
     <path d="M 0 3 
C 0.795609 3 1.55874 2.683901 2.12132 2.12132 
C 2.683901 1.55874 3 0.795609 3 0 
C 3 -0.795609 2.683901 -1.55874 2.12132 -2.12132 
C 1.55874 -2.683901 0.795609 -3 0 -3 
C -0.795609 -3 -1.55874 -2.683901 -2.12132 -2.12132 
C -2.683901 -1.55874 -3 -0.795609 -3 0 
C -3 0.795609 -2.683901 1.55874 -2.12132 2.12132 
C -1.55874 2.683901 -0.795609 3 0 3 
z
" id="m0339198f6b" style="stroke:#1f77b4;"/>
    </defs>
    <g clip-path="url(#p40c461b829)">
     <use style="fill:#1f77b4;stroke:#1f77b4;" x="40.244156" xlink:href="#m0339198f6b" y="118.525452"/>
     <use style="fill:#1f77b4;stroke:#1f77b4;" x="46.926037" xlink:href="#m0339198f6b" y="156.70463"/>
     <use style="fill:#1f77b4;stroke:#1f77b4;" x="53.60571" xlink:href="#m0339198f6b" y="166.238236"/>
     <use style="fill:#1f77b4;stroke:#1f77b4;" x="60.285382" xlink:href="#m0339198f6b" y="171.945936"/>
     <use style="fill:#1f77b4;stroke:#1f77b4;" x="66.965055" xlink:href="#m0339198f6b" y="175.338301"/>
     <use style="fill:#1f77b4;stroke:#1f77b4;" x="73.646936" xlink:href="#m0339198f6b" y="177.754406"/>
     <use style="fill:#1f77b4;stroke:#1f77b4;" x="80.326608" xlink:href="#m0339198f6b" y="180.016344"/>
     <use style="fill:#1f77b4;stroke:#1f77b4;" x="87.006281" xlink:href="#m0339198f6b" y="181.833159"/>
     <use style="fill:#1f77b4;stroke:#1f77b4;" x="93.685953" xlink:href="#m0339198f6b" y="183.376782"/>
     <use style="fill:#1f77b4;stroke:#1f77b4;" x="100.367835" xlink:href="#m0339198f6b" y="184.684398"/>
     <use style="fill:#1f77b4;stroke:#1f77b4;" x="107.047507" xlink:href="#m0339198f6b" y="185.790775"/>
     <use style="fill:#1f77b4;stroke:#1f77b4;" x="113.727179" xlink:href="#m0339198f6b" y="186.62179"/>
     <use style="fill:#1f77b4;stroke:#1f77b4;" x="120.406852" xlink:href="#m0339198f6b" y="187.530548"/>
     <use style="fill:#1f77b4;stroke:#1f77b4;" x="127.088733" xlink:href="#m0339198f6b" y="188.392198"/>
     <use style="fill:#1f77b4;stroke:#1f77b4;" x="133.768406" xlink:href="#m0339198f6b" y="189.03373"/>
     <use style="fill:#1f77b4;stroke:#1f77b4;" x="140.448078" xlink:href="#m0339198f6b" y="189.639864"/>
     <use style="fill:#1f77b4;stroke:#1f77b4;" x="147.12775" xlink:href="#m0339198f6b" y="190.392417"/>
     <use style="fill:#1f77b4;stroke:#1f77b4;" x="153.809632" xlink:href="#m0339198f6b" y="190.926369"/>
     <use style="fill:#1f77b4;stroke:#1f77b4;" x="160.489304" xlink:href="#m0339198f6b" y="191.463175"/>
     <use style="fill:#1f77b4;stroke:#1f77b4;" x="167.168977" xlink:href="#m0339198f6b" y="191.941505"/>
     <use style="fill:#1f77b4;stroke:#1f77b4;" x="173.848649" xlink:href="#m0339198f6b" y="192.327663"/>
     <use style="fill:#1f77b4;stroke:#1f77b4;" x="180.53053" xlink:href="#m0339198f6b" y="192.751158"/>
     <use style="fill:#1f77b4;stroke:#1f77b4;" x="187.210203" xlink:href="#m0339198f6b" y="193.269701"/>
     <use style="fill:#1f77b4;stroke:#1f77b4;" x="193.889875" xlink:href="#m0339198f6b" y="193.598512"/>
     <use style="fill:#1f77b4;stroke:#1f77b4;" x="200.569548" xlink:href="#m0339198f6b" y="193.937329"/>
     <use style="fill:#1f77b4;stroke:#1f77b4;" x="207.251429" xlink:href="#m0339198f6b" y="194.212218"/>
     <use style="fill:#1f77b4;stroke:#1f77b4;" x="213.931102" xlink:href="#m0339198f6b" y="194.684361"/>
     <use style="fill:#1f77b4;stroke:#1f77b4;" x="220.610774" xlink:href="#m0339198f6b" y="194.928336"/>
     <use style="fill:#1f77b4;stroke:#1f77b4;" x="227.290446" xlink:href="#m0339198f6b" y="195.257862"/>
     <use style="fill:#1f77b4;stroke:#1f77b4;" x="233.972328" xlink:href="#m0339198f6b" y="195.492733"/>
     <use style="fill:#1f77b4;stroke:#1f77b4;" x="240.652" xlink:href="#m0339198f6b" y="195.781066"/>
     <use style="fill:#1f77b4;stroke:#1f77b4;" x="247.331673" xlink:href="#m0339198f6b" y="196.042964"/>
     <use style="fill:#1f77b4;stroke:#1f77b4;" x="254.011345" xlink:href="#m0339198f6b" y="196.46277"/>
     <use style="fill:#1f77b4;stroke:#1f77b4;" x="260.691017" xlink:href="#m0339198f6b" y="196.709544"/>
     <use style="fill:#1f77b4;stroke:#1f77b4;" x="267.372899" xlink:href="#m0339198f6b" y="196.930032"/>
     <use style="fill:#1f77b4;stroke:#1f77b4;" x="274.052571" xlink:href="#m0339198f6b" y="197.199468"/>
     <use style="fill:#1f77b4;stroke:#1f77b4;" x="280.732244" xlink:href="#m0339198f6b" y="197.387753"/>
     <use style="fill:#1f77b4;stroke:#1f77b4;" x="287.411916" xlink:href="#m0339198f6b" y="197.631876"/>
     <use style="fill:#1f77b4;stroke:#1f77b4;" x="294.093797" xlink:href="#m0339198f6b" y="197.876819"/>
     <use style="fill:#1f77b4;stroke:#1f77b4;" x="300.77347" xlink:href="#m0339198f6b" y="198.049181"/>
     <use style="fill:#1f77b4;stroke:#1f77b4;" x="307.453142" xlink:href="#m0339198f6b" y="198.205404"/>
     <use style="fill:#1f77b4;stroke:#1f77b4;" x="314.132815" xlink:href="#m0339198f6b" y="198.438273"/>
     <use style="fill:#1f77b4;stroke:#1f77b4;" x="320.814696" xlink:href="#m0339198f6b" y="198.67917"/>
     <use style="fill:#1f77b4;stroke:#1f77b4;" x="327.494369" xlink:href="#m0339198f6b" y="198.777072"/>
     <use style="fill:#1f77b4;stroke:#1f77b4;" x="334.174041" xlink:href="#m0339198f6b" y="198.920484"/>
     <use style="fill:#1f77b4;stroke:#1f77b4;" x="340.853713" xlink:href="#m0339198f6b" y="199.129456"/>
     <use style="fill:#1f77b4;stroke:#1f77b4;" x="347.535595" xlink:href="#m0339198f6b" y="199.309181"/>
     <use style="fill:#1f77b4;stroke:#1f77b4;" x="354.215267" xlink:href="#m0339198f6b" y="199.436049"/>
     <use style="fill:#1f77b4;stroke:#1f77b4;" x="360.89494" xlink:href="#m0339198f6b" y="199.54035"/>
     <use style="fill:#1f77b4;stroke:#1f77b4;" x="367.574612" xlink:href="#m0339198f6b" y="199.634712"/>
    </g>
   </g>
   <g id="PathCollection_2">
    <defs>
     <path d="M 0 3 
C 0.795609 3 1.55874 2.683901 2.12132 2.12132 
C 2.683901 1.55874 3 0.795609 3 0 
C 3 -0.795609 2.683901 -1.55874 2.12132 -2.12132 
C 1.55874 -2.683901 0.795609 -3 0 -3 
C -0.795609 -3 -1.55874 -2.683901 -2.12132 -2.12132 
C -2.683901 -1.55874 -3 -0.795609 -3 0 
C -3 0.795609 -2.683901 1.55874 -2.12132 2.12132 
C -1.55874 2.683901 -0.795609 3 0 3 
z
" id="m648427d719" style="stroke:#ff7f0e;"/>
    </defs>
    <g clip-path="url(#p40c461b829)">
     <use style="fill:#ff7f0e;stroke:#ff7f0e;" x="40.244156" xlink:href="#m648427d719" y="91.308303"/>
     <use style="fill:#ff7f0e;stroke:#ff7f0e;" x="46.926037" xlink:href="#m648427d719" y="125.143921"/>
     <use style="fill:#ff7f0e;stroke:#ff7f0e;" x="53.60571" xlink:href="#m648427d719" y="134.291369"/>
     <use style="fill:#ff7f0e;stroke:#ff7f0e;" x="60.285382" xlink:href="#m648427d719" y="139.354774"/>
     <use style="fill:#ff7f0e;stroke:#ff7f0e;" x="66.965055" xlink:href="#m648427d719" y="142.363535"/>
     <use style="fill:#ff7f0e;stroke:#ff7f0e;" x="73.646936" xlink:href="#m648427d719" y="145.141024"/>
     <use style="fill:#ff7f0e;stroke:#ff7f0e;" x="80.326608" xlink:href="#m648427d719" y="147.115256"/>
     <use style="fill:#ff7f0e;stroke:#ff7f0e;" x="87.006281" xlink:href="#m648427d719" y="149.050552"/>
     <use style="fill:#ff7f0e;stroke:#ff7f0e;" x="93.685953" xlink:href="#m648427d719" y="150.44471"/>
     <use style="fill:#ff7f0e;stroke:#ff7f0e;" x="100.367835" xlink:href="#m648427d719" y="151.793446"/>
     <use style="fill:#ff7f0e;stroke:#ff7f0e;" x="107.047507" xlink:href="#m648427d719" y="153.1705"/>
     <use style="fill:#ff7f0e;stroke:#ff7f0e;" x="113.727179" xlink:href="#m648427d719" y="154.214886"/>
     <use style="fill:#ff7f0e;stroke:#ff7f0e;" x="120.406852" xlink:href="#m648427d719" y="155.244312"/>
     <use style="fill:#ff7f0e;stroke:#ff7f0e;" x="127.088733" xlink:href="#m648427d719" y="156.13573"/>
     <use style="fill:#ff7f0e;stroke:#ff7f0e;" x="133.768406" xlink:href="#m648427d719" y="157.093742"/>
     <use style="fill:#ff7f0e;stroke:#ff7f0e;" x="140.448078" xlink:href="#m648427d719" y="157.617787"/>
     <use style="fill:#ff7f0e;stroke:#ff7f0e;" x="147.12775" xlink:href="#m648427d719" y="158.430878"/>
     <use style="fill:#ff7f0e;stroke:#ff7f0e;" x="153.809632" xlink:href="#m648427d719" y="158.921879"/>
     <use style="fill:#ff7f0e;stroke:#ff7f0e;" x="160.489304" xlink:href="#m648427d719" y="159.088895"/>
     <use style="fill:#ff7f0e;stroke:#ff7f0e;" x="167.168977" xlink:href="#m648427d719" y="159.384822"/>
     <use style="fill:#ff7f0e;stroke:#ff7f0e;" x="173.848649" xlink:href="#m648427d719" y="159.924121"/>
     <use style="fill:#ff7f0e;stroke:#ff7f0e;" x="180.53053" xlink:href="#m648427d719" y="160.431029"/>
     <use style="fill:#ff7f0e;stroke:#ff7f0e;" x="187.210203" xlink:href="#m648427d719" y="160.653672"/>
     <use style="fill:#ff7f0e;stroke:#ff7f0e;" x="193.889875" xlink:href="#m648427d719" y="161.208412"/>
     <use style="fill:#ff7f0e;stroke:#ff7f0e;" x="200.569548" xlink:href="#m648427d719" y="161.451286"/>
     <use style="fill:#ff7f0e;stroke:#ff7f0e;" x="207.251429" xlink:href="#m648427d719" y="161.814116"/>
     <use style="fill:#ff7f0e;stroke:#ff7f0e;" x="213.931102" xlink:href="#m648427d719" y="162.056972"/>
     <use style="fill:#ff7f0e;stroke:#ff7f0e;" x="220.610774" xlink:href="#m648427d719" y="162.302915"/>
     <use style="fill:#ff7f0e;stroke:#ff7f0e;" x="227.290446" xlink:href="#m648427d719" y="162.684295"/>
     <use style="fill:#ff7f0e;stroke:#ff7f0e;" x="233.972328" xlink:href="#m648427d719" y="162.907638"/>
     <use style="fill:#ff7f0e;stroke:#ff7f0e;" x="240.652" xlink:href="#m648427d719" y="163.170865"/>
     <use style="fill:#ff7f0e;stroke:#ff7f0e;" x="247.331673" xlink:href="#m648427d719" y="163.447776"/>
     <use style="fill:#ff7f0e;stroke:#ff7f0e;" x="254.011345" xlink:href="#m648427d719" y="163.670731"/>
     <use style="fill:#ff7f0e;stroke:#ff7f0e;" x="260.691017" xlink:href="#m648427d719" y="163.790163"/>
     <use style="fill:#ff7f0e;stroke:#ff7f0e;" x="267.372899" xlink:href="#m648427d719" y="164.07883"/>
     <use style="fill:#ff7f0e;stroke:#ff7f0e;" x="274.052571" xlink:href="#m648427d719" y="164.223149"/>
     <use style="fill:#ff7f0e;stroke:#ff7f0e;" x="280.732244" xlink:href="#m648427d719" y="164.566969"/>
     <use style="fill:#ff7f0e;stroke:#ff7f0e;" x="287.411916" xlink:href="#m648427d719" y="164.779228"/>
     <use style="fill:#ff7f0e;stroke:#ff7f0e;" x="294.093797" xlink:href="#m648427d719" y="164.988392"/>
     <use style="fill:#ff7f0e;stroke:#ff7f0e;" x="300.77347" xlink:href="#m648427d719" y="165.296904"/>
     <use style="fill:#ff7f0e;stroke:#ff7f0e;" x="307.453142" xlink:href="#m648427d719" y="165.447948"/>
     <use style="fill:#ff7f0e;stroke:#ff7f0e;" x="314.132815" xlink:href="#m648427d719" y="165.552041"/>
     <use style="fill:#ff7f0e;stroke:#ff7f0e;" x="320.814696" xlink:href="#m648427d719" y="165.683769"/>
     <use style="fill:#ff7f0e;stroke:#ff7f0e;" x="327.494369" xlink:href="#m648427d719" y="165.9727"/>
     <use style="fill:#ff7f0e;stroke:#ff7f0e;" x="334.174041" xlink:href="#m648427d719" y="166.063194"/>
     <use style="fill:#ff7f0e;stroke:#ff7f0e;" x="340.853713" xlink:href="#m648427d719" y="166.11659"/>
     <use style="fill:#ff7f0e;stroke:#ff7f0e;" x="347.535595" xlink:href="#m648427d719" y="166.300801"/>
     <use style="fill:#ff7f0e;stroke:#ff7f0e;" x="354.215267" xlink:href="#m648427d719" y="166.374157"/>
     <use style="fill:#ff7f0e;stroke:#ff7f0e;" x="360.89494" xlink:href="#m648427d719" y="166.520264"/>
     <use style="fill:#ff7f0e;stroke:#ff7f0e;" x="367.574612" xlink:href="#m648427d719" y="166.751933"/>
    </g>
   </g>
   <g id="PathCollection_3">
    <defs>
     <path d="M 0 3 
C 0.795609 3 1.55874 2.683901 2.12132 2.12132 
C 2.683901 1.55874 3 0.795609 3 0 
C 3 -0.795609 2.683901 -1.55874 2.12132 -2.12132 
C 1.55874 -2.683901 0.795609 -3 0 -3 
C -0.795609 -3 -1.55874 -2.683901 -2.12132 -2.12132 
C -2.683901 -1.55874 -3 -0.795609 -3 0 
C -3 0.795609 -2.683901 1.55874 -2.12132 2.12132 
C -1.55874 2.683901 -0.795609 3 0 3 
z
" id="m368651faaa" style="stroke:#2ca02c;"/>
    </defs>
    <g clip-path="url(#p40c461b829)">
     <use style="fill:#2ca02c;stroke:#2ca02c;" x="40.244156" xlink:href="#m368651faaa" y="65.11905"/>
     <use style="fill:#2ca02c;stroke:#2ca02c;" x="46.926037" xlink:href="#m368651faaa" y="98.180336"/>
     <use style="fill:#2ca02c;stroke:#2ca02c;" x="53.60571" xlink:href="#m368651faaa" y="108.214788"/>
     <use style="fill:#2ca02c;stroke:#2ca02c;" x="60.285382" xlink:href="#m368651faaa" y="115.041633"/>
     <use style="fill:#2ca02c;stroke:#2ca02c;" x="66.965055" xlink:href="#m368651faaa" y="120.575937"/>
     <use style="fill:#2ca02c;stroke:#2ca02c;" x="73.646936" xlink:href="#m368651faaa" y="125.370292"/>
     <use style="fill:#2ca02c;stroke:#2ca02c;" x="80.326608" xlink:href="#m368651faaa" y="129.073891"/>
     <use style="fill:#2ca02c;stroke:#2ca02c;" x="87.006281" xlink:href="#m368651faaa" y="132.191191"/>
     <use style="fill:#2ca02c;stroke:#2ca02c;" x="93.685953" xlink:href="#m368651faaa" y="134.556985"/>
     <use style="fill:#2ca02c;stroke:#2ca02c;" x="100.367835" xlink:href="#m368651faaa" y="136.761401"/>
     <use style="fill:#2ca02c;stroke:#2ca02c;" x="107.047507" xlink:href="#m368651faaa" y="138.833005"/>
     <use style="fill:#2ca02c;stroke:#2ca02c;" x="113.727179" xlink:href="#m368651faaa" y="140.48272"/>
     <use style="fill:#2ca02c;stroke:#2ca02c;" x="120.406852" xlink:href="#m368651faaa" y="142.21004"/>
     <use style="fill:#2ca02c;stroke:#2ca02c;" x="127.088733" xlink:href="#m368651faaa" y="143.859924"/>
     <use style="fill:#2ca02c;stroke:#2ca02c;" x="133.768406" xlink:href="#m368651faaa" y="145.545166"/>
     <use style="fill:#2ca02c;stroke:#2ca02c;" x="140.448078" xlink:href="#m368651faaa" y="147.03655"/>
     <use style="fill:#2ca02c;stroke:#2ca02c;" x="147.12775" xlink:href="#m368651faaa" y="148.407191"/>
     <use style="fill:#2ca02c;stroke:#2ca02c;" x="153.809632" xlink:href="#m368651faaa" y="149.322248"/>
     <use style="fill:#2ca02c;stroke:#2ca02c;" x="160.489304" xlink:href="#m368651faaa" y="150.522383"/>
     <use style="fill:#2ca02c;stroke:#2ca02c;" x="167.168977" xlink:href="#m368651faaa" y="151.447277"/>
     <use style="fill:#2ca02c;stroke:#2ca02c;" x="173.848649" xlink:href="#m368651faaa" y="152.439804"/>
     <use style="fill:#2ca02c;stroke:#2ca02c;" x="180.53053" xlink:href="#m368651faaa" y="153.381949"/>
     <use style="fill:#2ca02c;stroke:#2ca02c;" x="187.210203" xlink:href="#m368651faaa" y="154.513896"/>
     <use style="fill:#2ca02c;stroke:#2ca02c;" x="193.889875" xlink:href="#m368651faaa" y="155.572209"/>
     <use style="fill:#2ca02c;stroke:#2ca02c;" x="200.569548" xlink:href="#m368651faaa" y="156.183075"/>
     <use style="fill:#2ca02c;stroke:#2ca02c;" x="207.251429" xlink:href="#m368651faaa" y="156.684991"/>
     <use style="fill:#2ca02c;stroke:#2ca02c;" x="213.931102" xlink:href="#m368651faaa" y="157.588978"/>
     <use style="fill:#2ca02c;stroke:#2ca02c;" x="220.610774" xlink:href="#m368651faaa" y="158.353298"/>
     <use style="fill:#2ca02c;stroke:#2ca02c;" x="227.290446" xlink:href="#m368651faaa" y="159.313661"/>
     <use style="fill:#2ca02c;stroke:#2ca02c;" x="233.972328" xlink:href="#m368651faaa" y="160.039156"/>
     <use style="fill:#2ca02c;stroke:#2ca02c;" x="240.652" xlink:href="#m368651faaa" y="160.696301"/>
     <use style="fill:#2ca02c;stroke:#2ca02c;" x="247.331673" xlink:href="#m368651faaa" y="161.285385"/>
     <use style="fill:#2ca02c;stroke:#2ca02c;" x="254.011345" xlink:href="#m368651faaa" y="162.035325"/>
     <use style="fill:#2ca02c;stroke:#2ca02c;" x="260.691017" xlink:href="#m368651faaa" y="162.793948"/>
     <use style="fill:#2ca02c;stroke:#2ca02c;" x="267.372899" xlink:href="#m368651faaa" y="163.396218"/>
     <use style="fill:#2ca02c;stroke:#2ca02c;" x="274.052571" xlink:href="#m368651faaa" y="163.926332"/>
     <use style="fill:#2ca02c;stroke:#2ca02c;" x="280.732244" xlink:href="#m368651faaa" y="164.323646"/>
     <use style="fill:#2ca02c;stroke:#2ca02c;" x="287.411916" xlink:href="#m368651faaa" y="164.833523"/>
     <use style="fill:#2ca02c;stroke:#2ca02c;" x="294.093797" xlink:href="#m368651faaa" y="165.532044"/>
     <use style="fill:#2ca02c;stroke:#2ca02c;" x="300.77347" xlink:href="#m368651faaa" y="166.086873"/>
     <use style="fill:#2ca02c;stroke:#2ca02c;" x="307.453142" xlink:href="#m368651faaa" y="166.643506"/>
     <use style="fill:#2ca02c;stroke:#2ca02c;" x="314.132815" xlink:href="#m368651faaa" y="167.03446"/>
     <use style="fill:#2ca02c;stroke:#2ca02c;" x="320.814696" xlink:href="#m368651faaa" y="167.547774"/>
     <use style="fill:#2ca02c;stroke:#2ca02c;" x="327.494369" xlink:href="#m368651faaa" y="167.943405"/>
     <use style="fill:#2ca02c;stroke:#2ca02c;" x="334.174041" xlink:href="#m368651faaa" y="168.315523"/>
     <use style="fill:#2ca02c;stroke:#2ca02c;" x="340.853713" xlink:href="#m368651faaa" y="168.732615"/>
     <use style="fill:#2ca02c;stroke:#2ca02c;" x="347.535595" xlink:href="#m368651faaa" y="169.309857"/>
     <use style="fill:#2ca02c;stroke:#2ca02c;" x="354.215267" xlink:href="#m368651faaa" y="169.709394"/>
     <use style="fill:#2ca02c;stroke:#2ca02c;" x="360.89494" xlink:href="#m368651faaa" y="170.346844"/>
     <use style="fill:#2ca02c;stroke:#2ca02c;" x="367.574612" xlink:href="#m368651faaa" y="170.624801"/>
    </g>
   </g>
   <g id="PathCollection_4">
    <defs>
     <path d="M 0 3 
C 0.795609 3 1.55874 2.683901 2.12132 2.12132 
C 2.683901 1.55874 3 0.795609 3 0 
C 3 -0.795609 2.683901 -1.55874 2.12132 -2.12132 
C 1.55874 -2.683901 0.795609 -3 0 -3 
C -0.795609 -3 -1.55874 -2.683901 -2.12132 -2.12132 
C -2.683901 -1.55874 -3 -0.795609 -3 0 
C -3 0.795609 -2.683901 1.55874 -2.12132 2.12132 
C -1.55874 2.683901 -0.795609 3 0 3 
z
" id="m96f225a954" style="stroke:#d62728;"/>
    </defs>
    <g clip-path="url(#p40c461b829)">
     <use style="fill:#d62728;stroke:#d62728;" x="40.244156" xlink:href="#m96f225a954" y="56.06964"/>
     <use style="fill:#d62728;stroke:#d62728;" x="46.926037" xlink:href="#m96f225a954" y="92.778358"/>
     <use style="fill:#d62728;stroke:#d62728;" x="53.60571" xlink:href="#m96f225a954" y="105.522434"/>
     <use style="fill:#d62728;stroke:#d62728;" x="60.285382" xlink:href="#m96f225a954" y="112.871692"/>
     <use style="fill:#d62728;stroke:#d62728;" x="66.965055" xlink:href="#m96f225a954" y="117.684202"/>
     <use style="fill:#d62728;stroke:#d62728;" x="73.646936" xlink:href="#m96f225a954" y="122.19241"/>
     <use style="fill:#d62728;stroke:#d62728;" x="80.326608" xlink:href="#m96f225a954" y="125.515914"/>
     <use style="fill:#d62728;stroke:#d62728;" x="87.006281" xlink:href="#m96f225a954" y="129.01399"/>
     <use style="fill:#d62728;stroke:#d62728;" x="93.685953" xlink:href="#m96f225a954" y="131.761807"/>
     <use style="fill:#d62728;stroke:#d62728;" x="100.367835" xlink:href="#m96f225a954" y="134.161589"/>
     <use style="fill:#d62728;stroke:#d62728;" x="107.047507" xlink:href="#m96f225a954" y="136.35764"/>
     <use style="fill:#d62728;stroke:#d62728;" x="113.727179" xlink:href="#m96f225a954" y="138.207698"/>
     <use style="fill:#d62728;stroke:#d62728;" x="120.406852" xlink:href="#m96f225a954" y="140.127533"/>
     <use style="fill:#d62728;stroke:#d62728;" x="127.088733" xlink:href="#m96f225a954" y="142.109979"/>
     <use style="fill:#d62728;stroke:#d62728;" x="133.768406" xlink:href="#m96f225a954" y="143.373375"/>
     <use style="fill:#d62728;stroke:#d62728;" x="140.448078" xlink:href="#m96f225a954" y="145.086091"/>
     <use style="fill:#d62728;stroke:#d62728;" x="147.12775" xlink:href="#m96f225a954" y="146.518227"/>
     <use style="fill:#d62728;stroke:#d62728;" x="153.809632" xlink:href="#m96f225a954" y="147.447542"/>
     <use style="fill:#d62728;stroke:#d62728;" x="160.489304" xlink:href="#m96f225a954" y="148.488392"/>
     <use style="fill:#d62728;stroke:#d62728;" x="167.168977" xlink:href="#m96f225a954" y="149.648337"/>
     <use style="fill:#d62728;stroke:#d62728;" x="173.848649" xlink:href="#m96f225a954" y="150.622701"/>
     <use style="fill:#d62728;stroke:#d62728;" x="180.53053" xlink:href="#m96f225a954" y="151.593849"/>
     <use style="fill:#d62728;stroke:#d62728;" x="187.210203" xlink:href="#m96f225a954" y="152.670856"/>
     <use style="fill:#d62728;stroke:#d62728;" x="193.889875" xlink:href="#m96f225a954" y="153.663258"/>
     <use style="fill:#d62728;stroke:#d62728;" x="200.569548" xlink:href="#m96f225a954" y="154.300187"/>
     <use style="fill:#d62728;stroke:#d62728;" x="207.251429" xlink:href="#m96f225a954" y="154.965478"/>
     <use style="fill:#d62728;stroke:#d62728;" x="213.931102" xlink:href="#m96f225a954" y="155.684128"/>
     <use style="fill:#d62728;stroke:#d62728;" x="220.610774" xlink:href="#m96f225a954" y="156.223161"/>
     <use style="fill:#d62728;stroke:#d62728;" x="227.290446" xlink:href="#m96f225a954" y="157.041527"/>
     <use style="fill:#d62728;stroke:#d62728;" x="233.972328" xlink:href="#m96f225a954" y="157.683666"/>
     <use style="fill:#d62728;stroke:#d62728;" x="240.652" xlink:href="#m96f225a954" y="158.34238"/>
     <use style="fill:#d62728;stroke:#d62728;" x="247.331673" xlink:href="#m96f225a954" y="158.921509"/>
     <use style="fill:#d62728;stroke:#d62728;" x="254.011345" xlink:href="#m96f225a954" y="159.632686"/>
     <use style="fill:#d62728;stroke:#d62728;" x="260.691017" xlink:href="#m96f225a954" y="160.107366"/>
     <use style="fill:#d62728;stroke:#d62728;" x="267.372899" xlink:href="#m96f225a954" y="160.64144"/>
     <use style="fill:#d62728;stroke:#d62728;" x="274.052571" xlink:href="#m96f225a954" y="161.27096"/>
     <use style="fill:#d62728;stroke:#d62728;" x="280.732244" xlink:href="#m96f225a954" y="161.611879"/>
     <use style="fill:#d62728;stroke:#d62728;" x="287.411916" xlink:href="#m96f225a954" y="162.067702"/>
     <use style="fill:#d62728;stroke:#d62728;" x="294.093797" xlink:href="#m96f225a954" y="162.526691"/>
     <use style="fill:#d62728;stroke:#d62728;" x="300.77347" xlink:href="#m96f225a954" y="162.996725"/>
     <use style="fill:#d62728;stroke:#d62728;" x="307.453142" xlink:href="#m96f225a954" y="163.589263"/>
     <use style="fill:#d62728;stroke:#d62728;" x="314.132815" xlink:href="#m96f225a954" y="164.179347"/>
     <use style="fill:#d62728;stroke:#d62728;" x="320.814696" xlink:href="#m96f225a954" y="164.539357"/>
     <use style="fill:#d62728;stroke:#d62728;" x="327.494369" xlink:href="#m96f225a954" y="165.006426"/>
     <use style="fill:#d62728;stroke:#d62728;" x="334.174041" xlink:href="#m96f225a954" y="165.390561"/>
     <use style="fill:#d62728;stroke:#d62728;" x="340.853713" xlink:href="#m96f225a954" y="165.874667"/>
     <use style="fill:#d62728;stroke:#d62728;" x="347.535595" xlink:href="#m96f225a954" y="166.370012"/>
     <use style="fill:#d62728;stroke:#d62728;" x="354.215267" xlink:href="#m96f225a954" y="166.703529"/>
     <use style="fill:#d62728;stroke:#d62728;" x="360.89494" xlink:href="#m96f225a954" y="167.072407"/>
     <use style="fill:#d62728;stroke:#d62728;" x="367.574612" xlink:href="#m96f225a954" y="167.443074"/>
    </g>
   </g>
   <g id="PathCollection_5">
    <defs>
     <path d="M 0 3 
C 0.795609 3 1.55874 2.683901 2.12132 2.12132 
C 2.683901 1.55874 3 0.795609 3 0 
C 3 -0.795609 2.683901 -1.55874 2.12132 -2.12132 
C 1.55874 -2.683901 0.795609 -3 0 -3 
C -0.795609 -3 -1.55874 -2.683901 -2.12132 -2.12132 
C -2.683901 -1.55874 -3 -0.795609 -3 0 
C -3 0.795609 -2.683901 1.55874 -2.12132 2.12132 
C -1.55874 2.683901 -0.795609 3 0 3 
z
" id="me56d415766" style="stroke:#9467bd;"/>
    </defs>
    <g clip-path="url(#p40c461b829)">
     <use style="fill:#9467bd;stroke:#9467bd;" x="40.244156" xlink:href="#me56d415766" y="119.561867"/>
     <use style="fill:#9467bd;stroke:#9467bd;" x="46.926037" xlink:href="#me56d415766" y="158.010578"/>
     <use style="fill:#9467bd;stroke:#9467bd;" x="53.60571" xlink:href="#me56d415766" y="166.771287"/>
     <use style="fill:#9467bd;stroke:#9467bd;" x="60.285382" xlink:href="#me56d415766" y="171.54561"/>
     <use style="fill:#9467bd;stroke:#9467bd;" x="66.965055" xlink:href="#me56d415766" y="175.163718"/>
     <use style="fill:#9467bd;stroke:#9467bd;" x="73.646936" xlink:href="#me56d415766" y="178.134841"/>
     <use style="fill:#9467bd;stroke:#9467bd;" x="80.326608" xlink:href="#me56d415766" y="180.412094"/>
     <use style="fill:#9467bd;stroke:#9467bd;" x="87.006281" xlink:href="#me56d415766" y="182.534871"/>
     <use style="fill:#9467bd;stroke:#9467bd;" x="93.685953" xlink:href="#me56d415766" y="184.093675"/>
     <use style="fill:#9467bd;stroke:#9467bd;" x="100.367835" xlink:href="#me56d415766" y="185.449886"/>
     <use style="fill:#9467bd;stroke:#9467bd;" x="107.047507" xlink:href="#me56d415766" y="186.658349"/>
     <use style="fill:#9467bd;stroke:#9467bd;" x="113.727179" xlink:href="#me56d415766" y="187.78195"/>
     <use style="fill:#9467bd;stroke:#9467bd;" x="120.406852" xlink:href="#me56d415766" y="188.838348"/>
     <use style="fill:#9467bd;stroke:#9467bd;" x="127.088733" xlink:href="#me56d415766" y="189.882174"/>
     <use style="fill:#9467bd;stroke:#9467bd;" x="133.768406" xlink:href="#me56d415766" y="190.605536"/>
     <use style="fill:#9467bd;stroke:#9467bd;" x="140.448078" xlink:href="#me56d415766" y="191.324417"/>
     <use style="fill:#9467bd;stroke:#9467bd;" x="147.12775" xlink:href="#me56d415766" y="192.042144"/>
     <use style="fill:#9467bd;stroke:#9467bd;" x="153.809632" xlink:href="#me56d415766" y="192.60759"/>
     <use style="fill:#9467bd;stroke:#9467bd;" x="160.489304" xlink:href="#me56d415766" y="193.241375"/>
     <use style="fill:#9467bd;stroke:#9467bd;" x="167.168977" xlink:href="#me56d415766" y="193.816402"/>
     <use style="fill:#9467bd;stroke:#9467bd;" x="173.848649" xlink:href="#me56d415766" y="194.234638"/>
     <use style="fill:#9467bd;stroke:#9467bd;" x="180.53053" xlink:href="#me56d415766" y="194.647302"/>
     <use style="fill:#9467bd;stroke:#9467bd;" x="187.210203" xlink:href="#me56d415766" y="195.231524"/>
     <use style="fill:#9467bd;stroke:#9467bd;" x="193.889875" xlink:href="#me56d415766" y="195.793826"/>
     <use style="fill:#9467bd;stroke:#9467bd;" x="200.569548" xlink:href="#me56d415766" y="196.23134"/>
     <use style="fill:#9467bd;stroke:#9467bd;" x="207.251429" xlink:href="#me56d415766" y="196.670296"/>
     <use style="fill:#9467bd;stroke:#9467bd;" x="213.931102" xlink:href="#me56d415766" y="197.075067"/>
     <use style="fill:#9467bd;stroke:#9467bd;" x="220.610774" xlink:href="#me56d415766" y="197.523609"/>
     <use style="fill:#9467bd;stroke:#9467bd;" x="227.290446" xlink:href="#me56d415766" y="198.02962"/>
     <use style="fill:#9467bd;stroke:#9467bd;" x="233.972328" xlink:href="#me56d415766" y="198.341685"/>
     <use style="fill:#9467bd;stroke:#9467bd;" x="240.652" xlink:href="#me56d415766" y="198.611589"/>
     <use style="fill:#9467bd;stroke:#9467bd;" x="247.331673" xlink:href="#me56d415766" y="198.964852"/>
     <use style="fill:#9467bd;stroke:#9467bd;" x="254.011345" xlink:href="#me56d415766" y="199.338669"/>
     <use style="fill:#9467bd;stroke:#9467bd;" x="260.691017" xlink:href="#me56d415766" y="199.5832"/>
     <use style="fill:#9467bd;stroke:#9467bd;" x="267.372899" xlink:href="#me56d415766" y="199.879981"/>
     <use style="fill:#9467bd;stroke:#9467bd;" x="274.052571" xlink:href="#me56d415766" y="200.213299"/>
     <use style="fill:#9467bd;stroke:#9467bd;" x="280.732244" xlink:href="#me56d415766" y="200.378888"/>
     <use style="fill:#9467bd;stroke:#9467bd;" x="287.411916" xlink:href="#me56d415766" y="200.658027"/>
     <use style="fill:#9467bd;stroke:#9467bd;" x="294.093797" xlink:href="#me56d415766" y="200.960773"/>
     <use style="fill:#9467bd;stroke:#9467bd;" x="300.77347" xlink:href="#me56d415766" y="201.196671"/>
     <use style="fill:#9467bd;stroke:#9467bd;" x="307.453142" xlink:href="#me56d415766" y="201.410851"/>
     <use style="fill:#9467bd;stroke:#9467bd;" x="314.132815" xlink:href="#me56d415766" y="201.648637"/>
     <use style="fill:#9467bd;stroke:#9467bd;" x="320.814696" xlink:href="#me56d415766" y="201.872966"/>
     <use style="fill:#9467bd;stroke:#9467bd;" x="327.494369" xlink:href="#me56d415766" y="202.103513"/>
     <use style="fill:#9467bd;stroke:#9467bd;" x="334.174041" xlink:href="#me56d415766" y="202.342486"/>
     <use style="fill:#9467bd;stroke:#9467bd;" x="340.853713" xlink:href="#me56d415766" y="202.499743"/>
     <use style="fill:#9467bd;stroke:#9467bd;" x="347.535595" xlink:href="#me56d415766" y="202.679229"/>
     <use style="fill:#9467bd;stroke:#9467bd;" x="354.215267" xlink:href="#me56d415766" y="202.915679"/>
     <use style="fill:#9467bd;stroke:#9467bd;" x="360.89494" xlink:href="#me56d415766" y="203.186357"/>
     <use style="fill:#9467bd;stroke:#9467bd;" x="367.574612" xlink:href="#me56d415766" y="203.337044"/>
    </g>
   </g>
   <g id="PathCollection_6">
    <defs>
     <path d="M 0 3 
C 0.795609 3 1.55874 2.683901 2.12132 2.12132 
C 2.683901 1.55874 3 0.795609 3 0 
C 3 -0.795609 2.683901 -1.55874 2.12132 -2.12132 
C 1.55874 -2.683901 0.795609 -3 0 -3 
C -0.795609 -3 -1.55874 -2.683901 -2.12132 -2.12132 
C -2.683901 -1.55874 -3 -0.795609 -3 0 
C -3 0.795609 -2.683901 1.55874 -2.12132 2.12132 
C -1.55874 2.683901 -0.795609 3 0 3 
z
" id="m9b5687b4f1" style="stroke:#8c564b;"/>
    </defs>
    <g clip-path="url(#p40c461b829)">
     <use style="fill:#8c564b;stroke:#8c564b;" x="40.244156" xlink:href="#m9b5687b4f1" y="93.283882"/>
     <use style="fill:#8c564b;stroke:#8c564b;" x="46.926037" xlink:href="#m9b5687b4f1" y="137.522147"/>
     <use style="fill:#8c564b;stroke:#8c564b;" x="53.60571" xlink:href="#m9b5687b4f1" y="147.465392"/>
     <use style="fill:#8c564b;stroke:#8c564b;" x="60.285382" xlink:href="#m9b5687b4f1" y="152.702706"/>
     <use style="fill:#8c564b;stroke:#8c564b;" x="66.965055" xlink:href="#m9b5687b4f1" y="156.999277"/>
     <use style="fill:#8c564b;stroke:#8c564b;" x="73.646936" xlink:href="#m9b5687b4f1" y="160.243725"/>
     <use style="fill:#8c564b;stroke:#8c564b;" x="80.326608" xlink:href="#m9b5687b4f1" y="162.3756"/>
     <use style="fill:#8c564b;stroke:#8c564b;" x="87.006281" xlink:href="#m9b5687b4f1" y="164.214369"/>
     <use style="fill:#8c564b;stroke:#8c564b;" x="93.685953" xlink:href="#m9b5687b4f1" y="165.741786"/>
     <use style="fill:#8c564b;stroke:#8c564b;" x="100.367835" xlink:href="#m9b5687b4f1" y="167.051324"/>
     <use style="fill:#8c564b;stroke:#8c564b;" x="107.047507" xlink:href="#m9b5687b4f1" y="168.674263"/>
     <use style="fill:#8c564b;stroke:#8c564b;" x="113.727179" xlink:href="#m9b5687b4f1" y="169.79728"/>
     <use style="fill:#8c564b;stroke:#8c564b;" x="120.406852" xlink:href="#m9b5687b4f1" y="170.889998"/>
     <use style="fill:#8c564b;stroke:#8c564b;" x="127.088733" xlink:href="#m9b5687b4f1" y="171.811275"/>
     <use style="fill:#8c564b;stroke:#8c564b;" x="133.768406" xlink:href="#m9b5687b4f1" y="172.494335"/>
     <use style="fill:#8c564b;stroke:#8c564b;" x="140.448078" xlink:href="#m9b5687b4f1" y="173.524666"/>
     <use style="fill:#8c564b;stroke:#8c564b;" x="147.12775" xlink:href="#m9b5687b4f1" y="174.383644"/>
     <use style="fill:#8c564b;stroke:#8c564b;" x="153.809632" xlink:href="#m9b5687b4f1" y="174.764711"/>
     <use style="fill:#8c564b;stroke:#8c564b;" x="160.489304" xlink:href="#m9b5687b4f1" y="175.446428"/>
     <use style="fill:#8c564b;stroke:#8c564b;" x="167.168977" xlink:href="#m9b5687b4f1" y="175.936862"/>
     <use style="fill:#8c564b;stroke:#8c564b;" x="173.848649" xlink:href="#m9b5687b4f1" y="176.398819"/>
     <use style="fill:#8c564b;stroke:#8c564b;" x="180.53053" xlink:href="#m9b5687b4f1" y="176.847012"/>
     <use style="fill:#8c564b;stroke:#8c564b;" x="187.210203" xlink:href="#m9b5687b4f1" y="177.314907"/>
     <use style="fill:#8c564b;stroke:#8c564b;" x="193.889875" xlink:href="#m9b5687b4f1" y="177.888149"/>
     <use style="fill:#8c564b;stroke:#8c564b;" x="200.569548" xlink:href="#m9b5687b4f1" y="178.260114"/>
     <use style="fill:#8c564b;stroke:#8c564b;" x="207.251429" xlink:href="#m9b5687b4f1" y="178.690671"/>
     <use style="fill:#8c564b;stroke:#8c564b;" x="213.931102" xlink:href="#m9b5687b4f1" y="179.102241"/>
     <use style="fill:#8c564b;stroke:#8c564b;" x="220.610774" xlink:href="#m9b5687b4f1" y="179.593286"/>
     <use style="fill:#8c564b;stroke:#8c564b;" x="227.290446" xlink:href="#m9b5687b4f1" y="179.978121"/>
     <use style="fill:#8c564b;stroke:#8c564b;" x="233.972328" xlink:href="#m9b5687b4f1" y="180.395901"/>
     <use style="fill:#8c564b;stroke:#8c564b;" x="240.652" xlink:href="#m9b5687b4f1" y="180.701825"/>
     <use style="fill:#8c564b;stroke:#8c564b;" x="247.331673" xlink:href="#m9b5687b4f1" y="180.862644"/>
     <use style="fill:#8c564b;stroke:#8c564b;" x="254.011345" xlink:href="#m9b5687b4f1" y="181.183398"/>
     <use style="fill:#8c564b;stroke:#8c564b;" x="260.691017" xlink:href="#m9b5687b4f1" y="181.403269"/>
     <use style="fill:#8c564b;stroke:#8c564b;" x="267.372899" xlink:href="#m9b5687b4f1" y="181.666947"/>
     <use style="fill:#8c564b;stroke:#8c564b;" x="274.052571" xlink:href="#m9b5687b4f1" y="182.047646"/>
     <use style="fill:#8c564b;stroke:#8c564b;" x="280.732244" xlink:href="#m9b5687b4f1" y="182.215754"/>
     <use style="fill:#8c564b;stroke:#8c564b;" x="287.411916" xlink:href="#m9b5687b4f1" y="182.510748"/>
     <use style="fill:#8c564b;stroke:#8c564b;" x="294.093797" xlink:href="#m9b5687b4f1" y="182.725535"/>
     <use style="fill:#8c564b;stroke:#8c564b;" x="300.77347" xlink:href="#m9b5687b4f1" y="182.939908"/>
     <use style="fill:#8c564b;stroke:#8c564b;" x="307.453142" xlink:href="#m9b5687b4f1" y="183.377732"/>
     <use style="fill:#8c564b;stroke:#8c564b;" x="314.132815" xlink:href="#m9b5687b4f1" y="183.472334"/>
     <use style="fill:#8c564b;stroke:#8c564b;" x="320.814696" xlink:href="#m9b5687b4f1" y="183.666752"/>
     <use style="fill:#8c564b;stroke:#8c564b;" x="327.494369" xlink:href="#m9b5687b4f1" y="183.965031"/>
     <use style="fill:#8c564b;stroke:#8c564b;" x="334.174041" xlink:href="#m9b5687b4f1" y="184.163311"/>
     <use style="fill:#8c564b;stroke:#8c564b;" x="340.853713" xlink:href="#m9b5687b4f1" y="184.331988"/>
     <use style="fill:#8c564b;stroke:#8c564b;" x="347.535595" xlink:href="#m9b5687b4f1" y="184.541848"/>
     <use style="fill:#8c564b;stroke:#8c564b;" x="354.215267" xlink:href="#m9b5687b4f1" y="184.732964"/>
     <use style="fill:#8c564b;stroke:#8c564b;" x="360.89494" xlink:href="#m9b5687b4f1" y="184.898113"/>
     <use style="fill:#8c564b;stroke:#8c564b;" x="367.574612" xlink:href="#m9b5687b4f1" y="185.303954"/>
    </g>
   </g>
   <g id="PathCollection_7">
    <defs>
     <path d="M 0 3 
C 0.795609 3 1.55874 2.683901 2.12132 2.12132 
C 2.683901 1.55874 3 0.795609 3 0 
C 3 -0.795609 2.683901 -1.55874 2.12132 -2.12132 
C 1.55874 -2.683901 0.795609 -3 0 -3 
C -0.795609 -3 -1.55874 -2.683901 -2.12132 -2.12132 
C -2.683901 -1.55874 -3 -0.795609 -3 0 
C -3 0.795609 -2.683901 1.55874 -2.12132 2.12132 
C -1.55874 2.683901 -0.795609 3 0 3 
z
" id="mfcd3dd1c13" style="stroke:#e377c2;"/>
    </defs>
    <g clip-path="url(#p40c461b829)">
     <use style="fill:#e377c2;stroke:#e377c2;" x="40.244156" xlink:href="#mfcd3dd1c13" y="40.371118"/>
     <use style="fill:#e377c2;stroke:#e377c2;" x="46.926037" xlink:href="#mfcd3dd1c13" y="73.9761"/>
     <use style="fill:#e377c2;stroke:#e377c2;" x="53.60571" xlink:href="#mfcd3dd1c13" y="85.069309"/>
     <use style="fill:#e377c2;stroke:#e377c2;" x="60.285382" xlink:href="#mfcd3dd1c13" y="91.755474"/>
     <use style="fill:#e377c2;stroke:#e377c2;" x="66.965055" xlink:href="#mfcd3dd1c13" y="96.982374"/>
     <use style="fill:#e377c2;stroke:#e377c2;" x="73.646936" xlink:href="#mfcd3dd1c13" y="100.925657"/>
     <use style="fill:#e377c2;stroke:#e377c2;" x="80.326608" xlink:href="#mfcd3dd1c13" y="104.609895"/>
     <use style="fill:#e377c2;stroke:#e377c2;" x="87.006281" xlink:href="#mfcd3dd1c13" y="108.164476"/>
     <use style="fill:#e377c2;stroke:#e377c2;" x="93.685953" xlink:href="#mfcd3dd1c13" y="110.41205"/>
     <use style="fill:#e377c2;stroke:#e377c2;" x="100.367835" xlink:href="#mfcd3dd1c13" y="112.781214"/>
     <use style="fill:#e377c2;stroke:#e377c2;" x="107.047507" xlink:href="#mfcd3dd1c13" y="115.061455"/>
     <use style="fill:#e377c2;stroke:#e377c2;" x="113.727179" xlink:href="#mfcd3dd1c13" y="116.599654"/>
     <use style="fill:#e377c2;stroke:#e377c2;" x="120.406852" xlink:href="#mfcd3dd1c13" y="118.190127"/>
     <use style="fill:#e377c2;stroke:#e377c2;" x="127.088733" xlink:href="#mfcd3dd1c13" y="120.063258"/>
     <use style="fill:#e377c2;stroke:#e377c2;" x="133.768406" xlink:href="#mfcd3dd1c13" y="121.178147"/>
     <use style="fill:#e377c2;stroke:#e377c2;" x="140.448078" xlink:href="#mfcd3dd1c13" y="122.503043"/>
     <use style="fill:#e377c2;stroke:#e377c2;" x="147.12775" xlink:href="#mfcd3dd1c13" y="123.594981"/>
     <use style="fill:#e377c2;stroke:#e377c2;" x="153.809632" xlink:href="#mfcd3dd1c13" y="124.112422"/>
     <use style="fill:#e377c2;stroke:#e377c2;" x="160.489304" xlink:href="#mfcd3dd1c13" y="124.949602"/>
     <use style="fill:#e377c2;stroke:#e377c2;" x="167.168977" xlink:href="#mfcd3dd1c13" y="126.077366"/>
     <use style="fill:#e377c2;stroke:#e377c2;" x="173.848649" xlink:href="#mfcd3dd1c13" y="126.601838"/>
     <use style="fill:#e377c2;stroke:#e377c2;" x="180.53053" xlink:href="#mfcd3dd1c13" y="127.314992"/>
     <use style="fill:#e377c2;stroke:#e377c2;" x="187.210203" xlink:href="#mfcd3dd1c13" y="128.323521"/>
     <use style="fill:#e377c2;stroke:#e377c2;" x="193.889875" xlink:href="#mfcd3dd1c13" y="129.11879"/>
     <use style="fill:#e377c2;stroke:#e377c2;" x="200.569548" xlink:href="#mfcd3dd1c13" y="129.685305"/>
     <use style="fill:#e377c2;stroke:#e377c2;" x="207.251429" xlink:href="#mfcd3dd1c13" y="130.473439"/>
     <use style="fill:#e377c2;stroke:#e377c2;" x="213.931102" xlink:href="#mfcd3dd1c13" y="131.114132"/>
     <use style="fill:#e377c2;stroke:#e377c2;" x="220.610774" xlink:href="#mfcd3dd1c13" y="131.580626"/>
     <use style="fill:#e377c2;stroke:#e377c2;" x="227.290446" xlink:href="#mfcd3dd1c13" y="132.353806"/>
     <use style="fill:#e377c2;stroke:#e377c2;" x="233.972328" xlink:href="#mfcd3dd1c13" y="132.990961"/>
     <use style="fill:#e377c2;stroke:#e377c2;" x="240.652" xlink:href="#mfcd3dd1c13" y="133.452839"/>
     <use style="fill:#e377c2;stroke:#e377c2;" x="247.331673" xlink:href="#mfcd3dd1c13" y="134.03173"/>
     <use style="fill:#e377c2;stroke:#e377c2;" x="254.011345" xlink:href="#mfcd3dd1c13" y="134.923041"/>
     <use style="fill:#e377c2;stroke:#e377c2;" x="260.691017" xlink:href="#mfcd3dd1c13" y="135.284852"/>
     <use style="fill:#e377c2;stroke:#e377c2;" x="267.372899" xlink:href="#mfcd3dd1c13" y="135.712995"/>
     <use style="fill:#e377c2;stroke:#e377c2;" x="274.052571" xlink:href="#mfcd3dd1c13" y="136.245643"/>
     <use style="fill:#e377c2;stroke:#e377c2;" x="280.732244" xlink:href="#mfcd3dd1c13" y="136.646274"/>
     <use style="fill:#e377c2;stroke:#e377c2;" x="287.411916" xlink:href="#mfcd3dd1c13" y="137.236852"/>
     <use style="fill:#e377c2;stroke:#e377c2;" x="294.093797" xlink:href="#mfcd3dd1c13" y="137.707672"/>
     <use style="fill:#e377c2;stroke:#e377c2;" x="300.77347" xlink:href="#mfcd3dd1c13" y="138.00929"/>
     <use style="fill:#e377c2;stroke:#e377c2;" x="307.453142" xlink:href="#mfcd3dd1c13" y="138.634873"/>
     <use style="fill:#e377c2;stroke:#e377c2;" x="314.132815" xlink:href="#mfcd3dd1c13" y="139.22902"/>
     <use style="fill:#e377c2;stroke:#e377c2;" x="320.814696" xlink:href="#mfcd3dd1c13" y="139.637954"/>
     <use style="fill:#e377c2;stroke:#e377c2;" x="327.494369" xlink:href="#mfcd3dd1c13" y="140.050148"/>
     <use style="fill:#e377c2;stroke:#e377c2;" x="334.174041" xlink:href="#mfcd3dd1c13" y="140.365646"/>
     <use style="fill:#e377c2;stroke:#e377c2;" x="340.853713" xlink:href="#mfcd3dd1c13" y="140.671232"/>
     <use style="fill:#e377c2;stroke:#e377c2;" x="347.535595" xlink:href="#mfcd3dd1c13" y="140.90975"/>
     <use style="fill:#e377c2;stroke:#e377c2;" x="354.215267" xlink:href="#mfcd3dd1c13" y="141.193225"/>
     <use style="fill:#e377c2;stroke:#e377c2;" x="360.89494" xlink:href="#mfcd3dd1c13" y="141.589719"/>
     <use style="fill:#e377c2;stroke:#e377c2;" x="367.574612" xlink:href="#mfcd3dd1c13" y="142.124335"/>
    </g>
   </g>
   <g id="matplotlib.axis_1">
    <g id="xtick_1">
     <g id="line2d_1">
      <defs>
       <path d="M 0 0 
L 0 3.5 
" id="m6e5edb1196" style="stroke:#000000;stroke-width:0.8;"/>
      </defs>
      <g>
       <use style="stroke:#000000;stroke-width:0.8;" x="39.58149" xlink:href="#m6e5edb1196" y="224.40351"/>
      </g>
     </g>
     <g id="text_1">
      <!-- 0 -->
      <g transform="translate(36.40024 239.001948)scale(0.1 -0.1)">
       <defs>
        <path d="M 31.78125 66.40625 
Q 24.171875 66.40625 20.328125 58.90625 
Q 16.5 51.421875 16.5 36.375 
Q 16.5 21.390625 20.328125 13.890625 
Q 24.171875 6.390625 31.78125 6.390625 
Q 39.453125 6.390625 43.28125 13.890625 
Q 47.125 21.390625 47.125 36.375 
Q 47.125 51.421875 43.28125 58.90625 
Q 39.453125 66.40625 31.78125 66.40625 
z
M 31.78125 74.21875 
Q 44.046875 74.21875 50.515625 64.515625 
Q 56.984375 54.828125 56.984375 36.375 
Q 56.984375 17.96875 50.515625 8.265625 
Q 44.046875 -1.421875 31.78125 -1.421875 
Q 19.53125 -1.421875 13.0625 8.265625 
Q 6.59375 17.96875 6.59375 36.375 
Q 6.59375 54.828125 13.0625 64.515625 
Q 19.53125 74.21875 31.78125 74.21875 
z
" id="DejaVuSans-48"/>
       </defs>
       <use xlink:href="#DejaVuSans-48"/>
      </g>
     </g>
    </g>
    <g id="xtick_2">
     <g id="line2d_2">
      <g>
       <use style="stroke:#000000;stroke-width:0.8;" x="105.848082" xlink:href="#m6e5edb1196" y="224.40351"/>
      </g>
     </g>
     <g id="text_2">
      <!-- 1000 -->
      <g transform="translate(93.123082 239.001948)scale(0.1 -0.1)">
       <defs>
        <path d="M 12.40625 8.296875 
L 28.515625 8.296875 
L 28.515625 63.921875 
L 10.984375 60.40625 
L 10.984375 69.390625 
L 28.421875 72.90625 
L 38.28125 72.90625 
L 38.28125 8.296875 
L 54.390625 8.296875 
L 54.390625 0 
L 12.40625 0 
z
" id="DejaVuSans-49"/>
       </defs>
       <use xlink:href="#DejaVuSans-49"/>
       <use x="63.623047" xlink:href="#DejaVuSans-48"/>
       <use x="127.246094" xlink:href="#DejaVuSans-48"/>
       <use x="190.869141" xlink:href="#DejaVuSans-48"/>
      </g>
     </g>
    </g>
    <g id="xtick_3">
     <g id="line2d_3">
      <g>
       <use style="stroke:#000000;stroke-width:0.8;" x="172.114673" xlink:href="#m6e5edb1196" y="224.40351"/>
      </g>
     </g>
     <g id="text_3">
      <!-- 2000 -->
      <g transform="translate(159.389673 239.001948)scale(0.1 -0.1)">
       <defs>
        <path d="M 19.1875 8.296875 
L 53.609375 8.296875 
L 53.609375 0 
L 7.328125 0 
L 7.328125 8.296875 
Q 12.9375 14.109375 22.625 23.890625 
Q 32.328125 33.6875 34.8125 36.53125 
Q 39.546875 41.84375 41.421875 45.53125 
Q 43.3125 49.21875 43.3125 52.78125 
Q 43.3125 58.59375 39.234375 62.25 
Q 35.15625 65.921875 28.609375 65.921875 
Q 23.96875 65.921875 18.8125 64.3125 
Q 13.671875 62.703125 7.8125 59.421875 
L 7.8125 69.390625 
Q 13.765625 71.78125 18.9375 73 
Q 24.125 74.21875 28.421875 74.21875 
Q 39.75 74.21875 46.484375 68.546875 
Q 53.21875 62.890625 53.21875 53.421875 
Q 53.21875 48.921875 51.53125 44.890625 
Q 49.859375 40.875 45.40625 35.40625 
Q 44.1875 33.984375 37.640625 27.21875 
Q 31.109375 20.453125 19.1875 8.296875 
z
" id="DejaVuSans-50"/>
       </defs>
       <use xlink:href="#DejaVuSans-50"/>
       <use x="63.623047" xlink:href="#DejaVuSans-48"/>
       <use x="127.246094" xlink:href="#DejaVuSans-48"/>
       <use x="190.869141" xlink:href="#DejaVuSans-48"/>
      </g>
     </g>
    </g>
    <g id="xtick_4">
     <g id="line2d_4">
      <g>
       <use style="stroke:#000000;stroke-width:0.8;" x="238.381265" xlink:href="#m6e5edb1196" y="224.40351"/>
      </g>
     </g>
     <g id="text_4">
      <!-- 3000 -->
      <g transform="translate(225.656265 239.001948)scale(0.1 -0.1)">
       <defs>
        <path d="M 40.578125 39.3125 
Q 47.65625 37.796875 51.625 33 
Q 55.609375 28.21875 55.609375 21.1875 
Q 55.609375 10.40625 48.1875 4.484375 
Q 40.765625 -1.421875 27.09375 -1.421875 
Q 22.515625 -1.421875 17.65625 -0.515625 
Q 12.796875 0.390625 7.625 2.203125 
L 7.625 11.71875 
Q 11.71875 9.328125 16.59375 8.109375 
Q 21.484375 6.890625 26.8125 6.890625 
Q 36.078125 6.890625 40.9375 10.546875 
Q 45.796875 14.203125 45.796875 21.1875 
Q 45.796875 27.640625 41.28125 31.265625 
Q 36.765625 34.90625 28.71875 34.90625 
L 20.21875 34.90625 
L 20.21875 43.015625 
L 29.109375 43.015625 
Q 36.375 43.015625 40.234375 45.921875 
Q 44.09375 48.828125 44.09375 54.296875 
Q 44.09375 59.90625 40.109375 62.90625 
Q 36.140625 65.921875 28.71875 65.921875 
Q 24.65625 65.921875 20.015625 65.03125 
Q 15.375 64.15625 9.8125 62.3125 
L 9.8125 71.09375 
Q 15.4375 72.65625 20.34375 73.4375 
Q 25.25 74.21875 29.59375 74.21875 
Q 40.828125 74.21875 47.359375 69.109375 
Q 53.90625 64.015625 53.90625 55.328125 
Q 53.90625 49.265625 50.4375 45.09375 
Q 46.96875 40.921875 40.578125 39.3125 
z
" id="DejaVuSans-51"/>
       </defs>
       <use xlink:href="#DejaVuSans-51"/>
       <use x="63.623047" xlink:href="#DejaVuSans-48"/>
       <use x="127.246094" xlink:href="#DejaVuSans-48"/>
       <use x="190.869141" xlink:href="#DejaVuSans-48"/>
      </g>
     </g>
    </g>
    <g id="xtick_5">
     <g id="line2d_5">
      <g>
       <use style="stroke:#000000;stroke-width:0.8;" x="304.647857" xlink:href="#m6e5edb1196" y="224.40351"/>
      </g>
     </g>
     <g id="text_5">
      <!-- 4000 -->
      <g transform="translate(291.922857 239.001948)scale(0.1 -0.1)">
       <defs>
        <path d="M 37.796875 64.3125 
L 12.890625 25.390625 
L 37.796875 25.390625 
z
M 35.203125 72.90625 
L 47.609375 72.90625 
L 47.609375 25.390625 
L 58.015625 25.390625 
L 58.015625 17.1875 
L 47.609375 17.1875 
L 47.609375 0 
L 37.796875 0 
L 37.796875 17.1875 
L 4.890625 17.1875 
L 4.890625 26.703125 
z
" id="DejaVuSans-52"/>
       </defs>
       <use xlink:href="#DejaVuSans-52"/>
       <use x="63.623047" xlink:href="#DejaVuSans-48"/>
       <use x="127.246094" xlink:href="#DejaVuSans-48"/>
       <use x="190.869141" xlink:href="#DejaVuSans-48"/>
      </g>
     </g>
    </g>
    <g id="xtick_6">
     <g id="line2d_6">
      <g>
       <use style="stroke:#000000;stroke-width:0.8;" x="370.914448" xlink:href="#m6e5edb1196" y="224.40351"/>
      </g>
     </g>
     <g id="text_6">
      <!-- 5000 -->
      <g transform="translate(358.189448 239.001948)scale(0.1 -0.1)">
       <defs>
        <path d="M 10.796875 72.90625 
L 49.515625 72.90625 
L 49.515625 64.59375 
L 19.828125 64.59375 
L 19.828125 46.734375 
Q 21.96875 47.46875 24.109375 47.828125 
Q 26.265625 48.1875 28.421875 48.1875 
Q 40.625 48.1875 47.75 41.5 
Q 54.890625 34.8125 54.890625 23.390625 
Q 54.890625 11.625 47.5625 5.09375 
Q 40.234375 -1.421875 26.90625 -1.421875 
Q 22.3125 -1.421875 17.546875 -0.640625 
Q 12.796875 0.140625 7.71875 1.703125 
L 7.71875 11.625 
Q 12.109375 9.234375 16.796875 8.0625 
Q 21.484375 6.890625 26.703125 6.890625 
Q 35.15625 6.890625 40.078125 11.328125 
Q 45.015625 15.765625 45.015625 23.390625 
Q 45.015625 31 40.078125 35.4375 
Q 35.15625 39.890625 26.703125 39.890625 
Q 22.75 39.890625 18.8125 39.015625 
Q 14.890625 38.140625 10.796875 36.28125 
z
" id="DejaVuSans-53"/>
       </defs>
       <use xlink:href="#DejaVuSans-53"/>
       <use x="63.623047" xlink:href="#DejaVuSans-48"/>
       <use x="127.246094" xlink:href="#DejaVuSans-48"/>
       <use x="190.869141" xlink:href="#DejaVuSans-48"/>
      </g>
     </g>
    </g>
    <g id="text_7">
     <!-- time (msec) -->
     <g transform="translate(176.817134 252.680073)scale(0.1 -0.1)">
      <defs>
       <path d="M 18.3125 70.21875 
L 18.3125 54.6875 
L 36.8125 54.6875 
L 36.8125 47.703125 
L 18.3125 47.703125 
L 18.3125 18.015625 
Q 18.3125 11.328125 20.140625 9.421875 
Q 21.96875 7.515625 27.59375 7.515625 
L 36.8125 7.515625 
L 36.8125 0 
L 27.59375 0 
Q 17.1875 0 13.234375 3.875 
Q 9.28125 7.765625 9.28125 18.015625 
L 9.28125 47.703125 
L 2.6875 47.703125 
L 2.6875 54.6875 
L 9.28125 54.6875 
L 9.28125 70.21875 
z
" id="DejaVuSans-116"/>
       <path d="M 9.421875 54.6875 
L 18.40625 54.6875 
L 18.40625 0 
L 9.421875 0 
z
M 9.421875 75.984375 
L 18.40625 75.984375 
L 18.40625 64.59375 
L 9.421875 64.59375 
z
" id="DejaVuSans-105"/>
       <path d="M 52 44.1875 
Q 55.375 50.25 60.0625 53.125 
Q 64.75 56 71.09375 56 
Q 79.640625 56 84.28125 50.015625 
Q 88.921875 44.046875 88.921875 33.015625 
L 88.921875 0 
L 79.890625 0 
L 79.890625 32.71875 
Q 79.890625 40.578125 77.09375 44.375 
Q 74.3125 48.1875 68.609375 48.1875 
Q 61.625 48.1875 57.5625 43.546875 
Q 53.515625 38.921875 53.515625 30.90625 
L 53.515625 0 
L 44.484375 0 
L 44.484375 32.71875 
Q 44.484375 40.625 41.703125 44.40625 
Q 38.921875 48.1875 33.109375 48.1875 
Q 26.21875 48.1875 22.15625 43.53125 
Q 18.109375 38.875 18.109375 30.90625 
L 18.109375 0 
L 9.078125 0 
L 9.078125 54.6875 
L 18.109375 54.6875 
L 18.109375 46.1875 
Q 21.1875 51.21875 25.484375 53.609375 
Q 29.78125 56 35.6875 56 
Q 41.65625 56 45.828125 52.96875 
Q 50 49.953125 52 44.1875 
z
" id="DejaVuSans-109"/>
       <path d="M 56.203125 29.59375 
L 56.203125 25.203125 
L 14.890625 25.203125 
Q 15.484375 15.921875 20.484375 11.0625 
Q 25.484375 6.203125 34.421875 6.203125 
Q 39.59375 6.203125 44.453125 7.46875 
Q 49.3125 8.734375 54.109375 11.28125 
L 54.109375 2.78125 
Q 49.265625 0.734375 44.1875 -0.34375 
Q 39.109375 -1.421875 33.890625 -1.421875 
Q 20.796875 -1.421875 13.15625 6.1875 
Q 5.515625 13.8125 5.515625 26.8125 
Q 5.515625 40.234375 12.765625 48.109375 
Q 20.015625 56 32.328125 56 
Q 43.359375 56 49.78125 48.890625 
Q 56.203125 41.796875 56.203125 29.59375 
z
M 47.21875 32.234375 
Q 47.125 39.59375 43.09375 43.984375 
Q 39.0625 48.390625 32.421875 48.390625 
Q 24.90625 48.390625 20.390625 44.140625 
Q 15.875 39.890625 15.1875 32.171875 
z
" id="DejaVuSans-101"/>
       <path id="DejaVuSans-32"/>
       <path d="M 31 75.875 
Q 24.46875 64.65625 21.28125 53.65625 
Q 18.109375 42.671875 18.109375 31.390625 
Q 18.109375 20.125 21.3125 9.0625 
Q 24.515625 -2 31 -13.1875 
L 23.1875 -13.1875 
Q 15.875 -1.703125 12.234375 9.375 
Q 8.59375 20.453125 8.59375 31.390625 
Q 8.59375 42.28125 12.203125 53.3125 
Q 15.828125 64.359375 23.1875 75.875 
z
" id="DejaVuSans-40"/>
       <path d="M 44.28125 53.078125 
L 44.28125 44.578125 
Q 40.484375 46.53125 36.375 47.5 
Q 32.28125 48.484375 27.875 48.484375 
Q 21.1875 48.484375 17.84375 46.4375 
Q 14.5 44.390625 14.5 40.28125 
Q 14.5 37.15625 16.890625 35.375 
Q 19.28125 33.59375 26.515625 31.984375 
L 29.59375 31.296875 
Q 39.15625 29.25 43.1875 25.515625 
Q 47.21875 21.78125 47.21875 15.09375 
Q 47.21875 7.46875 41.1875 3.015625 
Q 35.15625 -1.421875 24.609375 -1.421875 
Q 20.21875 -1.421875 15.453125 -0.5625 
Q 10.6875 0.296875 5.421875 2 
L 5.421875 11.28125 
Q 10.40625 8.6875 15.234375 7.390625 
Q 20.0625 6.109375 24.8125 6.109375 
Q 31.15625 6.109375 34.5625 8.28125 
Q 37.984375 10.453125 37.984375 14.40625 
Q 37.984375 18.0625 35.515625 20.015625 
Q 33.0625 21.96875 24.703125 23.78125 
L 21.578125 24.515625 
Q 13.234375 26.265625 9.515625 29.90625 
Q 5.8125 33.546875 5.8125 39.890625 
Q 5.8125 47.609375 11.28125 51.796875 
Q 16.75 56 26.8125 56 
Q 31.78125 56 36.171875 55.265625 
Q 40.578125 54.546875 44.28125 53.078125 
z
" id="DejaVuSans-115"/>
       <path d="M 48.78125 52.59375 
L 48.78125 44.1875 
Q 44.96875 46.296875 41.140625 47.34375 
Q 37.3125 48.390625 33.40625 48.390625 
Q 24.65625 48.390625 19.8125 42.84375 
Q 14.984375 37.3125 14.984375 27.296875 
Q 14.984375 17.28125 19.8125 11.734375 
Q 24.65625 6.203125 33.40625 6.203125 
Q 37.3125 6.203125 41.140625 7.25 
Q 44.96875 8.296875 48.78125 10.40625 
L 48.78125 2.09375 
Q 45.015625 0.34375 40.984375 -0.53125 
Q 36.96875 -1.421875 32.421875 -1.421875 
Q 20.0625 -1.421875 12.78125 6.34375 
Q 5.515625 14.109375 5.515625 27.296875 
Q 5.515625 40.671875 12.859375 48.328125 
Q 20.21875 56 33.015625 56 
Q 37.15625 56 41.109375 55.140625 
Q 45.0625 54.296875 48.78125 52.59375 
z
" id="DejaVuSans-99"/>
       <path d="M 8.015625 75.875 
L 15.828125 75.875 
Q 23.140625 64.359375 26.78125 53.3125 
Q 30.421875 42.28125 30.421875 31.390625 
Q 30.421875 20.453125 26.78125 9.375 
Q 23.140625 -1.703125 15.828125 -13.1875 
L 8.015625 -13.1875 
Q 14.5 -2 17.703125 9.0625 
Q 20.90625 20.125 20.90625 31.390625 
Q 20.90625 42.671875 17.703125 53.65625 
Q 14.5 64.65625 8.015625 75.875 
z
" id="DejaVuSans-41"/>
      </defs>
      <use xlink:href="#DejaVuSans-116"/>
      <use x="39.208984" xlink:href="#DejaVuSans-105"/>
      <use x="66.992188" xlink:href="#DejaVuSans-109"/>
      <use x="164.404297" xlink:href="#DejaVuSans-101"/>
      <use x="225.927734" xlink:href="#DejaVuSans-32"/>
      <use x="257.714844" xlink:href="#DejaVuSans-40"/>
      <use x="296.728516" xlink:href="#DejaVuSans-109"/>
      <use x="394.140625" xlink:href="#DejaVuSans-115"/>
      <use x="446.240234" xlink:href="#DejaVuSans-101"/>
      <use x="507.763672" xlink:href="#DejaVuSans-99"/>
      <use x="562.744141" xlink:href="#DejaVuSans-41"/>
     </g>
    </g>
   </g>
   <g id="matplotlib.axis_2">
    <g id="ytick_1">
     <g id="line2d_7">
      <defs>
       <path d="M 0 0 
L -3.5 0 
" id="m711e4a7aae" style="stroke:#000000;stroke-width:0.8;"/>
      </defs>
      <g>
       <use style="stroke:#000000;stroke-width:0.8;" x="39.58149" xlink:href="#m711e4a7aae" y="224.40351"/>
      </g>
     </g>
     <g id="text_8">
      <!-- 0.0 -->
      <g transform="translate(16.678365 228.202729)scale(0.1 -0.1)">
       <defs>
        <path d="M 10.6875 12.40625 
L 21 12.40625 
L 21 0 
L 10.6875 0 
z
" id="DejaVuSans-46"/>
       </defs>
       <use xlink:href="#DejaVuSans-48"/>
       <use x="63.623047" xlink:href="#DejaVuSans-46"/>
       <use x="95.410156" xlink:href="#DejaVuSans-48"/>
      </g>
     </g>
    </g>
    <g id="ytick_2">
     <g id="line2d_8">
      <g>
       <use style="stroke:#000000;stroke-width:0.8;" x="39.58149" xlink:href="#m711e4a7aae" y="180.8827"/>
      </g>
     </g>
     <g id="text_9">
      <!-- 0.2 -->
      <g transform="translate(16.678365 184.681919)scale(0.1 -0.1)">
       <use xlink:href="#DejaVuSans-48"/>
       <use x="63.623047" xlink:href="#DejaVuSans-46"/>
       <use x="95.410156" xlink:href="#DejaVuSans-50"/>
      </g>
     </g>
    </g>
    <g id="ytick_3">
     <g id="line2d_9">
      <g>
       <use style="stroke:#000000;stroke-width:0.8;" x="39.58149" xlink:href="#m711e4a7aae" y="137.36189"/>
      </g>
     </g>
     <g id="text_10">
      <!-- 0.4 -->
      <g transform="translate(16.678365 141.161108)scale(0.1 -0.1)">
       <use xlink:href="#DejaVuSans-48"/>
       <use x="63.623047" xlink:href="#DejaVuSans-46"/>
       <use x="95.410156" xlink:href="#DejaVuSans-52"/>
      </g>
     </g>
    </g>
    <g id="ytick_4">
     <g id="line2d_10">
      <g>
       <use style="stroke:#000000;stroke-width:0.8;" x="39.58149" xlink:href="#m711e4a7aae" y="93.841079"/>
      </g>
     </g>
     <g id="text_11">
      <!-- 0.6 -->
      <g transform="translate(16.678365 97.640298)scale(0.1 -0.1)">
       <defs>
        <path d="M 33.015625 40.375 
Q 26.375 40.375 22.484375 35.828125 
Q 18.609375 31.296875 18.609375 23.390625 
Q 18.609375 15.53125 22.484375 10.953125 
Q 26.375 6.390625 33.015625 6.390625 
Q 39.65625 6.390625 43.53125 10.953125 
Q 47.40625 15.53125 47.40625 23.390625 
Q 47.40625 31.296875 43.53125 35.828125 
Q 39.65625 40.375 33.015625 40.375 
z
M 52.59375 71.296875 
L 52.59375 62.3125 
Q 48.875 64.0625 45.09375 64.984375 
Q 41.3125 65.921875 37.59375 65.921875 
Q 27.828125 65.921875 22.671875 59.328125 
Q 17.53125 52.734375 16.796875 39.40625 
Q 19.671875 43.65625 24.015625 45.921875 
Q 28.375 48.1875 33.59375 48.1875 
Q 44.578125 48.1875 50.953125 41.515625 
Q 57.328125 34.859375 57.328125 23.390625 
Q 57.328125 12.15625 50.6875 5.359375 
Q 44.046875 -1.421875 33.015625 -1.421875 
Q 20.359375 -1.421875 13.671875 8.265625 
Q 6.984375 17.96875 6.984375 36.375 
Q 6.984375 53.65625 15.1875 63.9375 
Q 23.390625 74.21875 37.203125 74.21875 
Q 40.921875 74.21875 44.703125 73.484375 
Q 48.484375 72.75 52.59375 71.296875 
z
" id="DejaVuSans-54"/>
       </defs>
       <use xlink:href="#DejaVuSans-48"/>
       <use x="63.623047" xlink:href="#DejaVuSans-46"/>
       <use x="95.410156" xlink:href="#DejaVuSans-54"/>
      </g>
     </g>
    </g>
    <g id="ytick_5">
     <g id="line2d_11">
      <g>
       <use style="stroke:#000000;stroke-width:0.8;" x="39.58149" xlink:href="#m711e4a7aae" y="50.320269"/>
      </g>
     </g>
     <g id="text_12">
      <!-- 0.8 -->
      <g transform="translate(16.678365 54.119488)scale(0.1 -0.1)">
       <defs>
        <path d="M 31.78125 34.625 
Q 24.75 34.625 20.71875 30.859375 
Q 16.703125 27.09375 16.703125 20.515625 
Q 16.703125 13.921875 20.71875 10.15625 
Q 24.75 6.390625 31.78125 6.390625 
Q 38.8125 6.390625 42.859375 10.171875 
Q 46.921875 13.96875 46.921875 20.515625 
Q 46.921875 27.09375 42.890625 30.859375 
Q 38.875 34.625 31.78125 34.625 
z
M 21.921875 38.8125 
Q 15.578125 40.375 12.03125 44.71875 
Q 8.5 49.078125 8.5 55.328125 
Q 8.5 64.0625 14.71875 69.140625 
Q 20.953125 74.21875 31.78125 74.21875 
Q 42.671875 74.21875 48.875 69.140625 
Q 55.078125 64.0625 55.078125 55.328125 
Q 55.078125 49.078125 51.53125 44.71875 
Q 48 40.375 41.703125 38.8125 
Q 48.828125 37.15625 52.796875 32.3125 
Q 56.78125 27.484375 56.78125 20.515625 
Q 56.78125 9.90625 50.3125 4.234375 
Q 43.84375 -1.421875 31.78125 -1.421875 
Q 19.734375 -1.421875 13.25 4.234375 
Q 6.78125 9.90625 6.78125 20.515625 
Q 6.78125 27.484375 10.78125 32.3125 
Q 14.796875 37.15625 21.921875 38.8125 
z
M 18.3125 54.390625 
Q 18.3125 48.734375 21.84375 45.5625 
Q 25.390625 42.390625 31.78125 42.390625 
Q 38.140625 42.390625 41.71875 45.5625 
Q 45.3125 48.734375 45.3125 54.390625 
Q 45.3125 60.0625 41.71875 63.234375 
Q 38.140625 66.40625 31.78125 66.40625 
Q 25.390625 66.40625 21.84375 63.234375 
Q 18.3125 60.0625 18.3125 54.390625 
z
" id="DejaVuSans-56"/>
       </defs>
       <use xlink:href="#DejaVuSans-48"/>
       <use x="63.623047" xlink:href="#DejaVuSans-46"/>
       <use x="95.410156" xlink:href="#DejaVuSans-56"/>
      </g>
     </g>
    </g>
    <g id="ytick_6">
     <g id="line2d_12">
      <g>
       <use style="stroke:#000000;stroke-width:0.8;" x="39.58149" xlink:href="#m711e4a7aae" y="6.799459"/>
      </g>
     </g>
     <g id="text_13">
      <!-- 1.0 -->
      <g transform="translate(16.678365 10.598677)scale(0.1 -0.1)">
       <use xlink:href="#DejaVuSans-49"/>
       <use x="63.623047" xlink:href="#DejaVuSans-46"/>
       <use x="95.410156" xlink:href="#DejaVuSans-48"/>
      </g>
     </g>
    </g>
    <g id="text_14">
     <!-- $D(t)/D_0$ -->
     <g transform="translate(10.598678 133.251484)rotate(-90)scale(0.1 -0.1)">
      <defs>
       <path d="M 16.890625 72.90625 
L 38.09375 72.90625 
Q 54.984375 72.90625 63.59375 65.75 
Q 72.21875 58.59375 72.21875 44.484375 
Q 72.21875 35.15625 68.9375 26.53125 
Q 65.671875 17.921875 59.90625 12.015625 
Q 54.109375 5.953125 45.171875 2.96875 
Q 36.234375 0 24.03125 0 
L 2.6875 0 
z
M 25.203125 64.796875 
L 14.203125 8.109375 
L 27.09375 8.109375 
Q 43.65625 8.109375 52.734375 17.625 
Q 61.8125 27.15625 61.8125 44.484375 
Q 61.8125 54.984375 55.953125 59.890625 
Q 50.09375 64.796875 37.59375 64.796875 
z
" id="DejaVuSans-Oblique-68"/>
       <path d="M 42.28125 54.6875 
L 40.921875 47.703125 
L 23 47.703125 
L 17.1875 18.015625 
Q 16.890625 16.359375 16.75 15.234375 
Q 16.609375 14.109375 16.609375 13.484375 
Q 16.609375 10.359375 18.484375 8.9375 
Q 20.359375 7.515625 24.515625 7.515625 
L 33.59375 7.515625 
L 32.078125 0 
L 23.484375 0 
Q 15.484375 0 11.546875 3.125 
Q 7.625 6.25 7.625 12.59375 
Q 7.625 13.71875 7.765625 15.0625 
Q 7.90625 16.40625 8.203125 18.015625 
L 14.015625 47.703125 
L 6.390625 47.703125 
L 7.8125 54.6875 
L 15.28125 54.6875 
L 18.3125 70.21875 
L 27.296875 70.21875 
L 24.3125 54.6875 
z
" id="DejaVuSans-Oblique-116"/>
       <path d="M 25.390625 72.90625 
L 33.6875 72.90625 
L 8.296875 -9.28125 
L 0 -9.28125 
z
" id="DejaVuSans-47"/>
      </defs>
      <use transform="translate(0 0.125)" xlink:href="#DejaVuSans-Oblique-68"/>
      <use transform="translate(77.001953 0.125)" xlink:href="#DejaVuSans-40"/>
      <use transform="translate(116.015625 0.125)" xlink:href="#DejaVuSans-Oblique-116"/>
      <use transform="translate(155.224609 0.125)" xlink:href="#DejaVuSans-41"/>
      <use transform="translate(194.238281 0.125)" xlink:href="#DejaVuSans-47"/>
      <use transform="translate(227.929688 0.125)" xlink:href="#DejaVuSans-Oblique-68"/>
      <use transform="translate(304.931641 -16.28125)scale(0.7)" xlink:href="#DejaVuSans-48"/>
     </g>
    </g>
   </g>
   <g id="patch_3">
    <path d="M 39.58149 224.40351 
L 39.58149 6.799459 
" style="fill:none;stroke:#000000;stroke-linecap:square;stroke-linejoin:miter;stroke-width:0.8;"/>
   </g>
   <g id="patch_4">
    <path d="M 374.227778 224.40351 
L 374.227778 6.799459 
" style="fill:none;stroke:#000000;stroke-linecap:square;stroke-linejoin:miter;stroke-width:0.8;"/>
   </g>
   <g id="patch_5">
    <path d="M 39.58149 224.40351 
L 374.227778 224.40351 
" style="fill:none;stroke:#000000;stroke-linecap:square;stroke-linejoin:miter;stroke-width:0.8;"/>
   </g>
   <g id="patch_6">
    <path d="M 39.58149 6.799459 
L 374.227778 6.799459 
" style="fill:none;stroke:#000000;stroke-linecap:square;stroke-linejoin:miter;stroke-width:0.8;"/>
   </g>
   <g id="legend_1">
    <g id="patch_7">
     <path d="M 259.449653 73.511959 
L 367.227778 73.511959 
Q 369.227778 73.511959 369.227778 71.511959 
L 369.227778 13.799459 
Q 369.227778 11.799459 367.227778 11.799459 
L 259.449653 11.799459 
Q 257.449653 11.799459 257.449653 13.799459 
L 257.449653 71.511959 
Q 257.449653 73.511959 259.449653 73.511959 
z
" style="fill:#ffffff;opacity:0.8;stroke:#cccccc;stroke-linejoin:miter;"/>
    </g>
    <g id="PathCollection_8">
     <g>
      <use style="fill:#1f77b4;stroke:#1f77b4;" x="271.449653" xlink:href="#m0339198f6b" y="20.772896"/>
     </g>
    </g>
    <g id="text_15">
     <!-- AC -->
     <g transform="translate(289.449653 23.397896)scale(0.1 -0.1)">
      <defs>
       <path d="M 34.1875 63.1875 
L 20.796875 26.90625 
L 47.609375 26.90625 
z
M 28.609375 72.90625 
L 39.796875 72.90625 
L 67.578125 0 
L 57.328125 0 
L 50.6875 18.703125 
L 17.828125 18.703125 
L 11.1875 0 
L 0.78125 0 
z
" id="DejaVuSans-65"/>
       <path d="M 64.40625 67.28125 
L 64.40625 56.890625 
Q 59.421875 61.53125 53.78125 63.8125 
Q 48.140625 66.109375 41.796875 66.109375 
Q 29.296875 66.109375 22.65625 58.46875 
Q 16.015625 50.828125 16.015625 36.375 
Q 16.015625 21.96875 22.65625 14.328125 
Q 29.296875 6.6875 41.796875 6.6875 
Q 48.140625 6.6875 53.78125 8.984375 
Q 59.421875 11.28125 64.40625 15.921875 
L 64.40625 5.609375 
Q 59.234375 2.09375 53.4375 0.328125 
Q 47.65625 -1.421875 41.21875 -1.421875 
Q 24.65625 -1.421875 15.125 8.703125 
Q 5.609375 18.84375 5.609375 36.375 
Q 5.609375 53.953125 15.125 64.078125 
Q 24.65625 74.21875 41.21875 74.21875 
Q 47.75 74.21875 53.53125 72.484375 
Q 59.328125 70.75 64.40625 67.28125 
z
" id="DejaVuSans-67"/>
      </defs>
      <use xlink:href="#DejaVuSans-65"/>
      <use x="66.658203" xlink:href="#DejaVuSans-67"/>
     </g>
    </g>
    <g id="PathCollection_9">
     <g>
      <use style="fill:#ff7f0e;stroke:#ff7f0e;" x="271.449653" xlink:href="#m648427d719" y="35.451021"/>
     </g>
    </g>
    <g id="text_16">
     <!-- DP -->
     <g transform="translate(289.449653 38.076021)scale(0.1 -0.1)">
      <defs>
       <path d="M 19.671875 64.796875 
L 19.671875 8.109375 
L 31.59375 8.109375 
Q 46.6875 8.109375 53.6875 14.9375 
Q 60.6875 21.78125 60.6875 36.53125 
Q 60.6875 51.171875 53.6875 57.984375 
Q 46.6875 64.796875 31.59375 64.796875 
z
M 9.8125 72.90625 
L 30.078125 72.90625 
Q 51.265625 72.90625 61.171875 64.09375 
Q 71.09375 55.28125 71.09375 36.53125 
Q 71.09375 17.671875 61.125 8.828125 
Q 51.171875 0 30.078125 0 
L 9.8125 0 
z
" id="DejaVuSans-68"/>
       <path d="M 19.671875 64.796875 
L 19.671875 37.40625 
L 32.078125 37.40625 
Q 38.96875 37.40625 42.71875 40.96875 
Q 46.484375 44.53125 46.484375 51.125 
Q 46.484375 57.671875 42.71875 61.234375 
Q 38.96875 64.796875 32.078125 64.796875 
z
M 9.8125 72.90625 
L 32.078125 72.90625 
Q 44.34375 72.90625 50.609375 67.359375 
Q 56.890625 61.8125 56.890625 51.125 
Q 56.890625 40.328125 50.609375 34.8125 
Q 44.34375 29.296875 32.078125 29.296875 
L 19.671875 29.296875 
L 19.671875 0 
L 9.8125 0 
z
" id="DejaVuSans-80"/>
      </defs>
      <use xlink:href="#DejaVuSans-68"/>
      <use x="77.001953" xlink:href="#DejaVuSans-80"/>
     </g>
    </g>
    <g id="PathCollection_10">
     <g>
      <use style="fill:#2ca02c;stroke:#2ca02c;" x="271.449653" xlink:href="#m368651faaa" y="50.129146"/>
     </g>
    </g>
    <g id="text_17">
     <!-- IH -->
     <g transform="translate(289.449653 52.754146)scale(0.1 -0.1)">
      <defs>
       <path d="M 9.8125 72.90625 
L 19.671875 72.90625 
L 19.671875 0 
L 9.8125 0 
z
" id="DejaVuSans-73"/>
       <path d="M 9.8125 72.90625 
L 19.671875 72.90625 
L 19.671875 43.015625 
L 55.515625 43.015625 
L 55.515625 72.90625 
L 65.375 72.90625 
L 65.375 0 
L 55.515625 0 
L 55.515625 34.71875 
L 19.671875 34.71875 
L 19.671875 0 
L 9.8125 0 
z
" id="DejaVuSans-72"/>
      </defs>
      <use xlink:href="#DejaVuSans-73"/>
      <use x="29.492188" xlink:href="#DejaVuSans-72"/>
     </g>
    </g>
    <g id="PathCollection_11">
     <g>
      <use style="fill:#d62728;stroke:#d62728;" x="271.449653" xlink:href="#m96f225a954" y="64.807271"/>
     </g>
    </g>
    <g id="text_18">
     <!-- IL -->
     <g transform="translate(289.449653 67.432271)scale(0.1 -0.1)">
      <defs>
       <path d="M 9.8125 72.90625 
L 19.671875 72.90625 
L 19.671875 8.296875 
L 55.171875 8.296875 
L 55.171875 0 
L 9.8125 0 
z
" id="DejaVuSans-76"/>
      </defs>
      <use xlink:href="#DejaVuSans-73"/>
      <use x="29.492188" xlink:href="#DejaVuSans-76"/>
     </g>
    </g>
    <g id="PathCollection_12">
     <g>
      <use style="fill:#9467bd;stroke:#9467bd;" x="333.17934" xlink:href="#me56d415766" y="20.772896"/>
     </g>
    </g>
    <g id="text_19">
     <!-- IM -->
     <g transform="translate(351.17934 23.397896)scale(0.1 -0.1)">
      <defs>
       <path d="M 9.8125 72.90625 
L 24.515625 72.90625 
L 43.109375 23.296875 
L 61.8125 72.90625 
L 76.515625 72.90625 
L 76.515625 0 
L 66.890625 0 
L 66.890625 64.015625 
L 48.09375 14.015625 
L 38.1875 14.015625 
L 19.390625 64.015625 
L 19.390625 0 
L 9.8125 0 
z
" id="DejaVuSans-77"/>
      </defs>
      <use xlink:href="#DejaVuSans-73"/>
      <use x="29.492188" xlink:href="#DejaVuSans-77"/>
     </g>
    </g>
    <g id="PathCollection_13">
     <g>
      <use style="fill:#8c564b;stroke:#8c564b;" x="333.17934" xlink:href="#m9b5687b4f1" y="35.451021"/>
     </g>
    </g>
    <g id="text_20">
     <!-- LU -->
     <g transform="translate(351.17934 38.076021)scale(0.1 -0.1)">
      <defs>
       <path d="M 8.6875 72.90625 
L 18.609375 72.90625 
L 18.609375 28.609375 
Q 18.609375 16.890625 22.84375 11.734375 
Q 27.09375 6.59375 36.625 6.59375 
Q 46.09375 6.59375 50.34375 11.734375 
Q 54.59375 16.890625 54.59375 28.609375 
L 54.59375 72.90625 
L 64.5 72.90625 
L 64.5 27.390625 
Q 64.5 13.140625 57.4375 5.859375 
Q 50.390625 -1.421875 36.625 -1.421875 
Q 22.796875 -1.421875 15.734375 5.859375 
Q 8.6875 13.140625 8.6875 27.390625 
z
" id="DejaVuSans-85"/>
      </defs>
      <use xlink:href="#DejaVuSans-76"/>
      <use x="50.712891" xlink:href="#DejaVuSans-85"/>
     </g>
    </g>
    <g id="PathCollection_14">
     <g>
      <use style="fill:#e377c2;stroke:#e377c2;" x="333.17934" xlink:href="#mfcd3dd1c13" y="50.129146"/>
     </g>
    </g>
    <g id="text_21">
     <!-- SD -->
     <g transform="translate(351.17934 52.754146)scale(0.1 -0.1)">
      <defs>
       <path d="M 53.515625 70.515625 
L 53.515625 60.890625 
Q 47.90625 63.578125 42.921875 64.890625 
Q 37.9375 66.21875 33.296875 66.21875 
Q 25.25 66.21875 20.875 63.09375 
Q 16.5 59.96875 16.5 54.203125 
Q 16.5 49.359375 19.40625 46.890625 
Q 22.3125 44.4375 30.421875 42.921875 
L 36.375 41.703125 
Q 47.40625 39.59375 52.65625 34.296875 
Q 57.90625 29 57.90625 20.125 
Q 57.90625 9.515625 50.796875 4.046875 
Q 43.703125 -1.421875 29.984375 -1.421875 
Q 24.8125 -1.421875 18.96875 -0.25 
Q 13.140625 0.921875 6.890625 3.21875 
L 6.890625 13.375 
Q 12.890625 10.015625 18.65625 8.296875 
Q 24.421875 6.59375 29.984375 6.59375 
Q 38.421875 6.59375 43.015625 9.90625 
Q 47.609375 13.234375 47.609375 19.390625 
Q 47.609375 24.75 44.3125 27.78125 
Q 41.015625 30.8125 33.5 32.328125 
L 27.484375 33.5 
Q 16.453125 35.6875 11.515625 40.375 
Q 6.59375 45.0625 6.59375 53.421875 
Q 6.59375 63.09375 13.40625 68.65625 
Q 20.21875 74.21875 32.171875 74.21875 
Q 37.3125 74.21875 42.625 73.28125 
Q 47.953125 72.359375 53.515625 70.515625 
z
" id="DejaVuSans-83"/>
      </defs>
      <use xlink:href="#DejaVuSans-83"/>
      <use x="63.476562" xlink:href="#DejaVuSans-68"/>
     </g>
    </g>
   </g>
  </g>
 </g>
 <defs>
  <clipPath id="p40c461b829">
   <rect height="217.604051" width="334.646288" x="39.58149" y="6.799459"/>
  </clipPath>
 </defs>
</svg>
