<?xml version="1.0" encoding="utf-8" standalone="no"?>
<!DOCTYPE svg PUBLIC "-//W3C//DTD SVG 1.1//EN"
  "http://www.w3.org/Graphics/SVG/1.1/DTD/svg11.dtd">
<!-- Created with matplotlib (https://matplotlib.org/) -->
<svg height="234pt" version="1.1" viewBox="0 0 360 234" width="360pt" xmlns="http://www.w3.org/2000/svg" xmlns:xlink="http://www.w3.org/1999/xlink">
 <metadata>
  <rdf:RDF xmlns:cc="http://creativecommons.org/ns#" xmlns:dc="http://purl.org/dc/elements/1.1/" xmlns:rdf="http://www.w3.org/1999/02/22-rdf-syntax-ns#">
   <cc:Work>
    <dc:type rdf:resource="http://purl.org/dc/dcmitype/StillImage"/>
    <dc:date>2023-10-20T18:46:04.880501</dc:date>
    <dc:format>image/svg+xml</dc:format>
    <dc:creator>
     <cc:Agent>
      <dc:title>Matplotlib v3.3.3, https://matplotlib.org/</dc:title>
     </cc:Agent>
    </dc:creator>
   </cc:Work>
  </rdf:RDF>
 </metadata>
 <defs>
  <style type="text/css">*{stroke-linecap:butt;stroke-linejoin:round;}</style>
 </defs>
 <g id="figure_1">
  <g id="patch_1">
   <path d="M 0 234 
L 360 234 
L 360 0 
L 0 0 
z
" style="fill:#ffffff;"/>
  </g>
  <g id="axes_1">
   <g id="patch_2">
    <path d="M 39.58149 200.64351 
L 356.99976 200.64351 
L 356.99976 6.799459 
L 39.58149 6.799459 
z
" style="fill:#ffffff;"/>
   </g>
   <g id="PathCollection_1">
    <defs>
     <path d="M 0 3 
C 0.795609 3 1.55874 2.683901 2.12132 2.12132 
C 2.683901 1.55874 3 0.795609 3 -0 
C 3 -0.795609 2.683901 -1.55874 2.12132 -2.12132 
C 1.55874 -2.683901 0.795609 -3 0 -3 
C -0.795609 -3 -1.55874 -2.683901 -2.12132 -2.12132 
C -2.683901 -1.55874 -3 -0.795609 -3 0 
C -3 0.795609 -2.683901 1.55874 -2.12132 2.12132 
C -1.55874 2.683901 -0.795609 3 0 3 
z
" id="C0_0_73f11225ee"/>
    </defs>
    <g clip-path="url(#p5ef3043eaa)">
     <use style="fill:none;stroke:#ff0000;" x="42.531268" xlink:href="#C0_0_73f11225ee" y="92.647645"/>
    </g>
    <g clip-path="url(#p5ef3043eaa)">
     <use style="fill:none;stroke:#ff0000;" x="42.924572" xlink:href="#C0_0_73f11225ee" y="94.550282"/>
    </g>
    <g clip-path="url(#p5ef3043eaa)">
     <use style="fill:none;stroke:#ff0000;" x="43.376871" xlink:href="#C0_0_73f11225ee" y="96.474979"/>
    </g>
    <g clip-path="url(#p5ef3043eaa)">
     <use style="fill:none;stroke:#ff0000;" x="43.878334" xlink:href="#C0_0_73f11225ee" y="98.329152"/>
    </g>
    <g clip-path="url(#p5ef3043eaa)">
     <use style="fill:none;stroke:#ff0000;" x="44.448624" xlink:href="#C0_0_73f11225ee" y="100.056509"/>
    </g>
    <g clip-path="url(#p5ef3043eaa)">
     <use style="fill:none;stroke:#ff0000;" x="45.097575" xlink:href="#C0_0_73f11225ee" y="101.654288"/>
    </g>
    <g clip-path="url(#p5ef3043eaa)">
     <use style="fill:none;stroke:#ff0000;" x="45.83502" xlink:href="#C0_0_73f11225ee" y="103.263147"/>
    </g>
    <g clip-path="url(#p5ef3043eaa)">
     <use style="fill:none;stroke:#ff0000;" x="46.670791" xlink:href="#C0_0_73f11225ee" y="104.864812"/>
    </g>
    <g clip-path="url(#p5ef3043eaa)">
     <use style="fill:none;stroke:#ff0000;" x="47.61472" xlink:href="#C0_0_73f11225ee" y="106.238763"/>
    </g>
    <g clip-path="url(#p5ef3043eaa)">
     <use style="fill:none;stroke:#ff0000;" x="48.686472" xlink:href="#C0_0_73f11225ee" y="107.78461"/>
    </g>
    <g clip-path="url(#p5ef3043eaa)">
     <use style="fill:none;stroke:#ff0000;" x="49.895882" xlink:href="#C0_0_73f11225ee" y="109.374001"/>
    </g>
    <g clip-path="url(#p5ef3043eaa)">
     <use style="fill:none;stroke:#ff0000;" x="51.272445" xlink:href="#C0_0_73f11225ee" y="110.724994"/>
    </g>
    <g clip-path="url(#p5ef3043eaa)">
     <use style="fill:none;stroke:#ff0000;" x="52.825995" xlink:href="#C0_0_73f11225ee" y="112.009416"/>
    </g>
    <g clip-path="url(#p5ef3043eaa)">
     <use style="fill:none;stroke:#ff0000;" x="54.595862" xlink:href="#C0_0_73f11225ee" y="113.422764"/>
    </g>
    <g clip-path="url(#p5ef3043eaa)">
     <use style="fill:none;stroke:#ff0000;" x="56.591878" xlink:href="#C0_0_73f11225ee" y="114.681433"/>
    </g>
    <g clip-path="url(#p5ef3043eaa)">
     <use style="fill:none;stroke:#ff0000;" x="58.853375" xlink:href="#C0_0_73f11225ee" y="115.829201"/>
    </g>
    <g clip-path="url(#p5ef3043eaa)">
     <use style="fill:none;stroke:#ff0000;" x="61.429515" xlink:href="#C0_0_73f11225ee" y="116.996464"/>
    </g>
    <g clip-path="url(#p5ef3043eaa)">
     <use style="fill:none;stroke:#ff0000;" x="64.339963" xlink:href="#C0_0_73f11225ee" y="118.067756"/>
    </g>
    <g clip-path="url(#p5ef3043eaa)">
     <use style="fill:none;stroke:#ff0000;" x="67.633882" xlink:href="#C0_0_73f11225ee" y="119.183807"/>
    </g>
    <g clip-path="url(#p5ef3043eaa)">
     <use style="fill:none;stroke:#ff0000;" x="71.3801" xlink:href="#C0_0_73f11225ee" y="120.159107"/>
    </g>
    <g clip-path="url(#p5ef3043eaa)">
     <use style="fill:none;stroke:#ff0000;" x="75.608116" xlink:href="#C0_0_73f11225ee" y="121.081755"/>
    </g>
    <g clip-path="url(#p5ef3043eaa)">
     <use style="fill:none;stroke:#ff0000;" x="80.416254" xlink:href="#C0_0_73f11225ee" y="122.247822"/>
    </g>
    <g clip-path="url(#p5ef3043eaa)">
     <use style="fill:none;stroke:#ff0000;" x="85.853679" xlink:href="#C0_0_73f11225ee" y="123.228166"/>
    </g>
    <g clip-path="url(#p5ef3043eaa)">
     <use style="fill:none;stroke:#ff0000;" x="92.028548" xlink:href="#C0_0_73f11225ee" y="124.161847"/>
    </g>
    <g clip-path="url(#p5ef3043eaa)">
     <use style="fill:none;stroke:#ff0000;" x="99.00969" xlink:href="#C0_0_73f11225ee" y="125.177179"/>
    </g>
    <g clip-path="url(#p5ef3043eaa)">
     <use style="fill:none;stroke:#ff0000;" x="106.934762" xlink:href="#C0_0_73f11225ee" y="126.269111"/>
    </g>
    <g clip-path="url(#p5ef3043eaa)">
     <use style="fill:none;stroke:#ff0000;" x="115.91192" xlink:href="#C0_0_73f11225ee" y="127.505719"/>
    </g>
    <g clip-path="url(#p5ef3043eaa)">
     <use style="fill:none;stroke:#ff0000;" x="126.088655" xlink:href="#C0_0_73f11225ee" y="128.688126"/>
    </g>
    <g clip-path="url(#p5ef3043eaa)">
     <use style="fill:none;stroke:#ff0000;" x="137.612456" xlink:href="#C0_0_73f11225ee" y="130.260042"/>
    </g>
    <g clip-path="url(#p5ef3043eaa)">
     <use style="fill:none;stroke:#ff0000;" x="150.679974" xlink:href="#C0_0_73f11225ee" y="131.953815"/>
    </g>
    <g clip-path="url(#p5ef3043eaa)">
     <use style="fill:none;stroke:#ff0000;" x="165.487861" xlink:href="#C0_0_73f11225ee" y="133.794436"/>
    </g>
    <g clip-path="url(#p5ef3043eaa)">
     <use style="fill:none;stroke:#ff0000;" x="182.2721" xlink:href="#C0_0_73f11225ee" y="135.858926"/>
    </g>
    <g clip-path="url(#p5ef3043eaa)">
     <use style="fill:none;stroke:#ff0000;" x="201.288337" xlink:href="#C0_0_73f11225ee" y="138.082762"/>
    </g>
    <g clip-path="url(#p5ef3043eaa)">
     <use style="fill:none;stroke:#ff0000;" x="222.841384" xlink:href="#C0_0_73f11225ee" y="140.590565"/>
    </g>
    <g clip-path="url(#p5ef3043eaa)">
     <use style="fill:none;stroke:#ff0000;" x="247.275381" xlink:href="#C0_0_73f11225ee" y="143.281831"/>
    </g>
    <g clip-path="url(#p5ef3043eaa)">
     <use style="fill:none;stroke:#ff0000;" x="274.954134" xlink:href="#C0_0_73f11225ee" y="146.23094"/>
    </g>
    <g clip-path="url(#p5ef3043eaa)">
     <use style="fill:none;stroke:#ff0000;" x="306.329943" xlink:href="#C0_0_73f11225ee" y="149.342692"/>
    </g>
   </g>
   <g id="PathCollection_2">
    <defs>
     <path d="M -3 3 
L 3 3 
L 3 -3 
L -3 -3 
z
" id="C1_0_4bac7ee36d"/>
    </defs>
    <g clip-path="url(#p5ef3043eaa)">
     <use style="fill:none;stroke:#0000ff;" x="42.531268" xlink:href="#C1_0_4bac7ee36d" y="76.609409"/>
    </g>
    <g clip-path="url(#p5ef3043eaa)">
     <use style="fill:none;stroke:#0000ff;" x="42.924572" xlink:href="#C1_0_4bac7ee36d" y="78.518756"/>
    </g>
    <g clip-path="url(#p5ef3043eaa)">
     <use style="fill:none;stroke:#0000ff;" x="43.376871" xlink:href="#C1_0_4bac7ee36d" y="80.571687"/>
    </g>
    <g clip-path="url(#p5ef3043eaa)">
     <use style="fill:none;stroke:#0000ff;" x="43.878334" xlink:href="#C1_0_4bac7ee36d" y="82.584919"/>
    </g>
    <g clip-path="url(#p5ef3043eaa)">
     <use style="fill:none;stroke:#0000ff;" x="44.448624" xlink:href="#C1_0_4bac7ee36d" y="84.570368"/>
    </g>
    <g clip-path="url(#p5ef3043eaa)">
     <use style="fill:none;stroke:#0000ff;" x="45.097575" xlink:href="#C1_0_4bac7ee36d" y="86.617024"/>
    </g>
    <g clip-path="url(#p5ef3043eaa)">
     <use style="fill:none;stroke:#0000ff;" x="45.83502" xlink:href="#C1_0_4bac7ee36d" y="88.635653"/>
    </g>
    <g clip-path="url(#p5ef3043eaa)">
     <use style="fill:none;stroke:#0000ff;" x="46.670791" xlink:href="#C1_0_4bac7ee36d" y="90.614818"/>
    </g>
    <g clip-path="url(#p5ef3043eaa)">
     <use style="fill:none;stroke:#0000ff;" x="47.61472" xlink:href="#C1_0_4bac7ee36d" y="92.597345"/>
    </g>
    <g clip-path="url(#p5ef3043eaa)">
     <use style="fill:none;stroke:#0000ff;" x="48.686472" xlink:href="#C1_0_4bac7ee36d" y="94.578783"/>
    </g>
    <g clip-path="url(#p5ef3043eaa)">
     <use style="fill:none;stroke:#0000ff;" x="49.895882" xlink:href="#C1_0_4bac7ee36d" y="96.557143"/>
    </g>
    <g clip-path="url(#p5ef3043eaa)">
     <use style="fill:none;stroke:#0000ff;" x="51.272445" xlink:href="#C1_0_4bac7ee36d" y="98.590202"/>
    </g>
    <g clip-path="url(#p5ef3043eaa)">
     <use style="fill:none;stroke:#0000ff;" x="52.825995" xlink:href="#C1_0_4bac7ee36d" y="100.646734"/>
    </g>
    <g clip-path="url(#p5ef3043eaa)">
     <use style="fill:none;stroke:#0000ff;" x="54.595862" xlink:href="#C1_0_4bac7ee36d" y="102.689008"/>
    </g>
    <g clip-path="url(#p5ef3043eaa)">
     <use style="fill:none;stroke:#0000ff;" x="56.591878" xlink:href="#C1_0_4bac7ee36d" y="104.719923"/>
    </g>
    <g clip-path="url(#p5ef3043eaa)">
     <use style="fill:none;stroke:#0000ff;" x="58.853375" xlink:href="#C1_0_4bac7ee36d" y="106.686075"/>
    </g>
    <g clip-path="url(#p5ef3043eaa)">
     <use style="fill:none;stroke:#0000ff;" x="61.429515" xlink:href="#C1_0_4bac7ee36d" y="108.722349"/>
    </g>
    <g clip-path="url(#p5ef3043eaa)">
     <use style="fill:none;stroke:#0000ff;" x="64.339963" xlink:href="#C1_0_4bac7ee36d" y="110.8182"/>
    </g>
    <g clip-path="url(#p5ef3043eaa)">
     <use style="fill:none;stroke:#0000ff;" x="67.633882" xlink:href="#C1_0_4bac7ee36d" y="112.77236"/>
    </g>
    <g clip-path="url(#p5ef3043eaa)">
     <use style="fill:none;stroke:#0000ff;" x="71.3801" xlink:href="#C1_0_4bac7ee36d" y="114.733435"/>
    </g>
    <g clip-path="url(#p5ef3043eaa)">
     <use style="fill:none;stroke:#0000ff;" x="75.608116" xlink:href="#C1_0_4bac7ee36d" y="116.781187"/>
    </g>
    <g clip-path="url(#p5ef3043eaa)">
     <use style="fill:none;stroke:#0000ff;" x="80.416254" xlink:href="#C1_0_4bac7ee36d" y="118.794716"/>
    </g>
    <g clip-path="url(#p5ef3043eaa)">
     <use style="fill:none;stroke:#0000ff;" x="85.853679" xlink:href="#C1_0_4bac7ee36d" y="120.772287"/>
    </g>
    <g clip-path="url(#p5ef3043eaa)">
     <use style="fill:none;stroke:#0000ff;" x="92.028548" xlink:href="#C1_0_4bac7ee36d" y="122.698218"/>
    </g>
    <g clip-path="url(#p5ef3043eaa)">
     <use style="fill:none;stroke:#0000ff;" x="99.00969" xlink:href="#C1_0_4bac7ee36d" y="124.656383"/>
    </g>
    <g clip-path="url(#p5ef3043eaa)">
     <use style="fill:none;stroke:#0000ff;" x="106.934762" xlink:href="#C1_0_4bac7ee36d" y="126.561472"/>
    </g>
    <g clip-path="url(#p5ef3043eaa)">
     <use style="fill:none;stroke:#0000ff;" x="115.91192" xlink:href="#C1_0_4bac7ee36d" y="128.489017"/>
    </g>
    <g clip-path="url(#p5ef3043eaa)">
     <use style="fill:none;stroke:#0000ff;" x="126.088655" xlink:href="#C1_0_4bac7ee36d" y="130.351021"/>
    </g>
    <g clip-path="url(#p5ef3043eaa)">
     <use style="fill:none;stroke:#0000ff;" x="137.612456" xlink:href="#C1_0_4bac7ee36d" y="132.257832"/>
    </g>
    <g clip-path="url(#p5ef3043eaa)">
     <use style="fill:none;stroke:#0000ff;" x="150.679974" xlink:href="#C1_0_4bac7ee36d" y="134.127196"/>
    </g>
    <g clip-path="url(#p5ef3043eaa)">
     <use style="fill:none;stroke:#0000ff;" x="165.487861" xlink:href="#C1_0_4bac7ee36d" y="135.984575"/>
    </g>
    <g clip-path="url(#p5ef3043eaa)">
     <use style="fill:none;stroke:#0000ff;" x="182.2721" xlink:href="#C1_0_4bac7ee36d" y="137.81738"/>
    </g>
    <g clip-path="url(#p5ef3043eaa)">
     <use style="fill:none;stroke:#0000ff;" x="201.288337" xlink:href="#C1_0_4bac7ee36d" y="139.636075"/>
    </g>
    <g clip-path="url(#p5ef3043eaa)">
     <use style="fill:none;stroke:#0000ff;" x="222.841384" xlink:href="#C1_0_4bac7ee36d" y="141.348021"/>
    </g>
    <g clip-path="url(#p5ef3043eaa)">
     <use style="fill:none;stroke:#0000ff;" x="247.275381" xlink:href="#C1_0_4bac7ee36d" y="143.06366"/>
    </g>
    <g clip-path="url(#p5ef3043eaa)">
     <use style="fill:none;stroke:#0000ff;" x="274.954134" xlink:href="#C1_0_4bac7ee36d" y="144.705046"/>
    </g>
    <g clip-path="url(#p5ef3043eaa)">
     <use style="fill:none;stroke:#0000ff;" x="306.329943" xlink:href="#C1_0_4bac7ee36d" y="146.326603"/>
    </g>
   </g>
   <g id="matplotlib.axis_1">
    <g id="xtick_1">
     <g id="line2d_1">
      <defs>
       <path d="M 0 0 
L 0 3.5 
" id="m42b4fd1c44" style="stroke:#000000;stroke-width:0.8;"/>
      </defs>
      <g>
       <use style="stroke:#000000;stroke-width:0.8;" x="39.58149" xlink:href="#m42b4fd1c44" y="200.64351"/>
      </g>
     </g>
     <g id="text_1">
      <!-- 0 -->
      <g transform="translate(36.40024 215.241947)scale(0.1 -0.1)">
       <defs>
        <path d="M 31.78125 66.40625 
Q 24.171875 66.40625 20.328125 58.90625 
Q 16.5 51.421875 16.5 36.375 
Q 16.5 21.390625 20.328125 13.890625 
Q 24.171875 6.390625 31.78125 6.390625 
Q 39.453125 6.390625 43.28125 13.890625 
Q 47.125 21.390625 47.125 36.375 
Q 47.125 51.421875 43.28125 58.90625 
Q 39.453125 66.40625 31.78125 66.40625 
z
M 31.78125 74.21875 
Q 44.046875 74.21875 50.515625 64.515625 
Q 56.984375 54.828125 56.984375 36.375 
Q 56.984375 17.96875 50.515625 8.265625 
Q 44.046875 -1.421875 31.78125 -1.421875 
Q 19.53125 -1.421875 13.0625 8.265625 
Q 6.59375 17.96875 6.59375 36.375 
Q 6.59375 54.828125 13.0625 64.515625 
Q 19.53125 74.21875 31.78125 74.21875 
z
" id="DejaVuSans-48"/>
       </defs>
       <use xlink:href="#DejaVuSans-48"/>
      </g>
     </g>
    </g>
    <g id="xtick_2">
     <g id="line2d_2">
      <g>
       <use style="stroke:#000000;stroke-width:0.8;" x="98.577056" xlink:href="#m42b4fd1c44" y="200.64351"/>
      </g>
     </g>
     <g id="text_2">
      <!-- 200 -->
      <g transform="translate(89.033306 215.241947)scale(0.1 -0.1)">
       <defs>
        <path d="M 19.1875 8.296875 
L 53.609375 8.296875 
L 53.609375 0 
L 7.328125 0 
L 7.328125 8.296875 
Q 12.9375 14.109375 22.625 23.890625 
Q 32.328125 33.6875 34.8125 36.53125 
Q 39.546875 41.84375 41.421875 45.53125 
Q 43.3125 49.21875 43.3125 52.78125 
Q 43.3125 58.59375 39.234375 62.25 
Q 35.15625 65.921875 28.609375 65.921875 
Q 23.96875 65.921875 18.8125 64.3125 
Q 13.671875 62.703125 7.8125 59.421875 
L 7.8125 69.390625 
Q 13.765625 71.78125 18.9375 73 
Q 24.125 74.21875 28.421875 74.21875 
Q 39.75 74.21875 46.484375 68.546875 
Q 53.21875 62.890625 53.21875 53.421875 
Q 53.21875 48.921875 51.53125 44.890625 
Q 49.859375 40.875 45.40625 35.40625 
Q 44.1875 33.984375 37.640625 27.21875 
Q 31.109375 20.453125 19.1875 8.296875 
z
" id="DejaVuSans-50"/>
       </defs>
       <use xlink:href="#DejaVuSans-50"/>
       <use x="63.623047" xlink:href="#DejaVuSans-48"/>
       <use x="127.246094" xlink:href="#DejaVuSans-48"/>
      </g>
     </g>
    </g>
    <g id="xtick_3">
     <g id="line2d_3">
      <g>
       <use style="stroke:#000000;stroke-width:0.8;" x="157.572623" xlink:href="#m42b4fd1c44" y="200.64351"/>
      </g>
     </g>
     <g id="text_3">
      <!-- 400 -->
      <g transform="translate(148.028873 215.241947)scale(0.1 -0.1)">
       <defs>
        <path d="M 37.796875 64.3125 
L 12.890625 25.390625 
L 37.796875 25.390625 
z
M 35.203125 72.90625 
L 47.609375 72.90625 
L 47.609375 25.390625 
L 58.015625 25.390625 
L 58.015625 17.1875 
L 47.609375 17.1875 
L 47.609375 0 
L 37.796875 0 
L 37.796875 17.1875 
L 4.890625 17.1875 
L 4.890625 26.703125 
z
" id="DejaVuSans-52"/>
       </defs>
       <use xlink:href="#DejaVuSans-52"/>
       <use x="63.623047" xlink:href="#DejaVuSans-48"/>
       <use x="127.246094" xlink:href="#DejaVuSans-48"/>
      </g>
     </g>
    </g>
    <g id="xtick_4">
     <g id="line2d_4">
      <g>
       <use style="stroke:#000000;stroke-width:0.8;" x="216.568189" xlink:href="#m42b4fd1c44" y="200.64351"/>
      </g>
     </g>
     <g id="text_4">
      <!-- 600 -->
      <g transform="translate(207.024439 215.241947)scale(0.1 -0.1)">
       <defs>
        <path d="M 33.015625 40.375 
Q 26.375 40.375 22.484375 35.828125 
Q 18.609375 31.296875 18.609375 23.390625 
Q 18.609375 15.53125 22.484375 10.953125 
Q 26.375 6.390625 33.015625 6.390625 
Q 39.65625 6.390625 43.53125 10.953125 
Q 47.40625 15.53125 47.40625 23.390625 
Q 47.40625 31.296875 43.53125 35.828125 
Q 39.65625 40.375 33.015625 40.375 
z
M 52.59375 71.296875 
L 52.59375 62.3125 
Q 48.875 64.0625 45.09375 64.984375 
Q 41.3125 65.921875 37.59375 65.921875 
Q 27.828125 65.921875 22.671875 59.328125 
Q 17.53125 52.734375 16.796875 39.40625 
Q 19.671875 43.65625 24.015625 45.921875 
Q 28.375 48.1875 33.59375 48.1875 
Q 44.578125 48.1875 50.953125 41.515625 
Q 57.328125 34.859375 57.328125 23.390625 
Q 57.328125 12.15625 50.6875 5.359375 
Q 44.046875 -1.421875 33.015625 -1.421875 
Q 20.359375 -1.421875 13.671875 8.265625 
Q 6.984375 17.96875 6.984375 36.375 
Q 6.984375 53.65625 15.1875 63.9375 
Q 23.390625 74.21875 37.203125 74.21875 
Q 40.921875 74.21875 44.703125 73.484375 
Q 48.484375 72.75 52.59375 71.296875 
z
" id="DejaVuSans-54"/>
       </defs>
       <use xlink:href="#DejaVuSans-54"/>
       <use x="63.623047" xlink:href="#DejaVuSans-48"/>
       <use x="127.246094" xlink:href="#DejaVuSans-48"/>
      </g>
     </g>
    </g>
    <g id="xtick_5">
     <g id="line2d_5">
      <g>
       <use style="stroke:#000000;stroke-width:0.8;" x="275.563755" xlink:href="#m42b4fd1c44" y="200.64351"/>
      </g>
     </g>
     <g id="text_5">
      <!-- 800 -->
      <g transform="translate(266.020005 215.241947)scale(0.1 -0.1)">
       <defs>
        <path d="M 31.78125 34.625 
Q 24.75 34.625 20.71875 30.859375 
Q 16.703125 27.09375 16.703125 20.515625 
Q 16.703125 13.921875 20.71875 10.15625 
Q 24.75 6.390625 31.78125 6.390625 
Q 38.8125 6.390625 42.859375 10.171875 
Q 46.921875 13.96875 46.921875 20.515625 
Q 46.921875 27.09375 42.890625 30.859375 
Q 38.875 34.625 31.78125 34.625 
z
M 21.921875 38.8125 
Q 15.578125 40.375 12.03125 44.71875 
Q 8.5 49.078125 8.5 55.328125 
Q 8.5 64.0625 14.71875 69.140625 
Q 20.953125 74.21875 31.78125 74.21875 
Q 42.671875 74.21875 48.875 69.140625 
Q 55.078125 64.0625 55.078125 55.328125 
Q 55.078125 49.078125 51.53125 44.71875 
Q 48 40.375 41.703125 38.8125 
Q 48.828125 37.15625 52.796875 32.3125 
Q 56.78125 27.484375 56.78125 20.515625 
Q 56.78125 9.90625 50.3125 4.234375 
Q 43.84375 -1.421875 31.78125 -1.421875 
Q 19.734375 -1.421875 13.25 4.234375 
Q 6.78125 9.90625 6.78125 20.515625 
Q 6.78125 27.484375 10.78125 32.3125 
Q 14.796875 37.15625 21.921875 38.8125 
z
M 18.3125 54.390625 
Q 18.3125 48.734375 21.84375 45.5625 
Q 25.390625 42.390625 31.78125 42.390625 
Q 38.140625 42.390625 41.71875 45.5625 
Q 45.3125 48.734375 45.3125 54.390625 
Q 45.3125 60.0625 41.71875 63.234375 
Q 38.140625 66.40625 31.78125 66.40625 
Q 25.390625 66.40625 21.84375 63.234375 
Q 18.3125 60.0625 18.3125 54.390625 
z
" id="DejaVuSans-56"/>
       </defs>
       <use xlink:href="#DejaVuSans-56"/>
       <use x="63.623047" xlink:href="#DejaVuSans-48"/>
       <use x="127.246094" xlink:href="#DejaVuSans-48"/>
      </g>
     </g>
    </g>
    <g id="xtick_6">
     <g id="line2d_6">
      <g>
       <use style="stroke:#000000;stroke-width:0.8;" x="334.559321" xlink:href="#m42b4fd1c44" y="200.64351"/>
      </g>
     </g>
     <g id="text_6">
      <!-- 1000 -->
      <g transform="translate(321.834321 215.241947)scale(0.1 -0.1)">
       <defs>
        <path d="M 12.40625 8.296875 
L 28.515625 8.296875 
L 28.515625 63.921875 
L 10.984375 60.40625 
L 10.984375 69.390625 
L 28.421875 72.90625 
L 38.28125 72.90625 
L 38.28125 8.296875 
L 54.390625 8.296875 
L 54.390625 0 
L 12.40625 0 
z
" id="DejaVuSans-49"/>
       </defs>
       <use xlink:href="#DejaVuSans-49"/>
       <use x="63.623047" xlink:href="#DejaVuSans-48"/>
       <use x="127.246094" xlink:href="#DejaVuSans-48"/>
       <use x="190.869141" xlink:href="#DejaVuSans-48"/>
      </g>
     </g>
    </g>
    <g id="text_7">
     <!-- time (msec) -->
     <g transform="translate(168.203125 228.920073)scale(0.1 -0.1)">
      <defs>
       <path d="M 18.3125 70.21875 
L 18.3125 54.6875 
L 36.8125 54.6875 
L 36.8125 47.703125 
L 18.3125 47.703125 
L 18.3125 18.015625 
Q 18.3125 11.328125 20.140625 9.421875 
Q 21.96875 7.515625 27.59375 7.515625 
L 36.8125 7.515625 
L 36.8125 0 
L 27.59375 0 
Q 17.1875 0 13.234375 3.875 
Q 9.28125 7.765625 9.28125 18.015625 
L 9.28125 47.703125 
L 2.6875 47.703125 
L 2.6875 54.6875 
L 9.28125 54.6875 
L 9.28125 70.21875 
z
" id="DejaVuSans-116"/>
       <path d="M 9.421875 54.6875 
L 18.40625 54.6875 
L 18.40625 0 
L 9.421875 0 
z
M 9.421875 75.984375 
L 18.40625 75.984375 
L 18.40625 64.59375 
L 9.421875 64.59375 
z
" id="DejaVuSans-105"/>
       <path d="M 52 44.1875 
Q 55.375 50.25 60.0625 53.125 
Q 64.75 56 71.09375 56 
Q 79.640625 56 84.28125 50.015625 
Q 88.921875 44.046875 88.921875 33.015625 
L 88.921875 0 
L 79.890625 0 
L 79.890625 32.71875 
Q 79.890625 40.578125 77.09375 44.375 
Q 74.3125 48.1875 68.609375 48.1875 
Q 61.625 48.1875 57.5625 43.546875 
Q 53.515625 38.921875 53.515625 30.90625 
L 53.515625 0 
L 44.484375 0 
L 44.484375 32.71875 
Q 44.484375 40.625 41.703125 44.40625 
Q 38.921875 48.1875 33.109375 48.1875 
Q 26.21875 48.1875 22.15625 43.53125 
Q 18.109375 38.875 18.109375 30.90625 
L 18.109375 0 
L 9.078125 0 
L 9.078125 54.6875 
L 18.109375 54.6875 
L 18.109375 46.1875 
Q 21.1875 51.21875 25.484375 53.609375 
Q 29.78125 56 35.6875 56 
Q 41.65625 56 45.828125 52.96875 
Q 50 49.953125 52 44.1875 
z
" id="DejaVuSans-109"/>
       <path d="M 56.203125 29.59375 
L 56.203125 25.203125 
L 14.890625 25.203125 
Q 15.484375 15.921875 20.484375 11.0625 
Q 25.484375 6.203125 34.421875 6.203125 
Q 39.59375 6.203125 44.453125 7.46875 
Q 49.3125 8.734375 54.109375 11.28125 
L 54.109375 2.78125 
Q 49.265625 0.734375 44.1875 -0.34375 
Q 39.109375 -1.421875 33.890625 -1.421875 
Q 20.796875 -1.421875 13.15625 6.1875 
Q 5.515625 13.8125 5.515625 26.8125 
Q 5.515625 40.234375 12.765625 48.109375 
Q 20.015625 56 32.328125 56 
Q 43.359375 56 49.78125 48.890625 
Q 56.203125 41.796875 56.203125 29.59375 
z
M 47.21875 32.234375 
Q 47.125 39.59375 43.09375 43.984375 
Q 39.0625 48.390625 32.421875 48.390625 
Q 24.90625 48.390625 20.390625 44.140625 
Q 15.875 39.890625 15.1875 32.171875 
z
" id="DejaVuSans-101"/>
       <path id="DejaVuSans-32"/>
       <path d="M 31 75.875 
Q 24.46875 64.65625 21.28125 53.65625 
Q 18.109375 42.671875 18.109375 31.390625 
Q 18.109375 20.125 21.3125 9.0625 
Q 24.515625 -2 31 -13.1875 
L 23.1875 -13.1875 
Q 15.875 -1.703125 12.234375 9.375 
Q 8.59375 20.453125 8.59375 31.390625 
Q 8.59375 42.28125 12.203125 53.3125 
Q 15.828125 64.359375 23.1875 75.875 
z
" id="DejaVuSans-40"/>
       <path d="M 44.28125 53.078125 
L 44.28125 44.578125 
Q 40.484375 46.53125 36.375 47.5 
Q 32.28125 48.484375 27.875 48.484375 
Q 21.1875 48.484375 17.84375 46.4375 
Q 14.5 44.390625 14.5 40.28125 
Q 14.5 37.15625 16.890625 35.375 
Q 19.28125 33.59375 26.515625 31.984375 
L 29.59375 31.296875 
Q 39.15625 29.25 43.1875 25.515625 
Q 47.21875 21.78125 47.21875 15.09375 
Q 47.21875 7.46875 41.1875 3.015625 
Q 35.15625 -1.421875 24.609375 -1.421875 
Q 20.21875 -1.421875 15.453125 -0.5625 
Q 10.6875 0.296875 5.421875 2 
L 5.421875 11.28125 
Q 10.40625 8.6875 15.234375 7.390625 
Q 20.0625 6.109375 24.8125 6.109375 
Q 31.15625 6.109375 34.5625 8.28125 
Q 37.984375 10.453125 37.984375 14.40625 
Q 37.984375 18.0625 35.515625 20.015625 
Q 33.0625 21.96875 24.703125 23.78125 
L 21.578125 24.515625 
Q 13.234375 26.265625 9.515625 29.90625 
Q 5.8125 33.546875 5.8125 39.890625 
Q 5.8125 47.609375 11.28125 51.796875 
Q 16.75 56 26.8125 56 
Q 31.78125 56 36.171875 55.265625 
Q 40.578125 54.546875 44.28125 53.078125 
z
" id="DejaVuSans-115"/>
       <path d="M 48.78125 52.59375 
L 48.78125 44.1875 
Q 44.96875 46.296875 41.140625 47.34375 
Q 37.3125 48.390625 33.40625 48.390625 
Q 24.65625 48.390625 19.8125 42.84375 
Q 14.984375 37.3125 14.984375 27.296875 
Q 14.984375 17.28125 19.8125 11.734375 
Q 24.65625 6.203125 33.40625 6.203125 
Q 37.3125 6.203125 41.140625 7.25 
Q 44.96875 8.296875 48.78125 10.40625 
L 48.78125 2.09375 
Q 45.015625 0.34375 40.984375 -0.53125 
Q 36.96875 -1.421875 32.421875 -1.421875 
Q 20.0625 -1.421875 12.78125 6.34375 
Q 5.515625 14.109375 5.515625 27.296875 
Q 5.515625 40.671875 12.859375 48.328125 
Q 20.21875 56 33.015625 56 
Q 37.15625 56 41.109375 55.140625 
Q 45.0625 54.296875 48.78125 52.59375 
z
" id="DejaVuSans-99"/>
       <path d="M 8.015625 75.875 
L 15.828125 75.875 
Q 23.140625 64.359375 26.78125 53.3125 
Q 30.421875 42.28125 30.421875 31.390625 
Q 30.421875 20.453125 26.78125 9.375 
Q 23.140625 -1.703125 15.828125 -13.1875 
L 8.015625 -13.1875 
Q 14.5 -2 17.703125 9.0625 
Q 20.90625 20.125 20.90625 31.390625 
Q 20.90625 42.671875 17.703125 53.65625 
Q 14.5 64.65625 8.015625 75.875 
z
" id="DejaVuSans-41"/>
      </defs>
      <use xlink:href="#DejaVuSans-116"/>
      <use x="39.208984" xlink:href="#DejaVuSans-105"/>
      <use x="66.992188" xlink:href="#DejaVuSans-109"/>
      <use x="164.404297" xlink:href="#DejaVuSans-101"/>
      <use x="225.927734" xlink:href="#DejaVuSans-32"/>
      <use x="257.714844" xlink:href="#DejaVuSans-40"/>
      <use x="296.728516" xlink:href="#DejaVuSans-109"/>
      <use x="394.140625" xlink:href="#DejaVuSans-115"/>
      <use x="446.240234" xlink:href="#DejaVuSans-101"/>
      <use x="507.763672" xlink:href="#DejaVuSans-99"/>
      <use x="562.744141" xlink:href="#DejaVuSans-41"/>
     </g>
    </g>
   </g>
   <g id="matplotlib.axis_2">
    <g id="ytick_1">
     <g id="line2d_7">
      <defs>
       <path d="M 0 0 
L -3.5 0 
" id="m31e6bd9d47" style="stroke:#000000;stroke-width:0.8;"/>
      </defs>
      <g>
       <use style="stroke:#000000;stroke-width:0.8;" x="39.58149" xlink:href="#m31e6bd9d47" y="200.64351"/>
      </g>
     </g>
     <g id="text_8">
      <!-- 0.0 -->
      <g transform="translate(16.678365 204.442729)scale(0.1 -0.1)">
       <defs>
        <path d="M 10.6875 12.40625 
L 21 12.40625 
L 21 0 
L 10.6875 0 
z
" id="DejaVuSans-46"/>
       </defs>
       <use xlink:href="#DejaVuSans-48"/>
       <use x="63.623047" xlink:href="#DejaVuSans-46"/>
       <use x="95.410156" xlink:href="#DejaVuSans-48"/>
      </g>
     </g>
    </g>
    <g id="ytick_2">
     <g id="line2d_8">
      <g>
       <use style="stroke:#000000;stroke-width:0.8;" x="39.58149" xlink:href="#m31e6bd9d47" y="161.8747"/>
      </g>
     </g>
     <g id="text_9">
      <!-- 0.2 -->
      <g transform="translate(16.678365 165.673918)scale(0.1 -0.1)">
       <use xlink:href="#DejaVuSans-48"/>
       <use x="63.623047" xlink:href="#DejaVuSans-46"/>
       <use x="95.410156" xlink:href="#DejaVuSans-50"/>
      </g>
     </g>
    </g>
    <g id="ytick_3">
     <g id="line2d_9">
      <g>
       <use style="stroke:#000000;stroke-width:0.8;" x="39.58149" xlink:href="#m31e6bd9d47" y="123.105889"/>
      </g>
     </g>
     <g id="text_10">
      <!-- 0.4 -->
      <g transform="translate(16.678365 126.905108)scale(0.1 -0.1)">
       <use xlink:href="#DejaVuSans-48"/>
       <use x="63.623047" xlink:href="#DejaVuSans-46"/>
       <use x="95.410156" xlink:href="#DejaVuSans-52"/>
      </g>
     </g>
    </g>
    <g id="ytick_4">
     <g id="line2d_10">
      <g>
       <use style="stroke:#000000;stroke-width:0.8;" x="39.58149" xlink:href="#m31e6bd9d47" y="84.337079"/>
      </g>
     </g>
     <g id="text_11">
      <!-- 0.6 -->
      <g transform="translate(16.678365 88.136298)scale(0.1 -0.1)">
       <use xlink:href="#DejaVuSans-48"/>
       <use x="63.623047" xlink:href="#DejaVuSans-46"/>
       <use x="95.410156" xlink:href="#DejaVuSans-54"/>
      </g>
     </g>
    </g>
    <g id="ytick_5">
     <g id="line2d_11">
      <g>
       <use style="stroke:#000000;stroke-width:0.8;" x="39.58149" xlink:href="#m31e6bd9d47" y="45.568269"/>
      </g>
     </g>
     <g id="text_12">
      <!-- 0.8 -->
      <g transform="translate(16.678365 49.367488)scale(0.1 -0.1)">
       <use xlink:href="#DejaVuSans-48"/>
       <use x="63.623047" xlink:href="#DejaVuSans-46"/>
       <use x="95.410156" xlink:href="#DejaVuSans-56"/>
      </g>
     </g>
    </g>
    <g id="ytick_6">
     <g id="line2d_12">
      <g>
       <use style="stroke:#000000;stroke-width:0.8;" x="39.58149" xlink:href="#m31e6bd9d47" y="6.799459"/>
      </g>
     </g>
     <g id="text_13">
      <!-- 1.0 -->
      <g transform="translate(16.678365 10.598678)scale(0.1 -0.1)">
       <use xlink:href="#DejaVuSans-49"/>
       <use x="63.623047" xlink:href="#DejaVuSans-46"/>
       <use x="95.410156" xlink:href="#DejaVuSans-48"/>
      </g>
     </g>
    </g>
    <g id="text_14">
     <!-- $D(t)/D_0$ -->
     <g transform="translate(10.598677 121.371484)rotate(-90)scale(0.1 -0.1)">
      <defs>
       <path d="M 16.890625 72.90625 
L 38.09375 72.90625 
Q 54.984375 72.90625 63.59375 65.75 
Q 72.21875 58.59375 72.21875 44.484375 
Q 72.21875 35.15625 68.9375 26.53125 
Q 65.671875 17.921875 59.90625 12.015625 
Q 54.109375 5.953125 45.171875 2.96875 
Q 36.234375 0 24.03125 0 
L 2.6875 0 
z
M 25.203125 64.796875 
L 14.203125 8.109375 
L 27.09375 8.109375 
Q 43.65625 8.109375 52.734375 17.625 
Q 61.8125 27.15625 61.8125 44.484375 
Q 61.8125 54.984375 55.953125 59.890625 
Q 50.09375 64.796875 37.59375 64.796875 
z
" id="DejaVuSans-Oblique-68"/>
       <path d="M 42.28125 54.6875 
L 40.921875 47.703125 
L 23 47.703125 
L 17.1875 18.015625 
Q 16.890625 16.359375 16.75 15.234375 
Q 16.609375 14.109375 16.609375 13.484375 
Q 16.609375 10.359375 18.484375 8.9375 
Q 20.359375 7.515625 24.515625 7.515625 
L 33.59375 7.515625 
L 32.078125 0 
L 23.484375 0 
Q 15.484375 0 11.546875 3.125 
Q 7.625 6.25 7.625 12.59375 
Q 7.625 13.71875 7.765625 15.0625 
Q 7.90625 16.40625 8.203125 18.015625 
L 14.015625 47.703125 
L 6.390625 47.703125 
L 7.8125 54.6875 
L 15.28125 54.6875 
L 18.3125 70.21875 
L 27.296875 70.21875 
L 24.3125 54.6875 
z
" id="DejaVuSans-Oblique-116"/>
       <path d="M 25.390625 72.90625 
L 33.6875 72.90625 
L 8.296875 -9.28125 
L 0 -9.28125 
z
" id="DejaVuSans-47"/>
      </defs>
      <use transform="translate(0 0.125)" xlink:href="#DejaVuSans-Oblique-68"/>
      <use transform="translate(77.001953 0.125)" xlink:href="#DejaVuSans-40"/>
      <use transform="translate(116.015625 0.125)" xlink:href="#DejaVuSans-Oblique-116"/>
      <use transform="translate(155.224609 0.125)" xlink:href="#DejaVuSans-41"/>
      <use transform="translate(194.238281 0.125)" xlink:href="#DejaVuSans-47"/>
      <use transform="translate(227.929688 0.125)" xlink:href="#DejaVuSans-Oblique-68"/>
      <use transform="translate(304.931641 -16.28125)scale(0.7)" xlink:href="#DejaVuSans-48"/>
     </g>
    </g>
   </g>
   <g id="patch_3">
    <path d="M 39.58149 200.64351 
L 39.58149 6.799459 
" style="fill:none;stroke:#000000;stroke-linecap:square;stroke-linejoin:miter;stroke-width:0.8;"/>
   </g>
   <g id="patch_4">
    <path d="M 356.99976 200.64351 
L 356.99976 6.799459 
" style="fill:none;stroke:#000000;stroke-linecap:square;stroke-linejoin:miter;stroke-width:0.8;"/>
   </g>
   <g id="patch_5">
    <path d="M 39.58149 200.64351 
L 356.99976 200.64351 
" style="fill:none;stroke:#000000;stroke-linecap:square;stroke-linejoin:miter;stroke-width:0.8;"/>
   </g>
   <g id="patch_6">
    <path d="M 39.58149 6.799459 
L 356.99976 6.799459 
" style="fill:none;stroke:#000000;stroke-linecap:square;stroke-linejoin:miter;stroke-width:0.8;"/>
   </g>
   <g id="text_15">
    <!-- Parker -->
    <g transform="translate(147.642235 24.799459)scale(0.12 -0.12)">
     <defs>
      <path d="M 19.671875 64.796875 
L 19.671875 37.40625 
L 32.078125 37.40625 
Q 38.96875 37.40625 42.71875 40.96875 
Q 46.484375 44.53125 46.484375 51.125 
Q 46.484375 57.671875 42.71875 61.234375 
Q 38.96875 64.796875 32.078125 64.796875 
z
M 9.8125 72.90625 
L 32.078125 72.90625 
Q 44.34375 72.90625 50.609375 67.359375 
Q 56.890625 61.8125 56.890625 51.125 
Q 56.890625 40.328125 50.609375 34.8125 
Q 44.34375 29.296875 32.078125 29.296875 
L 19.671875 29.296875 
L 19.671875 0 
L 9.8125 0 
z
" id="DejaVuSans-80"/>
      <path d="M 34.28125 27.484375 
Q 23.390625 27.484375 19.1875 25 
Q 14.984375 22.515625 14.984375 16.5 
Q 14.984375 11.71875 18.140625 8.90625 
Q 21.296875 6.109375 26.703125 6.109375 
Q 34.1875 6.109375 38.703125 11.40625 
Q 43.21875 16.703125 43.21875 25.484375 
L 43.21875 27.484375 
z
M 52.203125 31.203125 
L 52.203125 0 
L 43.21875 0 
L 43.21875 8.296875 
Q 40.140625 3.328125 35.546875 0.953125 
Q 30.953125 -1.421875 24.3125 -1.421875 
Q 15.921875 -1.421875 10.953125 3.296875 
Q 6 8.015625 6 15.921875 
Q 6 25.140625 12.171875 29.828125 
Q 18.359375 34.515625 30.609375 34.515625 
L 43.21875 34.515625 
L 43.21875 35.40625 
Q 43.21875 41.609375 39.140625 45 
Q 35.0625 48.390625 27.6875 48.390625 
Q 23 48.390625 18.546875 47.265625 
Q 14.109375 46.140625 10.015625 43.890625 
L 10.015625 52.203125 
Q 14.9375 54.109375 19.578125 55.046875 
Q 24.21875 56 28.609375 56 
Q 40.484375 56 46.34375 49.84375 
Q 52.203125 43.703125 52.203125 31.203125 
z
" id="DejaVuSans-97"/>
      <path d="M 41.109375 46.296875 
Q 39.59375 47.171875 37.8125 47.578125 
Q 36.03125 48 33.890625 48 
Q 26.265625 48 22.1875 43.046875 
Q 18.109375 38.09375 18.109375 28.8125 
L 18.109375 0 
L 9.078125 0 
L 9.078125 54.6875 
L 18.109375 54.6875 
L 18.109375 46.1875 
Q 20.953125 51.171875 25.484375 53.578125 
Q 30.03125 56 36.53125 56 
Q 37.453125 56 38.578125 55.875 
Q 39.703125 55.765625 41.0625 55.515625 
z
" id="DejaVuSans-114"/>
      <path d="M 9.078125 75.984375 
L 18.109375 75.984375 
L 18.109375 31.109375 
L 44.921875 54.6875 
L 56.390625 54.6875 
L 27.390625 29.109375 
L 57.625 0 
L 45.90625 0 
L 18.109375 26.703125 
L 18.109375 0 
L 9.078125 0 
z
" id="DejaVuSans-107"/>
     </defs>
     <use xlink:href="#DejaVuSans-80"/>
     <use x="55.802734" xlink:href="#DejaVuSans-97"/>
     <use x="117.082031" xlink:href="#DejaVuSans-114"/>
     <use x="158.195312" xlink:href="#DejaVuSans-107"/>
     <use x="212.480469" xlink:href="#DejaVuSans-101"/>
     <use x="274.003906" xlink:href="#DejaVuSans-114"/>
    </g>
   </g>
   <g id="legend_1">
    <g id="patch_7">
     <path d="M 292.99976 44.196334 
L 349.99976 44.196334 
Q 351.99976 44.196334 351.99976 42.196334 
L 351.99976 13.799459 
Q 351.99976 11.799459 349.99976 11.799459 
L 292.99976 11.799459 
Q 290.99976 11.799459 290.99976 13.799459 
L 290.99976 42.196334 
Q 290.99976 44.196334 292.99976 44.196334 
z
" style="fill:#ffffff;opacity:0.8;stroke:#cccccc;stroke-linejoin:miter;"/>
    </g>
    <g id="PathCollection_3">
     <path d="M 304.99976 23.772896 
C 305.795369 23.772896 306.5585 23.456797 307.12108 22.894217 
C 307.683661 22.331636 307.99976 21.568506 307.99976 20.772896 
C 307.99976 19.977287 307.683661 19.214157 307.12108 18.651576 
C 306.5585 18.088995 305.795369 17.772896 304.99976 17.772896 
C 304.204151 17.772896 303.44102 18.088995 302.87844 18.651576 
C 302.315859 19.214157 301.99976 19.977287 301.99976 20.772896 
C 301.99976 21.568506 302.315859 22.331636 302.87844 22.894217 
C 303.44102 23.456797 304.204151 23.772896 304.99976 23.772896 
z
" style="fill:none;stroke:#ff0000;"/>
    </g>
    <g id="text_16">
     <!-- $\rho \neq 0$ -->
     <g transform="translate(322.99976 23.397896)scale(0.1 -0.1)">
      <defs>
       <path d="M 18.796875 44.921875 
Q 22.703125 49.90625 30.953125 54.296875 
Q 34.1875 56 43.0625 56 
Q 53.03125 56 57.71875 48.09375 
Q 62.40625 40.1875 59.90625 27.296875 
Q 57.375 14.40625 49.609375 6.484375 
Q 41.84375 -1.421875 31.890625 -1.421875 
Q 25.875 -1.421875 22.015625 0.984375 
Q 18.171875 3.328125 16.3125 8.203125 
L 10.640625 -20.796875 
L 1.609375 -20.796875 
L 10.890625 26.8125 
Q 13.09375 38.09375 18.796875 44.921875 
z
M 50.59375 27.296875 
Q 52.484375 37.203125 49.515625 42.875 
Q 46.53125 48.484375 39.40625 48.484375 
Q 32.28125 48.484375 27.09375 42.875 
Q 21.921875 37.203125 20.015625 27.296875 
Q 18.0625 17.390625 21.046875 11.71875 
Q 24.03125 6.109375 31.15625 6.109375 
Q 38.28125 6.109375 43.453125 11.71875 
Q 48.640625 17.390625 50.59375 27.296875 
z
" id="DejaVuSans-Oblique-961"/>
       <path d="M 10.59375 45.40625 
L 48.296875 45.40625 
L 60.796875 60.796875 
L 66.890625 55.8125 
L 58.40625 45.40625 
L 73.1875 45.40625 
L 73.1875 37.203125 
L 51.703125 37.203125 
L 42.1875 25.484375 
L 73.1875 25.484375 
L 73.1875 17.1875 
L 35.40625 17.1875 
L 22.796875 1.90625 
L 16.703125 6.890625 
L 25.203125 17.1875 
L 10.59375 17.1875 
L 10.59375 25.484375 
L 31.984375 25.484375 
L 41.5 37.203125 
L 10.59375 37.203125 
z
" id="DejaVuSans-8800"/>
      </defs>
      <use transform="translate(0 0.78125)" xlink:href="#DejaVuSans-Oblique-961"/>
      <use transform="translate(82.958984 0.78125)" xlink:href="#DejaVuSans-8800"/>
      <use transform="translate(186.230469 0.78125)" xlink:href="#DejaVuSans-48"/>
     </g>
    </g>
    <g id="PathCollection_4">
     <path d="M 301.99976 38.471334 
L 307.99976 38.471334 
L 307.99976 32.471334 
L 301.99976 32.471334 
z
" style="fill:none;stroke:#0000ff;"/>
    </g>
    <g id="text_17">
     <!-- $\rho = 0$ -->
     <g transform="translate(322.99976 38.096334)scale(0.1 -0.1)">
      <defs>
       <path d="M 10.59375 45.40625 
L 73.1875 45.40625 
L 73.1875 37.203125 
L 10.59375 37.203125 
z
M 10.59375 25.484375 
L 73.1875 25.484375 
L 73.1875 17.1875 
L 10.59375 17.1875 
z
" id="DejaVuSans-61"/>
      </defs>
      <use transform="translate(0 0.78125)" xlink:href="#DejaVuSans-Oblique-961"/>
      <use transform="translate(82.958984 0.78125)" xlink:href="#DejaVuSans-61"/>
      <use transform="translate(186.230469 0.78125)" xlink:href="#DejaVuSans-48"/>
     </g>
    </g>
   </g>
  </g>
 </g>
 <defs>
  <clipPath id="p5ef3043eaa">
   <rect height="193.844051" width="317.41827" x="39.58149" y="6.799459"/>
  </clipPath>
 </defs>
</svg>
