<?xml version="1.0" encoding="utf-8" standalone="no"?>
<!DOCTYPE svg PUBLIC "-//W3C//DTD SVG 1.1//EN"
  "http://www.w3.org/Graphics/SVG/1.1/DTD/svg11.dtd">
<!-- Created with matplotlib (https://matplotlib.org/) -->
<svg height="234pt" version="1.1" viewBox="0 0 360 234" width="360pt" xmlns="http://www.w3.org/2000/svg" xmlns:xlink="http://www.w3.org/1999/xlink">
 <metadata>
  <rdf:RDF xmlns:cc="http://creativecommons.org/ns#" xmlns:dc="http://purl.org/dc/elements/1.1/" xmlns:rdf="http://www.w3.org/1999/02/22-rdf-syntax-ns#">
   <cc:Work>
    <dc:type rdf:resource="http://purl.org/dc/dcmitype/StillImage"/>
    <dc:date>2023-10-20T18:46:02.092551</dc:date>
    <dc:format>image/svg+xml</dc:format>
    <dc:creator>
     <cc:Agent>
      <dc:title>Matplotlib v3.3.3, https://matplotlib.org/</dc:title>
     </cc:Agent>
    </dc:creator>
   </cc:Work>
  </rdf:RDF>
 </metadata>
 <defs>
  <style type="text/css">*{stroke-linecap:butt;stroke-linejoin:round;}</style>
 </defs>
 <g id="figure_1">
  <g id="patch_1">
   <path d="M 0 234 
L 360 234 
L 360 0 
L 0 0 
z
" style="fill:#ffffff;"/>
  </g>
  <g id="axes_1">
   <g id="patch_2">
    <path d="M 39.58149 200.64351 
L 356.99976 200.64351 
L 356.99976 6.799459 
L 39.58149 6.799459 
z
" style="fill:#ffffff;"/>
   </g>
   <g id="PathCollection_1">
    <defs>
     <path d="M 0 3 
C 0.795609 3 1.55874 2.683901 2.12132 2.12132 
C 2.683901 1.55874 3 0.795609 3 -0 
C 3 -0.795609 2.683901 -1.55874 2.12132 -2.12132 
C 1.55874 -2.683901 0.795609 -3 0 -3 
C -0.795609 -3 -1.55874 -2.683901 -2.12132 -2.12132 
C -2.683901 -1.55874 -3 -0.795609 -3 0 
C -3 0.795609 -2.683901 1.55874 -2.12132 2.12132 
C -1.55874 2.683901 -0.795609 3 0 3 
z
" id="C0_0_afd41c8b78"/>
    </defs>
    <g clip-path="url(#pf93e15a4fa)">
     <use style="fill:none;stroke:#ff0000;" x="40.71175" xlink:href="#C0_0_afd41c8b78" y="25.882068"/>
    </g>
    <g clip-path="url(#pf93e15a4fa)">
     <use style="fill:none;stroke:#ff0000;" x="40.862451" xlink:href="#C0_0_afd41c8b78" y="26.873348"/>
    </g>
    <g clip-path="url(#pf93e15a4fa)">
     <use style="fill:none;stroke:#ff0000;" x="41.035758" xlink:href="#C0_0_afd41c8b78" y="27.751392"/>
    </g>
    <g clip-path="url(#pf93e15a4fa)">
     <use style="fill:none;stroke:#ff0000;" x="41.227902" xlink:href="#C0_0_afd41c8b78" y="28.615804"/>
    </g>
    <g clip-path="url(#pf93e15a4fa)">
     <use style="fill:none;stroke:#ff0000;" x="41.446419" xlink:href="#C0_0_afd41c8b78" y="29.779414"/>
    </g>
    <g clip-path="url(#pf93e15a4fa)">
     <use style="fill:none;stroke:#ff0000;" x="41.695076" xlink:href="#C0_0_afd41c8b78" y="30.724335"/>
    </g>
    <g clip-path="url(#pf93e15a4fa)">
     <use style="fill:none;stroke:#ff0000;" x="41.977641" xlink:href="#C0_0_afd41c8b78" y="31.722663"/>
    </g>
    <g clip-path="url(#pf93e15a4fa)">
     <use style="fill:none;stroke:#ff0000;" x="42.297882" xlink:href="#C0_0_afd41c8b78" y="32.854061"/>
    </g>
    <g clip-path="url(#pf93e15a4fa)">
     <use style="fill:none;stroke:#ff0000;" x="42.659565" xlink:href="#C0_0_afd41c8b78" y="33.713698"/>
    </g>
    <g clip-path="url(#pf93e15a4fa)">
     <use style="fill:none;stroke:#ff0000;" x="43.070226" xlink:href="#C0_0_afd41c8b78" y="34.618207"/>
    </g>
    <g clip-path="url(#pf93e15a4fa)">
     <use style="fill:none;stroke:#ff0000;" x="43.533633" xlink:href="#C0_0_afd41c8b78" y="35.748733"/>
    </g>
    <g clip-path="url(#pf93e15a4fa)">
     <use style="fill:none;stroke:#ff0000;" x="44.061087" xlink:href="#C0_0_afd41c8b78" y="36.899358"/>
    </g>
    <g clip-path="url(#pf93e15a4fa)">
     <use style="fill:none;stroke:#ff0000;" x="44.656358" xlink:href="#C0_0_afd41c8b78" y="37.856062"/>
    </g>
    <g clip-path="url(#pf93e15a4fa)">
     <use style="fill:none;stroke:#ff0000;" x="45.334514" xlink:href="#C0_0_afd41c8b78" y="38.975203"/>
    </g>
    <g clip-path="url(#pf93e15a4fa)">
     <use style="fill:none;stroke:#ff0000;" x="46.099323" xlink:href="#C0_0_afd41c8b78" y="40.019455"/>
    </g>
    <g clip-path="url(#pf93e15a4fa)">
     <use style="fill:none;stroke:#ff0000;" x="46.965856" xlink:href="#C0_0_afd41c8b78" y="41.013387"/>
    </g>
    <g clip-path="url(#pf93e15a4fa)">
     <use style="fill:none;stroke:#ff0000;" x="47.952949" xlink:href="#C0_0_afd41c8b78" y="42.491917"/>
    </g>
    <g clip-path="url(#pf93e15a4fa)">
     <use style="fill:none;stroke:#ff0000;" x="49.068139" xlink:href="#C0_0_afd41c8b78" y="43.50834"/>
    </g>
    <g clip-path="url(#pf93e15a4fa)">
     <use style="fill:none;stroke:#ff0000;" x="50.330263" xlink:href="#C0_0_afd41c8b78" y="44.832506"/>
    </g>
    <g clip-path="url(#pf93e15a4fa)">
     <use style="fill:none;stroke:#ff0000;" x="51.765693" xlink:href="#C0_0_afd41c8b78" y="46.168253"/>
    </g>
    <g clip-path="url(#pf93e15a4fa)">
     <use style="fill:none;stroke:#ff0000;" x="53.385732" xlink:href="#C0_0_afd41c8b78" y="47.351133"/>
    </g>
    <g clip-path="url(#pf93e15a4fa)">
     <use style="fill:none;stroke:#ff0000;" x="55.228056" xlink:href="#C0_0_afd41c8b78" y="48.587848"/>
    </g>
    <g clip-path="url(#pf93e15a4fa)">
     <use style="fill:none;stroke:#ff0000;" x="57.311502" xlink:href="#C0_0_afd41c8b78" y="49.751005"/>
    </g>
    <g clip-path="url(#pf93e15a4fa)">
     <use style="fill:none;stroke:#ff0000;" x="59.677513" xlink:href="#C0_0_afd41c8b78" y="50.866505"/>
    </g>
    <g clip-path="url(#pf93e15a4fa)">
     <use style="fill:none;stroke:#ff0000;" x="62.352462" xlink:href="#C0_0_afd41c8b78" y="52.18154"/>
    </g>
    <g clip-path="url(#pf93e15a4fa)">
     <use style="fill:none;stroke:#ff0000;" x="65.389094" xlink:href="#C0_0_afd41c8b78" y="53.452373"/>
    </g>
    <g clip-path="url(#pf93e15a4fa)">
     <use style="fill:none;stroke:#ff0000;" x="68.828852" xlink:href="#C0_0_afd41c8b78" y="54.80132"/>
    </g>
    <g clip-path="url(#pf93e15a4fa)">
     <use style="fill:none;stroke:#ff0000;" x="72.728249" xlink:href="#C0_0_afd41c8b78" y="56.257499"/>
    </g>
    <g clip-path="url(#pf93e15a4fa)">
     <use style="fill:none;stroke:#ff0000;" x="77.143798" xlink:href="#C0_0_afd41c8b78" y="57.750765"/>
    </g>
    <g clip-path="url(#pf93e15a4fa)">
     <use style="fill:none;stroke:#ff0000;" x="82.15085" xlink:href="#C0_0_afd41c8b78" y="59.186042"/>
    </g>
    <g clip-path="url(#pf93e15a4fa)">
     <use style="fill:none;stroke:#ff0000;" x="87.824755" xlink:href="#C0_0_afd41c8b78" y="60.903113"/>
    </g>
    <g clip-path="url(#pf93e15a4fa)">
     <use style="fill:none;stroke:#ff0000;" x="94.255935" xlink:href="#C0_0_afd41c8b78" y="62.546355"/>
    </g>
    <g clip-path="url(#pf93e15a4fa)">
     <use style="fill:none;stroke:#ff0000;" x="101.542345" xlink:href="#C0_0_afd41c8b78" y="64.350836"/>
    </g>
    <g clip-path="url(#pf93e15a4fa)">
     <use style="fill:none;stroke:#ff0000;" x="109.800778" xlink:href="#C0_0_afd41c8b78" y="66.363584"/>
    </g>
    <g clip-path="url(#pf93e15a4fa)">
     <use style="fill:none;stroke:#ff0000;" x="119.163098" xlink:href="#C0_0_afd41c8b78" y="68.113606"/>
    </g>
    <g clip-path="url(#pf93e15a4fa)">
     <use style="fill:none;stroke:#ff0000;" x="129.768705" xlink:href="#C0_0_afd41c8b78" y="70.191224"/>
    </g>
    <g clip-path="url(#pf93e15a4fa)">
     <use style="fill:none;stroke:#ff0000;" x="141.790904" xlink:href="#C0_0_afd41c8b78" y="72.357199"/>
    </g>
    <g clip-path="url(#pf93e15a4fa)">
     <use style="fill:none;stroke:#ff0000;" x="155.414305" xlink:href="#C0_0_afd41c8b78" y="74.62784"/>
    </g>
    <g clip-path="url(#pf93e15a4fa)">
     <use style="fill:none;stroke:#ff0000;" x="170.853657" xlink:href="#C0_0_afd41c8b78" y="77.203384"/>
    </g>
    <g clip-path="url(#pf93e15a4fa)">
     <use style="fill:none;stroke:#ff0000;" x="188.350082" xlink:href="#C0_0_afd41c8b78" y="79.797386"/>
    </g>
    <g clip-path="url(#pf93e15a4fa)">
     <use style="fill:none;stroke:#ff0000;" x="208.178611" xlink:href="#C0_0_afd41c8b78" y="82.710221"/>
    </g>
    <g clip-path="url(#pf93e15a4fa)">
     <use style="fill:none;stroke:#ff0000;" x="230.651948" xlink:href="#C0_0_afd41c8b78" y="85.681559"/>
    </g>
    <g clip-path="url(#pf93e15a4fa)">
     <use style="fill:none;stroke:#ff0000;" x="256.120473" xlink:href="#C0_0_afd41c8b78" y="88.706118"/>
    </g>
    <g clip-path="url(#pf93e15a4fa)">
     <use style="fill:none;stroke:#ff0000;" x="284.979779" xlink:href="#C0_0_afd41c8b78" y="92.144901"/>
    </g>
    <g clip-path="url(#pf93e15a4fa)">
     <use style="fill:none;stroke:#ff0000;" x="317.689505" xlink:href="#C0_0_afd41c8b78" y="95.73466"/>
    </g>
   </g>
   <g id="PathCollection_2">
    <defs>
     <path d="M -3 3 
L 3 3 
L 3 -3 
L -3 -3 
z
" id="C1_0_ebd2774b87"/>
    </defs>
    <g clip-path="url(#pf93e15a4fa)">
     <use style="fill:none;stroke:#0000ff;" x="40.71175" xlink:href="#C1_0_ebd2774b87" y="21.787124"/>
    </g>
    <g clip-path="url(#pf93e15a4fa)">
     <use style="fill:none;stroke:#0000ff;" x="40.862451" xlink:href="#C1_0_ebd2774b87" y="22.536615"/>
    </g>
    <g clip-path="url(#pf93e15a4fa)">
     <use style="fill:none;stroke:#0000ff;" x="41.035758" xlink:href="#C1_0_ebd2774b87" y="23.302465"/>
    </g>
    <g clip-path="url(#pf93e15a4fa)">
     <use style="fill:none;stroke:#0000ff;" x="41.227902" xlink:href="#C1_0_ebd2774b87" y="23.992729"/>
    </g>
    <g clip-path="url(#pf93e15a4fa)">
     <use style="fill:none;stroke:#0000ff;" x="41.446419" xlink:href="#C1_0_ebd2774b87" y="24.781263"/>
    </g>
    <g clip-path="url(#pf93e15a4fa)">
     <use style="fill:none;stroke:#0000ff;" x="41.695076" xlink:href="#C1_0_ebd2774b87" y="25.689443"/>
    </g>
    <g clip-path="url(#pf93e15a4fa)">
     <use style="fill:none;stroke:#0000ff;" x="41.977641" xlink:href="#C1_0_ebd2774b87" y="26.523479"/>
    </g>
    <g clip-path="url(#pf93e15a4fa)">
     <use style="fill:none;stroke:#0000ff;" x="42.297882" xlink:href="#C1_0_ebd2774b87" y="27.493009"/>
    </g>
    <g clip-path="url(#pf93e15a4fa)">
     <use style="fill:none;stroke:#0000ff;" x="42.659565" xlink:href="#C1_0_ebd2774b87" y="28.410198"/>
    </g>
    <g clip-path="url(#pf93e15a4fa)">
     <use style="fill:none;stroke:#0000ff;" x="43.070226" xlink:href="#C1_0_ebd2774b87" y="29.286049"/>
    </g>
    <g clip-path="url(#pf93e15a4fa)">
     <use style="fill:none;stroke:#0000ff;" x="43.533633" xlink:href="#C1_0_ebd2774b87" y="30.50024"/>
    </g>
    <g clip-path="url(#pf93e15a4fa)">
     <use style="fill:none;stroke:#0000ff;" x="44.061087" xlink:href="#C1_0_ebd2774b87" y="31.596912"/>
    </g>
    <g clip-path="url(#pf93e15a4fa)">
     <use style="fill:none;stroke:#0000ff;" x="44.656358" xlink:href="#C1_0_ebd2774b87" y="32.547638"/>
    </g>
    <g clip-path="url(#pf93e15a4fa)">
     <use style="fill:none;stroke:#0000ff;" x="45.334514" xlink:href="#C1_0_ebd2774b87" y="33.762486"/>
    </g>
    <g clip-path="url(#pf93e15a4fa)">
     <use style="fill:none;stroke:#0000ff;" x="46.099323" xlink:href="#C1_0_ebd2774b87" y="35.02605"/>
    </g>
    <g clip-path="url(#pf93e15a4fa)">
     <use style="fill:none;stroke:#0000ff;" x="46.965856" xlink:href="#C1_0_ebd2774b87" y="36.159142"/>
    </g>
    <g clip-path="url(#pf93e15a4fa)">
     <use style="fill:none;stroke:#0000ff;" x="47.952949" xlink:href="#C1_0_ebd2774b87" y="37.488704"/>
    </g>
    <g clip-path="url(#pf93e15a4fa)">
     <use style="fill:none;stroke:#0000ff;" x="49.068139" xlink:href="#C1_0_ebd2774b87" y="38.849549"/>
    </g>
    <g clip-path="url(#pf93e15a4fa)">
     <use style="fill:none;stroke:#0000ff;" x="50.330263" xlink:href="#C1_0_ebd2774b87" y="40.159744"/>
    </g>
    <g clip-path="url(#pf93e15a4fa)">
     <use style="fill:none;stroke:#0000ff;" x="51.765693" xlink:href="#C1_0_ebd2774b87" y="41.642872"/>
    </g>
    <g clip-path="url(#pf93e15a4fa)">
     <use style="fill:none;stroke:#0000ff;" x="53.385732" xlink:href="#C1_0_ebd2774b87" y="43.201282"/>
    </g>
    <g clip-path="url(#pf93e15a4fa)">
     <use style="fill:none;stroke:#0000ff;" x="55.228056" xlink:href="#C1_0_ebd2774b87" y="44.722606"/>
    </g>
    <g clip-path="url(#pf93e15a4fa)">
     <use style="fill:none;stroke:#0000ff;" x="57.311502" xlink:href="#C1_0_ebd2774b87" y="46.19571"/>
    </g>
    <g clip-path="url(#pf93e15a4fa)">
     <use style="fill:none;stroke:#0000ff;" x="59.677513" xlink:href="#C1_0_ebd2774b87" y="47.866101"/>
    </g>
    <g clip-path="url(#pf93e15a4fa)">
     <use style="fill:none;stroke:#0000ff;" x="62.352462" xlink:href="#C1_0_ebd2774b87" y="49.561285"/>
    </g>
    <g clip-path="url(#pf93e15a4fa)">
     <use style="fill:none;stroke:#0000ff;" x="65.389094" xlink:href="#C1_0_ebd2774b87" y="51.284364"/>
    </g>
    <g clip-path="url(#pf93e15a4fa)">
     <use style="fill:none;stroke:#0000ff;" x="68.828852" xlink:href="#C1_0_ebd2774b87" y="53.06024"/>
    </g>
    <g clip-path="url(#pf93e15a4fa)">
     <use style="fill:none;stroke:#0000ff;" x="72.728249" xlink:href="#C1_0_ebd2774b87" y="54.793501"/>
    </g>
    <g clip-path="url(#pf93e15a4fa)">
     <use style="fill:none;stroke:#0000ff;" x="77.143798" xlink:href="#C1_0_ebd2774b87" y="56.650804"/>
    </g>
    <g clip-path="url(#pf93e15a4fa)">
     <use style="fill:none;stroke:#0000ff;" x="82.15085" xlink:href="#C1_0_ebd2774b87" y="58.524773"/>
    </g>
    <g clip-path="url(#pf93e15a4fa)">
     <use style="fill:none;stroke:#0000ff;" x="87.824755" xlink:href="#C1_0_ebd2774b87" y="60.51527"/>
    </g>
    <g clip-path="url(#pf93e15a4fa)">
     <use style="fill:none;stroke:#0000ff;" x="94.255935" xlink:href="#C1_0_ebd2774b87" y="62.611485"/>
    </g>
    <g clip-path="url(#pf93e15a4fa)">
     <use style="fill:none;stroke:#0000ff;" x="101.542345" xlink:href="#C1_0_ebd2774b87" y="64.858399"/>
    </g>
    <g clip-path="url(#pf93e15a4fa)">
     <use style="fill:none;stroke:#0000ff;" x="109.800778" xlink:href="#C1_0_ebd2774b87" y="67.046448"/>
    </g>
    <g clip-path="url(#pf93e15a4fa)">
     <use style="fill:none;stroke:#0000ff;" x="119.163098" xlink:href="#C1_0_ebd2774b87" y="69.308479"/>
    </g>
    <g clip-path="url(#pf93e15a4fa)">
     <use style="fill:none;stroke:#0000ff;" x="129.768705" xlink:href="#C1_0_ebd2774b87" y="71.646712"/>
    </g>
    <g clip-path="url(#pf93e15a4fa)">
     <use style="fill:none;stroke:#0000ff;" x="141.790904" xlink:href="#C1_0_ebd2774b87" y="73.851671"/>
    </g>
    <g clip-path="url(#pf93e15a4fa)">
     <use style="fill:none;stroke:#0000ff;" x="155.414305" xlink:href="#C1_0_ebd2774b87" y="76.166198"/>
    </g>
    <g clip-path="url(#pf93e15a4fa)">
     <use style="fill:none;stroke:#0000ff;" x="170.853657" xlink:href="#C1_0_ebd2774b87" y="78.506068"/>
    </g>
    <g clip-path="url(#pf93e15a4fa)">
     <use style="fill:none;stroke:#0000ff;" x="188.350082" xlink:href="#C1_0_ebd2774b87" y="80.95331"/>
    </g>
    <g clip-path="url(#pf93e15a4fa)">
     <use style="fill:none;stroke:#0000ff;" x="208.178611" xlink:href="#C1_0_ebd2774b87" y="83.446463"/>
    </g>
    <g clip-path="url(#pf93e15a4fa)">
     <use style="fill:none;stroke:#0000ff;" x="230.651948" xlink:href="#C1_0_ebd2774b87" y="85.927865"/>
    </g>
    <g clip-path="url(#pf93e15a4fa)">
     <use style="fill:none;stroke:#0000ff;" x="256.120473" xlink:href="#C1_0_ebd2774b87" y="88.410583"/>
    </g>
    <g clip-path="url(#pf93e15a4fa)">
     <use style="fill:none;stroke:#0000ff;" x="284.979779" xlink:href="#C1_0_ebd2774b87" y="90.824382"/>
    </g>
    <g clip-path="url(#pf93e15a4fa)">
     <use style="fill:none;stroke:#0000ff;" x="317.689505" xlink:href="#C1_0_ebd2774b87" y="93.268864"/>
    </g>
   </g>
   <g id="matplotlib.axis_1">
    <g id="xtick_1">
     <g id="line2d_1">
      <defs>
       <path d="M 0 0 
L 0 3.5 
" id="m0bd8d41128" style="stroke:#000000;stroke-width:0.8;"/>
      </defs>
      <g>
       <use style="stroke:#000000;stroke-width:0.8;" x="39.58149" xlink:href="#m0bd8d41128" y="200.64351"/>
      </g>
     </g>
     <g id="text_1">
      <!-- 0 -->
      <g transform="translate(36.40024 215.241947)scale(0.1 -0.1)">
       <defs>
        <path d="M 31.78125 66.40625 
Q 24.171875 66.40625 20.328125 58.90625 
Q 16.5 51.421875 16.5 36.375 
Q 16.5 21.390625 20.328125 13.890625 
Q 24.171875 6.390625 31.78125 6.390625 
Q 39.453125 6.390625 43.28125 13.890625 
Q 47.125 21.390625 47.125 36.375 
Q 47.125 51.421875 43.28125 58.90625 
Q 39.453125 66.40625 31.78125 66.40625 
z
M 31.78125 74.21875 
Q 44.046875 74.21875 50.515625 64.515625 
Q 56.984375 54.828125 56.984375 36.375 
Q 56.984375 17.96875 50.515625 8.265625 
Q 44.046875 -1.421875 31.78125 -1.421875 
Q 19.53125 -1.421875 13.0625 8.265625 
Q 6.59375 17.96875 6.59375 36.375 
Q 6.59375 54.828125 13.0625 64.515625 
Q 19.53125 74.21875 31.78125 74.21875 
z
" id="DejaVuSans-48"/>
       </defs>
       <use xlink:href="#DejaVuSans-48"/>
      </g>
     </g>
    </g>
    <g id="xtick_2">
     <g id="line2d_2">
      <g>
       <use style="stroke:#000000;stroke-width:0.8;" x="96.094491" xlink:href="#m0bd8d41128" y="200.64351"/>
      </g>
     </g>
     <g id="text_2">
      <!-- 500 -->
      <g transform="translate(86.550741 215.241947)scale(0.1 -0.1)">
       <defs>
        <path d="M 10.796875 72.90625 
L 49.515625 72.90625 
L 49.515625 64.59375 
L 19.828125 64.59375 
L 19.828125 46.734375 
Q 21.96875 47.46875 24.109375 47.828125 
Q 26.265625 48.1875 28.421875 48.1875 
Q 40.625 48.1875 47.75 41.5 
Q 54.890625 34.8125 54.890625 23.390625 
Q 54.890625 11.625 47.5625 5.09375 
Q 40.234375 -1.421875 26.90625 -1.421875 
Q 22.3125 -1.421875 17.546875 -0.640625 
Q 12.796875 0.140625 7.71875 1.703125 
L 7.71875 11.625 
Q 12.109375 9.234375 16.796875 8.0625 
Q 21.484375 6.890625 26.703125 6.890625 
Q 35.15625 6.890625 40.078125 11.328125 
Q 45.015625 15.765625 45.015625 23.390625 
Q 45.015625 31 40.078125 35.4375 
Q 35.15625 39.890625 26.703125 39.890625 
Q 22.75 39.890625 18.8125 39.015625 
Q 14.890625 38.140625 10.796875 36.28125 
z
" id="DejaVuSans-53"/>
       </defs>
       <use xlink:href="#DejaVuSans-53"/>
       <use x="63.623047" xlink:href="#DejaVuSans-48"/>
       <use x="127.246094" xlink:href="#DejaVuSans-48"/>
      </g>
     </g>
    </g>
    <g id="xtick_3">
     <g id="line2d_3">
      <g>
       <use style="stroke:#000000;stroke-width:0.8;" x="152.607493" xlink:href="#m0bd8d41128" y="200.64351"/>
      </g>
     </g>
     <g id="text_3">
      <!-- 1000 -->
      <g transform="translate(139.882493 215.241947)scale(0.1 -0.1)">
       <defs>
        <path d="M 12.40625 8.296875 
L 28.515625 8.296875 
L 28.515625 63.921875 
L 10.984375 60.40625 
L 10.984375 69.390625 
L 28.421875 72.90625 
L 38.28125 72.90625 
L 38.28125 8.296875 
L 54.390625 8.296875 
L 54.390625 0 
L 12.40625 0 
z
" id="DejaVuSans-49"/>
       </defs>
       <use xlink:href="#DejaVuSans-49"/>
       <use x="63.623047" xlink:href="#DejaVuSans-48"/>
       <use x="127.246094" xlink:href="#DejaVuSans-48"/>
       <use x="190.869141" xlink:href="#DejaVuSans-48"/>
      </g>
     </g>
    </g>
    <g id="xtick_4">
     <g id="line2d_4">
      <g>
       <use style="stroke:#000000;stroke-width:0.8;" x="209.120494" xlink:href="#m0bd8d41128" y="200.64351"/>
      </g>
     </g>
     <g id="text_4">
      <!-- 1500 -->
      <g transform="translate(196.395494 215.241947)scale(0.1 -0.1)">
       <use xlink:href="#DejaVuSans-49"/>
       <use x="63.623047" xlink:href="#DejaVuSans-53"/>
       <use x="127.246094" xlink:href="#DejaVuSans-48"/>
       <use x="190.869141" xlink:href="#DejaVuSans-48"/>
      </g>
     </g>
    </g>
    <g id="xtick_5">
     <g id="line2d_5">
      <g>
       <use style="stroke:#000000;stroke-width:0.8;" x="265.633495" xlink:href="#m0bd8d41128" y="200.64351"/>
      </g>
     </g>
     <g id="text_5">
      <!-- 2000 -->
      <g transform="translate(252.908495 215.241947)scale(0.1 -0.1)">
       <defs>
        <path d="M 19.1875 8.296875 
L 53.609375 8.296875 
L 53.609375 0 
L 7.328125 0 
L 7.328125 8.296875 
Q 12.9375 14.109375 22.625 23.890625 
Q 32.328125 33.6875 34.8125 36.53125 
Q 39.546875 41.84375 41.421875 45.53125 
Q 43.3125 49.21875 43.3125 52.78125 
Q 43.3125 58.59375 39.234375 62.25 
Q 35.15625 65.921875 28.609375 65.921875 
Q 23.96875 65.921875 18.8125 64.3125 
Q 13.671875 62.703125 7.8125 59.421875 
L 7.8125 69.390625 
Q 13.765625 71.78125 18.9375 73 
Q 24.125 74.21875 28.421875 74.21875 
Q 39.75 74.21875 46.484375 68.546875 
Q 53.21875 62.890625 53.21875 53.421875 
Q 53.21875 48.921875 51.53125 44.890625 
Q 49.859375 40.875 45.40625 35.40625 
Q 44.1875 33.984375 37.640625 27.21875 
Q 31.109375 20.453125 19.1875 8.296875 
z
" id="DejaVuSans-50"/>
       </defs>
       <use xlink:href="#DejaVuSans-50"/>
       <use x="63.623047" xlink:href="#DejaVuSans-48"/>
       <use x="127.246094" xlink:href="#DejaVuSans-48"/>
       <use x="190.869141" xlink:href="#DejaVuSans-48"/>
      </g>
     </g>
    </g>
    <g id="xtick_6">
     <g id="line2d_6">
      <g>
       <use style="stroke:#000000;stroke-width:0.8;" x="322.146497" xlink:href="#m0bd8d41128" y="200.64351"/>
      </g>
     </g>
     <g id="text_6">
      <!-- 2500 -->
      <g transform="translate(309.421497 215.241947)scale(0.1 -0.1)">
       <use xlink:href="#DejaVuSans-50"/>
       <use x="63.623047" xlink:href="#DejaVuSans-53"/>
       <use x="127.246094" xlink:href="#DejaVuSans-48"/>
       <use x="190.869141" xlink:href="#DejaVuSans-48"/>
      </g>
     </g>
    </g>
    <g id="text_7">
     <!-- time (msec) -->
     <g transform="translate(168.203125 228.920073)scale(0.1 -0.1)">
      <defs>
       <path d="M 18.3125 70.21875 
L 18.3125 54.6875 
L 36.8125 54.6875 
L 36.8125 47.703125 
L 18.3125 47.703125 
L 18.3125 18.015625 
Q 18.3125 11.328125 20.140625 9.421875 
Q 21.96875 7.515625 27.59375 7.515625 
L 36.8125 7.515625 
L 36.8125 0 
L 27.59375 0 
Q 17.1875 0 13.234375 3.875 
Q 9.28125 7.765625 9.28125 18.015625 
L 9.28125 47.703125 
L 2.6875 47.703125 
L 2.6875 54.6875 
L 9.28125 54.6875 
L 9.28125 70.21875 
z
" id="DejaVuSans-116"/>
       <path d="M 9.421875 54.6875 
L 18.40625 54.6875 
L 18.40625 0 
L 9.421875 0 
z
M 9.421875 75.984375 
L 18.40625 75.984375 
L 18.40625 64.59375 
L 9.421875 64.59375 
z
" id="DejaVuSans-105"/>
       <path d="M 52 44.1875 
Q 55.375 50.25 60.0625 53.125 
Q 64.75 56 71.09375 56 
Q 79.640625 56 84.28125 50.015625 
Q 88.921875 44.046875 88.921875 33.015625 
L 88.921875 0 
L 79.890625 0 
L 79.890625 32.71875 
Q 79.890625 40.578125 77.09375 44.375 
Q 74.3125 48.1875 68.609375 48.1875 
Q 61.625 48.1875 57.5625 43.546875 
Q 53.515625 38.921875 53.515625 30.90625 
L 53.515625 0 
L 44.484375 0 
L 44.484375 32.71875 
Q 44.484375 40.625 41.703125 44.40625 
Q 38.921875 48.1875 33.109375 48.1875 
Q 26.21875 48.1875 22.15625 43.53125 
Q 18.109375 38.875 18.109375 30.90625 
L 18.109375 0 
L 9.078125 0 
L 9.078125 54.6875 
L 18.109375 54.6875 
L 18.109375 46.1875 
Q 21.1875 51.21875 25.484375 53.609375 
Q 29.78125 56 35.6875 56 
Q 41.65625 56 45.828125 52.96875 
Q 50 49.953125 52 44.1875 
z
" id="DejaVuSans-109"/>
       <path d="M 56.203125 29.59375 
L 56.203125 25.203125 
L 14.890625 25.203125 
Q 15.484375 15.921875 20.484375 11.0625 
Q 25.484375 6.203125 34.421875 6.203125 
Q 39.59375 6.203125 44.453125 7.46875 
Q 49.3125 8.734375 54.109375 11.28125 
L 54.109375 2.78125 
Q 49.265625 0.734375 44.1875 -0.34375 
Q 39.109375 -1.421875 33.890625 -1.421875 
Q 20.796875 -1.421875 13.15625 6.1875 
Q 5.515625 13.8125 5.515625 26.8125 
Q 5.515625 40.234375 12.765625 48.109375 
Q 20.015625 56 32.328125 56 
Q 43.359375 56 49.78125 48.890625 
Q 56.203125 41.796875 56.203125 29.59375 
z
M 47.21875 32.234375 
Q 47.125 39.59375 43.09375 43.984375 
Q 39.0625 48.390625 32.421875 48.390625 
Q 24.90625 48.390625 20.390625 44.140625 
Q 15.875 39.890625 15.1875 32.171875 
z
" id="DejaVuSans-101"/>
       <path id="DejaVuSans-32"/>
       <path d="M 31 75.875 
Q 24.46875 64.65625 21.28125 53.65625 
Q 18.109375 42.671875 18.109375 31.390625 
Q 18.109375 20.125 21.3125 9.0625 
Q 24.515625 -2 31 -13.1875 
L 23.1875 -13.1875 
Q 15.875 -1.703125 12.234375 9.375 
Q 8.59375 20.453125 8.59375 31.390625 
Q 8.59375 42.28125 12.203125 53.3125 
Q 15.828125 64.359375 23.1875 75.875 
z
" id="DejaVuSans-40"/>
       <path d="M 44.28125 53.078125 
L 44.28125 44.578125 
Q 40.484375 46.53125 36.375 47.5 
Q 32.28125 48.484375 27.875 48.484375 
Q 21.1875 48.484375 17.84375 46.4375 
Q 14.5 44.390625 14.5 40.28125 
Q 14.5 37.15625 16.890625 35.375 
Q 19.28125 33.59375 26.515625 31.984375 
L 29.59375 31.296875 
Q 39.15625 29.25 43.1875 25.515625 
Q 47.21875 21.78125 47.21875 15.09375 
Q 47.21875 7.46875 41.1875 3.015625 
Q 35.15625 -1.421875 24.609375 -1.421875 
Q 20.21875 -1.421875 15.453125 -0.5625 
Q 10.6875 0.296875 5.421875 2 
L 5.421875 11.28125 
Q 10.40625 8.6875 15.234375 7.390625 
Q 20.0625 6.109375 24.8125 6.109375 
Q 31.15625 6.109375 34.5625 8.28125 
Q 37.984375 10.453125 37.984375 14.40625 
Q 37.984375 18.0625 35.515625 20.015625 
Q 33.0625 21.96875 24.703125 23.78125 
L 21.578125 24.515625 
Q 13.234375 26.265625 9.515625 29.90625 
Q 5.8125 33.546875 5.8125 39.890625 
Q 5.8125 47.609375 11.28125 51.796875 
Q 16.75 56 26.8125 56 
Q 31.78125 56 36.171875 55.265625 
Q 40.578125 54.546875 44.28125 53.078125 
z
" id="DejaVuSans-115"/>
       <path d="M 48.78125 52.59375 
L 48.78125 44.1875 
Q 44.96875 46.296875 41.140625 47.34375 
Q 37.3125 48.390625 33.40625 48.390625 
Q 24.65625 48.390625 19.8125 42.84375 
Q 14.984375 37.3125 14.984375 27.296875 
Q 14.984375 17.28125 19.8125 11.734375 
Q 24.65625 6.203125 33.40625 6.203125 
Q 37.3125 6.203125 41.140625 7.25 
Q 44.96875 8.296875 48.78125 10.40625 
L 48.78125 2.09375 
Q 45.015625 0.34375 40.984375 -0.53125 
Q 36.96875 -1.421875 32.421875 -1.421875 
Q 20.0625 -1.421875 12.78125 6.34375 
Q 5.515625 14.109375 5.515625 27.296875 
Q 5.515625 40.671875 12.859375 48.328125 
Q 20.21875 56 33.015625 56 
Q 37.15625 56 41.109375 55.140625 
Q 45.0625 54.296875 48.78125 52.59375 
z
" id="DejaVuSans-99"/>
       <path d="M 8.015625 75.875 
L 15.828125 75.875 
Q 23.140625 64.359375 26.78125 53.3125 
Q 30.421875 42.28125 30.421875 31.390625 
Q 30.421875 20.453125 26.78125 9.375 
Q 23.140625 -1.703125 15.828125 -13.1875 
L 8.015625 -13.1875 
Q 14.5 -2 17.703125 9.0625 
Q 20.90625 20.125 20.90625 31.390625 
Q 20.90625 42.671875 17.703125 53.65625 
Q 14.5 64.65625 8.015625 75.875 
z
" id="DejaVuSans-41"/>
      </defs>
      <use xlink:href="#DejaVuSans-116"/>
      <use x="39.208984" xlink:href="#DejaVuSans-105"/>
      <use x="66.992188" xlink:href="#DejaVuSans-109"/>
      <use x="164.404297" xlink:href="#DejaVuSans-101"/>
      <use x="225.927734" xlink:href="#DejaVuSans-32"/>
      <use x="257.714844" xlink:href="#DejaVuSans-40"/>
      <use x="296.728516" xlink:href="#DejaVuSans-109"/>
      <use x="394.140625" xlink:href="#DejaVuSans-115"/>
      <use x="446.240234" xlink:href="#DejaVuSans-101"/>
      <use x="507.763672" xlink:href="#DejaVuSans-99"/>
      <use x="562.744141" xlink:href="#DejaVuSans-41"/>
     </g>
    </g>
   </g>
   <g id="matplotlib.axis_2">
    <g id="ytick_1">
     <g id="line2d_7">
      <defs>
       <path d="M 0 0 
L -3.5 0 
" id="m194bf6d1fa" style="stroke:#000000;stroke-width:0.8;"/>
      </defs>
      <g>
       <use style="stroke:#000000;stroke-width:0.8;" x="39.58149" xlink:href="#m194bf6d1fa" y="200.64351"/>
      </g>
     </g>
     <g id="text_8">
      <!-- 0.0 -->
      <g transform="translate(16.678365 204.442729)scale(0.1 -0.1)">
       <defs>
        <path d="M 10.6875 12.40625 
L 21 12.40625 
L 21 0 
L 10.6875 0 
z
" id="DejaVuSans-46"/>
       </defs>
       <use xlink:href="#DejaVuSans-48"/>
       <use x="63.623047" xlink:href="#DejaVuSans-46"/>
       <use x="95.410156" xlink:href="#DejaVuSans-48"/>
      </g>
     </g>
    </g>
    <g id="ytick_2">
     <g id="line2d_8">
      <g>
       <use style="stroke:#000000;stroke-width:0.8;" x="39.58149" xlink:href="#m194bf6d1fa" y="161.8747"/>
      </g>
     </g>
     <g id="text_9">
      <!-- 0.2 -->
      <g transform="translate(16.678365 165.673918)scale(0.1 -0.1)">
       <use xlink:href="#DejaVuSans-48"/>
       <use x="63.623047" xlink:href="#DejaVuSans-46"/>
       <use x="95.410156" xlink:href="#DejaVuSans-50"/>
      </g>
     </g>
    </g>
    <g id="ytick_3">
     <g id="line2d_9">
      <g>
       <use style="stroke:#000000;stroke-width:0.8;" x="39.58149" xlink:href="#m194bf6d1fa" y="123.105889"/>
      </g>
     </g>
     <g id="text_10">
      <!-- 0.4 -->
      <g transform="translate(16.678365 126.905108)scale(0.1 -0.1)">
       <defs>
        <path d="M 37.796875 64.3125 
L 12.890625 25.390625 
L 37.796875 25.390625 
z
M 35.203125 72.90625 
L 47.609375 72.90625 
L 47.609375 25.390625 
L 58.015625 25.390625 
L 58.015625 17.1875 
L 47.609375 17.1875 
L 47.609375 0 
L 37.796875 0 
L 37.796875 17.1875 
L 4.890625 17.1875 
L 4.890625 26.703125 
z
" id="DejaVuSans-52"/>
       </defs>
       <use xlink:href="#DejaVuSans-48"/>
       <use x="63.623047" xlink:href="#DejaVuSans-46"/>
       <use x="95.410156" xlink:href="#DejaVuSans-52"/>
      </g>
     </g>
    </g>
    <g id="ytick_4">
     <g id="line2d_10">
      <g>
       <use style="stroke:#000000;stroke-width:0.8;" x="39.58149" xlink:href="#m194bf6d1fa" y="84.337079"/>
      </g>
     </g>
     <g id="text_11">
      <!-- 0.6 -->
      <g transform="translate(16.678365 88.136298)scale(0.1 -0.1)">
       <defs>
        <path d="M 33.015625 40.375 
Q 26.375 40.375 22.484375 35.828125 
Q 18.609375 31.296875 18.609375 23.390625 
Q 18.609375 15.53125 22.484375 10.953125 
Q 26.375 6.390625 33.015625 6.390625 
Q 39.65625 6.390625 43.53125 10.953125 
Q 47.40625 15.53125 47.40625 23.390625 
Q 47.40625 31.296875 43.53125 35.828125 
Q 39.65625 40.375 33.015625 40.375 
z
M 52.59375 71.296875 
L 52.59375 62.3125 
Q 48.875 64.0625 45.09375 64.984375 
Q 41.3125 65.921875 37.59375 65.921875 
Q 27.828125 65.921875 22.671875 59.328125 
Q 17.53125 52.734375 16.796875 39.40625 
Q 19.671875 43.65625 24.015625 45.921875 
Q 28.375 48.1875 33.59375 48.1875 
Q 44.578125 48.1875 50.953125 41.515625 
Q 57.328125 34.859375 57.328125 23.390625 
Q 57.328125 12.15625 50.6875 5.359375 
Q 44.046875 -1.421875 33.015625 -1.421875 
Q 20.359375 -1.421875 13.671875 8.265625 
Q 6.984375 17.96875 6.984375 36.375 
Q 6.984375 53.65625 15.1875 63.9375 
Q 23.390625 74.21875 37.203125 74.21875 
Q 40.921875 74.21875 44.703125 73.484375 
Q 48.484375 72.75 52.59375 71.296875 
z
" id="DejaVuSans-54"/>
       </defs>
       <use xlink:href="#DejaVuSans-48"/>
       <use x="63.623047" xlink:href="#DejaVuSans-46"/>
       <use x="95.410156" xlink:href="#DejaVuSans-54"/>
      </g>
     </g>
    </g>
    <g id="ytick_5">
     <g id="line2d_11">
      <g>
       <use style="stroke:#000000;stroke-width:0.8;" x="39.58149" xlink:href="#m194bf6d1fa" y="45.568269"/>
      </g>
     </g>
     <g id="text_12">
      <!-- 0.8 -->
      <g transform="translate(16.678365 49.367488)scale(0.1 -0.1)">
       <defs>
        <path d="M 31.78125 34.625 
Q 24.75 34.625 20.71875 30.859375 
Q 16.703125 27.09375 16.703125 20.515625 
Q 16.703125 13.921875 20.71875 10.15625 
Q 24.75 6.390625 31.78125 6.390625 
Q 38.8125 6.390625 42.859375 10.171875 
Q 46.921875 13.96875 46.921875 20.515625 
Q 46.921875 27.09375 42.890625 30.859375 
Q 38.875 34.625 31.78125 34.625 
z
M 21.921875 38.8125 
Q 15.578125 40.375 12.03125 44.71875 
Q 8.5 49.078125 8.5 55.328125 
Q 8.5 64.0625 14.71875 69.140625 
Q 20.953125 74.21875 31.78125 74.21875 
Q 42.671875 74.21875 48.875 69.140625 
Q 55.078125 64.0625 55.078125 55.328125 
Q 55.078125 49.078125 51.53125 44.71875 
Q 48 40.375 41.703125 38.8125 
Q 48.828125 37.15625 52.796875 32.3125 
Q 56.78125 27.484375 56.78125 20.515625 
Q 56.78125 9.90625 50.3125 4.234375 
Q 43.84375 -1.421875 31.78125 -1.421875 
Q 19.734375 -1.421875 13.25 4.234375 
Q 6.78125 9.90625 6.78125 20.515625 
Q 6.78125 27.484375 10.78125 32.3125 
Q 14.796875 37.15625 21.921875 38.8125 
z
M 18.3125 54.390625 
Q 18.3125 48.734375 21.84375 45.5625 
Q 25.390625 42.390625 31.78125 42.390625 
Q 38.140625 42.390625 41.71875 45.5625 
Q 45.3125 48.734375 45.3125 54.390625 
Q 45.3125 60.0625 41.71875 63.234375 
Q 38.140625 66.40625 31.78125 66.40625 
Q 25.390625 66.40625 21.84375 63.234375 
Q 18.3125 60.0625 18.3125 54.390625 
z
" id="DejaVuSans-56"/>
       </defs>
       <use xlink:href="#DejaVuSans-48"/>
       <use x="63.623047" xlink:href="#DejaVuSans-46"/>
       <use x="95.410156" xlink:href="#DejaVuSans-56"/>
      </g>
     </g>
    </g>
    <g id="ytick_6">
     <g id="line2d_12">
      <g>
       <use style="stroke:#000000;stroke-width:0.8;" x="39.58149" xlink:href="#m194bf6d1fa" y="6.799459"/>
      </g>
     </g>
     <g id="text_13">
      <!-- 1.0 -->
      <g transform="translate(16.678365 10.598678)scale(0.1 -0.1)">
       <use xlink:href="#DejaVuSans-49"/>
       <use x="63.623047" xlink:href="#DejaVuSans-46"/>
       <use x="95.410156" xlink:href="#DejaVuSans-48"/>
      </g>
     </g>
    </g>
    <g id="text_14">
     <!-- $D(t)/D_0$ -->
     <g transform="translate(10.598677 121.371484)rotate(-90)scale(0.1 -0.1)">
      <defs>
       <path d="M 16.890625 72.90625 
L 38.09375 72.90625 
Q 54.984375 72.90625 63.59375 65.75 
Q 72.21875 58.59375 72.21875 44.484375 
Q 72.21875 35.15625 68.9375 26.53125 
Q 65.671875 17.921875 59.90625 12.015625 
Q 54.109375 5.953125 45.171875 2.96875 
Q 36.234375 0 24.03125 0 
L 2.6875 0 
z
M 25.203125 64.796875 
L 14.203125 8.109375 
L 27.09375 8.109375 
Q 43.65625 8.109375 52.734375 17.625 
Q 61.8125 27.15625 61.8125 44.484375 
Q 61.8125 54.984375 55.953125 59.890625 
Q 50.09375 64.796875 37.59375 64.796875 
z
" id="DejaVuSans-Oblique-68"/>
       <path d="M 42.28125 54.6875 
L 40.921875 47.703125 
L 23 47.703125 
L 17.1875 18.015625 
Q 16.890625 16.359375 16.75 15.234375 
Q 16.609375 14.109375 16.609375 13.484375 
Q 16.609375 10.359375 18.484375 8.9375 
Q 20.359375 7.515625 24.515625 7.515625 
L 33.59375 7.515625 
L 32.078125 0 
L 23.484375 0 
Q 15.484375 0 11.546875 3.125 
Q 7.625 6.25 7.625 12.59375 
Q 7.625 13.71875 7.765625 15.0625 
Q 7.90625 16.40625 8.203125 18.015625 
L 14.015625 47.703125 
L 6.390625 47.703125 
L 7.8125 54.6875 
L 15.28125 54.6875 
L 18.3125 70.21875 
L 27.296875 70.21875 
L 24.3125 54.6875 
z
" id="DejaVuSans-Oblique-116"/>
       <path d="M 25.390625 72.90625 
L 33.6875 72.90625 
L 8.296875 -9.28125 
L 0 -9.28125 
z
" id="DejaVuSans-47"/>
      </defs>
      <use transform="translate(0 0.125)" xlink:href="#DejaVuSans-Oblique-68"/>
      <use transform="translate(77.001953 0.125)" xlink:href="#DejaVuSans-40"/>
      <use transform="translate(116.015625 0.125)" xlink:href="#DejaVuSans-Oblique-116"/>
      <use transform="translate(155.224609 0.125)" xlink:href="#DejaVuSans-41"/>
      <use transform="translate(194.238281 0.125)" xlink:href="#DejaVuSans-47"/>
      <use transform="translate(227.929688 0.125)" xlink:href="#DejaVuSans-Oblique-68"/>
      <use transform="translate(304.931641 -16.28125)scale(0.7)" xlink:href="#DejaVuSans-48"/>
     </g>
    </g>
   </g>
   <g id="patch_3">
    <path d="M 39.58149 200.64351 
L 39.58149 6.799459 
" style="fill:none;stroke:#000000;stroke-linecap:square;stroke-linejoin:miter;stroke-width:0.8;"/>
   </g>
   <g id="patch_4">
    <path d="M 356.99976 200.64351 
L 356.99976 6.799459 
" style="fill:none;stroke:#000000;stroke-linecap:square;stroke-linejoin:miter;stroke-width:0.8;"/>
   </g>
   <g id="patch_5">
    <path d="M 39.58149 200.64351 
L 356.99976 200.64351 
" style="fill:none;stroke:#000000;stroke-linecap:square;stroke-linejoin:miter;stroke-width:0.8;"/>
   </g>
   <g id="patch_6">
    <path d="M 39.58149 6.799459 
L 356.99976 6.799459 
" style="fill:none;stroke:#000000;stroke-linecap:square;stroke-linejoin:miter;stroke-width:0.8;"/>
   </g>
   <g id="text_15">
    <!-- Briarhill -->
    <g transform="translate(143.457235 24.799459)scale(0.12 -0.12)">
     <defs>
      <path d="M 19.671875 34.8125 
L 19.671875 8.109375 
L 35.5 8.109375 
Q 43.453125 8.109375 47.28125 11.40625 
Q 51.125 14.703125 51.125 21.484375 
Q 51.125 28.328125 47.28125 31.5625 
Q 43.453125 34.8125 35.5 34.8125 
z
M 19.671875 64.796875 
L 19.671875 42.828125 
L 34.28125 42.828125 
Q 41.5 42.828125 45.03125 45.53125 
Q 48.578125 48.25 48.578125 53.8125 
Q 48.578125 59.328125 45.03125 62.0625 
Q 41.5 64.796875 34.28125 64.796875 
z
M 9.8125 72.90625 
L 35.015625 72.90625 
Q 46.296875 72.90625 52.390625 68.21875 
Q 58.5 63.53125 58.5 54.890625 
Q 58.5 48.1875 55.375 44.234375 
Q 52.25 40.28125 46.1875 39.3125 
Q 53.46875 37.75 57.5 32.78125 
Q 61.53125 27.828125 61.53125 20.40625 
Q 61.53125 10.640625 54.890625 5.3125 
Q 48.25 0 35.984375 0 
L 9.8125 0 
z
" id="DejaVuSans-66"/>
      <path d="M 41.109375 46.296875 
Q 39.59375 47.171875 37.8125 47.578125 
Q 36.03125 48 33.890625 48 
Q 26.265625 48 22.1875 43.046875 
Q 18.109375 38.09375 18.109375 28.8125 
L 18.109375 0 
L 9.078125 0 
L 9.078125 54.6875 
L 18.109375 54.6875 
L 18.109375 46.1875 
Q 20.953125 51.171875 25.484375 53.578125 
Q 30.03125 56 36.53125 56 
Q 37.453125 56 38.578125 55.875 
Q 39.703125 55.765625 41.0625 55.515625 
z
" id="DejaVuSans-114"/>
      <path d="M 34.28125 27.484375 
Q 23.390625 27.484375 19.1875 25 
Q 14.984375 22.515625 14.984375 16.5 
Q 14.984375 11.71875 18.140625 8.90625 
Q 21.296875 6.109375 26.703125 6.109375 
Q 34.1875 6.109375 38.703125 11.40625 
Q 43.21875 16.703125 43.21875 25.484375 
L 43.21875 27.484375 
z
M 52.203125 31.203125 
L 52.203125 0 
L 43.21875 0 
L 43.21875 8.296875 
Q 40.140625 3.328125 35.546875 0.953125 
Q 30.953125 -1.421875 24.3125 -1.421875 
Q 15.921875 -1.421875 10.953125 3.296875 
Q 6 8.015625 6 15.921875 
Q 6 25.140625 12.171875 29.828125 
Q 18.359375 34.515625 30.609375 34.515625 
L 43.21875 34.515625 
L 43.21875 35.40625 
Q 43.21875 41.609375 39.140625 45 
Q 35.0625 48.390625 27.6875 48.390625 
Q 23 48.390625 18.546875 47.265625 
Q 14.109375 46.140625 10.015625 43.890625 
L 10.015625 52.203125 
Q 14.9375 54.109375 19.578125 55.046875 
Q 24.21875 56 28.609375 56 
Q 40.484375 56 46.34375 49.84375 
Q 52.203125 43.703125 52.203125 31.203125 
z
" id="DejaVuSans-97"/>
      <path d="M 54.890625 33.015625 
L 54.890625 0 
L 45.90625 0 
L 45.90625 32.71875 
Q 45.90625 40.484375 42.875 44.328125 
Q 39.84375 48.1875 33.796875 48.1875 
Q 26.515625 48.1875 22.3125 43.546875 
Q 18.109375 38.921875 18.109375 30.90625 
L 18.109375 0 
L 9.078125 0 
L 9.078125 75.984375 
L 18.109375 75.984375 
L 18.109375 46.1875 
Q 21.34375 51.125 25.703125 53.5625 
Q 30.078125 56 35.796875 56 
Q 45.21875 56 50.046875 50.171875 
Q 54.890625 44.34375 54.890625 33.015625 
z
" id="DejaVuSans-104"/>
      <path d="M 9.421875 75.984375 
L 18.40625 75.984375 
L 18.40625 0 
L 9.421875 0 
z
" id="DejaVuSans-108"/>
     </defs>
     <use xlink:href="#DejaVuSans-66"/>
     <use x="68.603516" xlink:href="#DejaVuSans-114"/>
     <use x="109.716797" xlink:href="#DejaVuSans-105"/>
     <use x="137.5" xlink:href="#DejaVuSans-97"/>
     <use x="198.779297" xlink:href="#DejaVuSans-114"/>
     <use x="238.142578" xlink:href="#DejaVuSans-104"/>
     <use x="301.521484" xlink:href="#DejaVuSans-105"/>
     <use x="329.304688" xlink:href="#DejaVuSans-108"/>
     <use x="357.087891" xlink:href="#DejaVuSans-108"/>
    </g>
   </g>
   <g id="legend_1">
    <g id="patch_7">
     <path d="M 292.99976 44.196334 
L 349.99976 44.196334 
Q 351.99976 44.196334 351.99976 42.196334 
L 351.99976 13.799459 
Q 351.99976 11.799459 349.99976 11.799459 
L 292.99976 11.799459 
Q 290.99976 11.799459 290.99976 13.799459 
L 290.99976 42.196334 
Q 290.99976 44.196334 292.99976 44.196334 
z
" style="fill:#ffffff;opacity:0.8;stroke:#cccccc;stroke-linejoin:miter;"/>
    </g>
    <g id="PathCollection_3">
     <path d="M 304.99976 23.772896 
C 305.795369 23.772896 306.5585 23.456797 307.12108 22.894217 
C 307.683661 22.331636 307.99976 21.568506 307.99976 20.772896 
C 307.99976 19.977287 307.683661 19.214157 307.12108 18.651576 
C 306.5585 18.088995 305.795369 17.772896 304.99976 17.772896 
C 304.204151 17.772896 303.44102 18.088995 302.87844 18.651576 
C 302.315859 19.214157 301.99976 19.977287 301.99976 20.772896 
C 301.99976 21.568506 302.315859 22.331636 302.87844 22.894217 
C 303.44102 23.456797 304.204151 23.772896 304.99976 23.772896 
z
" style="fill:none;stroke:#ff0000;"/>
    </g>
    <g id="text_16">
     <!-- $\rho \neq 0$ -->
     <g transform="translate(322.99976 23.397896)scale(0.1 -0.1)">
      <defs>
       <path d="M 18.796875 44.921875 
Q 22.703125 49.90625 30.953125 54.296875 
Q 34.1875 56 43.0625 56 
Q 53.03125 56 57.71875 48.09375 
Q 62.40625 40.1875 59.90625 27.296875 
Q 57.375 14.40625 49.609375 6.484375 
Q 41.84375 -1.421875 31.890625 -1.421875 
Q 25.875 -1.421875 22.015625 0.984375 
Q 18.171875 3.328125 16.3125 8.203125 
L 10.640625 -20.796875 
L 1.609375 -20.796875 
L 10.890625 26.8125 
Q 13.09375 38.09375 18.796875 44.921875 
z
M 50.59375 27.296875 
Q 52.484375 37.203125 49.515625 42.875 
Q 46.53125 48.484375 39.40625 48.484375 
Q 32.28125 48.484375 27.09375 42.875 
Q 21.921875 37.203125 20.015625 27.296875 
Q 18.0625 17.390625 21.046875 11.71875 
Q 24.03125 6.109375 31.15625 6.109375 
Q 38.28125 6.109375 43.453125 11.71875 
Q 48.640625 17.390625 50.59375 27.296875 
z
" id="DejaVuSans-Oblique-961"/>
       <path d="M 10.59375 45.40625 
L 48.296875 45.40625 
L 60.796875 60.796875 
L 66.890625 55.8125 
L 58.40625 45.40625 
L 73.1875 45.40625 
L 73.1875 37.203125 
L 51.703125 37.203125 
L 42.1875 25.484375 
L 73.1875 25.484375 
L 73.1875 17.1875 
L 35.40625 17.1875 
L 22.796875 1.90625 
L 16.703125 6.890625 
L 25.203125 17.1875 
L 10.59375 17.1875 
L 10.59375 25.484375 
L 31.984375 25.484375 
L 41.5 37.203125 
L 10.59375 37.203125 
z
" id="DejaVuSans-8800"/>
      </defs>
      <use transform="translate(0 0.78125)" xlink:href="#DejaVuSans-Oblique-961"/>
      <use transform="translate(82.958984 0.78125)" xlink:href="#DejaVuSans-8800"/>
      <use transform="translate(186.230469 0.78125)" xlink:href="#DejaVuSans-48"/>
     </g>
    </g>
    <g id="PathCollection_4">
     <path d="M 301.99976 38.471334 
L 307.99976 38.471334 
L 307.99976 32.471334 
L 301.99976 32.471334 
z
" style="fill:none;stroke:#0000ff;"/>
    </g>
    <g id="text_17">
     <!-- $\rho = 0$ -->
     <g transform="translate(322.99976 38.096334)scale(0.1 -0.1)">
      <defs>
       <path d="M 10.59375 45.40625 
L 73.1875 45.40625 
L 73.1875 37.203125 
L 10.59375 37.203125 
z
M 10.59375 25.484375 
L 73.1875 25.484375 
L 73.1875 17.1875 
L 10.59375 17.1875 
z
" id="DejaVuSans-61"/>
      </defs>
      <use transform="translate(0 0.78125)" xlink:href="#DejaVuSans-Oblique-961"/>
      <use transform="translate(82.958984 0.78125)" xlink:href="#DejaVuSans-61"/>
      <use transform="translate(186.230469 0.78125)" xlink:href="#DejaVuSans-48"/>
     </g>
    </g>
   </g>
  </g>
 </g>
 <defs>
  <clipPath id="pf93e15a4fa">
   <rect height="193.844051" width="317.41827" x="39.58149" y="6.799459"/>
  </clipPath>
 </defs>
</svg>
